<svg width="16" height="16" viewBox="0 0 16 16" fill="none" 
    xmlns="http://www.w3.org/2000/svg">
    <path d="M15.0625 9.375L14.0625 8.78125C14.0625 8.5625 14.0938 8.21875 14.0938 8C14.0938 7.8125 14.0625 7.46875 14.0625 7.25L15.0625 6.65625C15.375 6.5 15.5 6.125 15.4062 5.8125C15.0625 4.625 14.4375 3.5625 13.625 2.6875C13.375 2.4375 13 2.375 12.6875 2.5625L11.6875 3.15625C11.3438 2.875 10.75 2.53125 10.3438 2.375V1.21875C10.3438 0.84375 10.125 0.5625 9.78125 0.46875C8.59375 0.1875 7.375 0.1875 6.1875 0.46875C5.84375 0.5625 5.625 0.84375 5.625 1.21875V2.375C5.21875 2.53125 4.625 2.875 4.28125 3.15625L3.28125 2.5625C2.96875 2.375 2.59375 2.4375 2.34375 2.6875C1.53125 3.5625 0.90625 4.625 0.5625 5.8125C0.46875 6.125 0.59375 6.5 0.90625 6.65625L1.90625 7.25C1.90625 7.46875 1.875 7.8125 1.875 8C1.875 8.21875 1.90625 8.5625 1.90625 8.78125L0.90625 9.375C0.59375 9.53125 0.46875 9.90625 0.5625 10.2188C0.90625 11.4062 1.53125 12.4688 2.34375 13.3438C2.59375 13.5938 2.96875 13.6562 3.28125 13.4688L4.28125 12.875C4.625 13.1562 5.21875 13.5 5.625 13.6562V14.8125C5.625 15.1875 5.84375 15.4688 6.1875 15.5625C7.375 15.8438 8.59375 15.8438 9.78125 15.5625C10.125 15.4688 10.3438 15.1875 10.3438 14.8125V13.6562C10.75 13.5 11.3438 13.1562 11.6875 12.875L12.6875 13.4688C13 13.6562 13.375 13.5938 13.625 13.3438C14.4375 12.4688 15.0625 11.4062 15.4062 10.2188C15.5 9.90625 15.375 9.53125 15.0625 9.375ZM13.0312 12.5L11.5625 11.6562C10.7188 12.4062 10.4375 12.5625 9.34375 12.9688V14.625C8.96875 14.7188 8.375 14.7812 8 14.7812C7.59375 14.7812 7 14.7188 6.625 14.625V12.9688C5.5625 12.5938 5.25 12.4062 4.40625 11.6562L2.9375 12.5C2.34375 11.8125 1.875 11 1.5625 10.125L3.03125 9.3125C2.8125 8.1875 2.8125 7.84375 3.03125 6.71875L1.5625 5.90625C1.875 5.03125 2.34375 4.21875 2.9375 3.53125L4.40625 4.375C5.25 3.625 5.5625 3.4375 6.625 3.0625V1.40625C7 1.3125 7.59375 1.25 8 1.25C8.375 1.25 8.96875 1.3125 9.34375 1.40625V3.0625C10.4062 3.4375 10.7188 3.625 11.5625 4.375L13.0312 3.53125C13.625 4.21875 14.0938 5.03125 14.4062 5.90625L12.9375 6.71875C13.1562 7.84375 13.1562 8.1875 12.9375 9.3125L14.4062 10.125C14.0938 11 13.625 11.8125 13.0312 12.5ZM8 5C6.34375 5 5 6.375 5 8C5 9.65625 6.34375 11 8 11C9.625 11 11 9.65625 11 8C11 6.375 9.625 5 8 5ZM8 10C6.875 10 6 9.125 6 8C6 6.90625 6.875 6 8 6C9.09375 6 10 6.90625 10 8C10 9.125 9.09375 10 8 10Z" fill="black" fill-opacity="0.2"/>
</svg>
