<svg width="20" height="16" viewBox="0 0 20 16" fill="none" 
    xmlns="http://www.w3.org/2000/svg">
    <path d="M18.5 0H15.5C14.6562 0 14 0.6875 14 1.5V2.5H6V1.5C6 0.6875 5.3125 0 4.5 0H1.5C0.65625 0 0 0.6875 0 1.5V4.5C0 5.34375 0.65625 6 1.5 6H4.4375L7.21875 10.7188C7.0625 10.9375 6.96875 11.2188 6.96875 11.5V14.5C6.96875 15.3438 7.65625 16 8.46875 16H11.4688C12.3125 16 12.9688 15.3438 12.9688 14.5V11.5C12.9688 10.6875 12.3125 10 11.4688 10H8.46875C8.3125 10 8.15625 10.0625 8.03125 10.0938L5.40625 5.6875C5.75 5.40625 6 5 6 4.5V3.5H14V4.5C14 5.34375 14.6562 6 15.5 6H18.5C19.3125 6 20 5.34375 20 4.5V1.5C20 0.6875 19.3125 0 18.5 0ZM1 4.5V1.5C1 1.25 1.21875 1 1.5 1H4.5C4.75 1 5 1.25 5 1.5V4.5C5 4.78125 4.75 5 4.5 5H1.5C1.21875 5 1 4.78125 1 4.5ZM11.5 11C11.75 11 12 11.25 12 11.5V14.5C12 14.7812 11.75 15 11.5 15H8.5C8.21875 15 8 14.7812 8 14.5V11.5C8 11.25 8.21875 11 8.5 11H11.5ZM19 4.5C19 4.78125 18.75 5 18.5 5H15.5C15.2188 5 15 4.78125 15 4.5V1.5C15 1.25 15.2188 1 15.5 1H18.5C18.75 1 19 1.25 19 1.5V4.5Z" fill="black" fill-opacity="0.2"/>
</svg>
