<svg width="17" height="17" viewBox="0 0 17 17" fill="none" 
    xmlns="http://www.w3.org/2000/svg">
    <path d="M8 0.25C3.6875 0.25 0.25 3.71875 0.25 8C0.25 12.3125 3.6875 15.75 8 15.75C9.625 15.75 11.25 15.2188 12.5938 14.25C12.75 14.125 12.7812 13.875 12.6562 13.7188L12.5 13.5312C12.375 13.375 12.125 13.3438 11.9688 13.4688C10.8125 14.3125 9.40625 14.75 8 14.75C4.25 14.75 1.25 11.75 1.25 8C1.25 4.28125 4.25 1.25 8 1.25C11.6875 1.25 14.75 3.78125 14.75 7.5C14.75 9.78125 13.0938 10.9062 11.0938 10.9062C10.5 10.9062 10.375 10.5625 10.5 9.84375L11.5 4.71875C11.5312 4.46875 11.375 4.25 11.125 4.25H10.75C10.5625 4.25 10.4062 4.40625 10.375 4.5625C10.3125 4.9375 10.2812 5 10.25 5.375C9.875 4.53125 9.0625 4.03125 7.96875 4.03125C5.84375 4.03125 3.8125 6 3.8125 8.9375C3.8125 10.8438 4.875 12 6.625 12C7.875 12 8.84375 11.25 9.34375 10.5312C9.3125 11.4062 9.875 11.8438 10.7812 11.8438C14.1562 11.8438 15.75 10.0625 15.75 7.5C15.75 3.25 12.2812 0.25 8 0.25ZM6.8125 10.9688C5.65625 10.9688 4.96875 10.1875 4.96875 8.875C4.96875 6.53125 6.5625 5.0625 8 5.0625C9.21875 5.0625 9.8125 5.9375 9.8125 7.125C9.8125 8.9375 8.625 10.9688 6.8125 10.9688Z" fill="black" fill-opacity="0.2"/>
</svg>
