<svg width="45" height="45" viewBox="0 0 45 45" fill="none" 
    xmlns="http://www.w3.org/2000/svg">
    <path d="M44.0625 19.6875H25.3125V0.9375C25.3125 0.46875 24.8438 0 24.375 0H20.625C20.0391 0 19.6875 0.46875 19.6875 0.9375V19.6875H0.9375C0.351562 19.6875 0 20.1562 0 20.625V24.375C0 24.9609 0.351562 25.3125 0.9375 25.3125H19.6875V44.0625C19.6875 44.6484 20.0391 45 20.625 45H24.375C24.8438 45 25.3125 44.6484 25.3125 44.0625V25.3125H44.0625C44.5312 25.3125 45 24.9609 45 24.375V20.625C45 20.1562 44.5312 19.6875 44.0625 19.6875Z" fill="white" fill-opacity="0.9"/>
</svg>
