<svg width="12" height="16" viewBox="0 0 12 16" fill="none" 
    xmlns="http://www.w3.org/2000/svg">
    <path d="M6.25 0C3.875 0 2.15625 1 0.875 2.9375C0.40625 3.59375 0.5625 4.46875 1.21875 4.96875L2.53125 5.96875C3.15625 6.4375 4.09375 6.34375 4.59375 5.6875C5.28125 4.84375 5.5 4.6875 6.03125 4.6875C6.375 4.6875 6.84375 4.90625 6.84375 5.25C6.84375 6.0625 3.40625 5.90625 3.40625 9.09375V9.5C3.40625 10.0312 3.65625 10.4688 4.03125 10.7188C3.40625 11.2812 3 12.0938 3 13C3 14.6562 4.34375 16 6 16C7.625 16 9 14.6562 9 13C9 12.0938 8.5625 11.2812 7.9375 10.7188C8.3125 10.4688 8.5625 10.0312 8.5625 9.5V9.375C9.34375 8.78125 11.8125 7.96875 11.8125 5C11.8125 2.15625 9 0 6.25 0ZM6 15C4.875 15 4 14.125 4 13C4 11.9062 4.875 11 6 11C7.09375 11 8 11.9062 8 13C8 14.125 7.09375 15 6 15ZM7.5625 9.1875V9.5C7.5625 9.78125 7.3125 10 7.0625 10H4.90625C4.65625 10 4.40625 9.78125 4.40625 9.5V9.09375C4.40625 6.375 7.84375 7.28125 7.84375 5.25C7.84375 4.25 6.84375 3.6875 6.03125 3.6875C5 3.6875 4.5 4.1875 3.8125 5.0625C3.65625 5.28125 3.34375 5.3125 3.125 5.15625L1.8125 4.15625C1.59375 4 1.53125 3.71875 1.6875 3.5C2.75 1.90625 4.125 1 6.25 1C8.46875 1 10.8125 2.75 10.8125 5C10.8125 8.03125 7.5625 8.0625 7.5625 9.1875Z" fill="black" fill-opacity="0.2"/>
</svg>
