<svg width="16" height="17" viewBox="0 0 16 17" fill="none" 
    xmlns="http://www.w3.org/2000/svg">
    <path d="M15.5312 7.0625L8.9375 0.46875C8.6875 0.21875 8.21875 0 7.875 0H1.5C0.65625 0 0 0.6875 0 1.5V7.90625C0 8.25 0.1875 8.71875 0.4375 8.96875L7.03125 15.5625C7.625 16.1562 8.59375 16.1562 9.15625 15.5625L15.5312 9.1875C16.125 8.625 16.125 7.65625 15.5312 7.0625ZM14.8438 8.5L8.46875 14.875C8.25 15.0625 7.9375 15.0625 7.75 14.875L1.125 8.25C1.0625 8.15625 1 8 1 7.90625V1.5C1 1.25 1.21875 1 1.5 1H7.875C8 1 8.125 1.0625 8.21875 1.15625L14.8438 7.78125C15.0312 7.96875 15.0312 8.28125 14.8438 8.5ZM4.5 3.875C4.84375 3.875 5.125 4.15625 5.125 4.5C5.125 4.875 4.84375 5.125 4.5 5.125C4.125 5.125 3.875 4.875 3.875 4.5C3.875 4.15625 4.125 3.875 4.5 3.875ZM4.5 3C3.65625 3 3 3.6875 3 4.5C3 5.34375 3.65625 6 4.5 6C5.3125 6 6 5.34375 6 4.5C6 3.6875 5.3125 3 4.5 3Z" fill="black" fill-opacity="0.2"/>
</svg>
