<svg width="16" height="16" viewBox="0 0 16 16" fill="none" 
    xmlns="http://www.w3.org/2000/svg">
    <path d="M8 1C9.90625 1 11.5 2.59375 11.5 4.5C11.5 6.4375 9.90625 8 8 8C6.0625 8 4.5 6.4375 4.5 4.5C4.5 2.59375 6.0625 1 8 1ZM12 11C13.625 11 15 12.375 15 14V15H1V14C1 12.375 2.34375 11 4 11C6.65625 11 6.09375 11.5 8 11.5C9.875 11.5 9.3125 11 12 11ZM8 0C5.5 0 3.5 2.03125 3.5 4.5C3.5 7 5.5 9 8 9C10.4688 9 12.5 7 12.5 4.5C12.5 2.03125 10.4688 0 8 0ZM12 10C9.09375 10 9.78125 10.5 8 10.5C6.21875 10.5 6.875 10 4 10C1.78125 10 0 11.8125 0 14V15C0 15.5625 0.4375 16 1 16H15C15.5312 16 16 15.5625 16 15V14C16 11.8125 14.1875 10 12 10Z" fill="black" fill-opacity="0.2"/>
</svg>
