<svg width="18" height="24" viewBox="0 0 18 24" fill="none" 
    xmlns="http://www.w3.org/2000/svg">
    <path d="M17.2969 4.59375L13.4062 0.65625C12.9844 0.234375 12.375 0 11.8125 0H2.25C0.984375 0 0 1.03125 0 2.25V21.75C0 23.0156 0.984375 24 2.25 24H15.75C16.9688 24 18 23.0156 18 21.75V6.1875C18 5.625 17.7188 5.01562 17.2969 4.59375ZM16.2656 5.67188C16.3594 5.76562 16.4062 5.90625 16.4531 6H12V1.54688C12.0938 1.59375 12.2344 1.64062 12.3281 1.73438L16.2656 5.67188ZM15.75 22.5H2.25C1.82812 22.5 1.5 22.1719 1.5 21.75V2.25C1.5 1.875 1.82812 1.5 2.25 1.5H10.5V6.375C10.5 7.03125 10.9688 7.5 11.625 7.5H16.5V21.75C16.5 22.1719 16.125 22.5 15.75 22.5ZM13.5 11.0625C13.5 10.7812 13.2188 10.5 12.9375 10.5H5.0625C4.73438 10.5 4.5 10.7812 4.5 11.0625V11.4375C4.5 11.7656 4.73438 12 5.0625 12H12.9375C13.2188 12 13.5 11.7656 13.5 11.4375V11.0625ZM13.5 14.0625C13.5 13.7812 13.2188 13.5 12.9375 13.5H5.0625C4.73438 13.5 4.5 13.7812 4.5 14.0625V14.4375C4.5 14.7656 4.73438 15 5.0625 15H12.9375C13.2188 15 13.5 14.7656 13.5 14.4375V14.0625ZM13.5 17.0625C13.5 16.7812 13.2188 16.5 12.9375 16.5H5.0625C4.73438 16.5 4.5 16.7812 4.5 17.0625V17.4375C4.5 17.7656 4.73438 18 5.0625 18H12.9375C13.2188 18 13.5 17.7656 13.5 17.4375V17.0625Z" fill="#FC050C"/>
</svg>
