<svg>
    <defs>
        <font id="BerlingskeSans-Bold" horiz-adv-x="588">
            <font-face font-family="Berlingske Sans" font-weight="700" font-stretch="normal" units-per-em="1000" panose-1="2 0 8 3 5 0 0 2 0 4" ascent="750" descent="-250" x-height="510" cap-height="690" bbox="-179 -254 1204 954" underline-thickness="50" underline-position="-50" unicode-range="U+0020-FB04"/>
            <missing-glyph horiz-adv-x="802"/>
            <glyph glyph-name=".notdef" horiz-adv-x="802"/>
            <glyph glyph-name=".null" horiz-adv-x="0"/>
            <glyph glyph-name="nonmarkingreturn" horiz-adv-x="333"/>
            <glyph glyph-name="space" unicode=" " horiz-adv-x="210"/>
            <glyph glyph-name="exclam" unicode="!" horiz-adv-x="256" d="M90 210q-11 121 -22 239.5t-18 240.5h155q-7 -121 -18 -240t-21 -240h-76zM62 0v125h132v-125h-132z"/>
            <glyph glyph-name="quotedbl" unicode=""" horiz-adv-x="402" d="M245 455v235h100v-235h-100zM53 455v235h100v-235h-100z"/>
            <glyph glyph-name="numbersign" unicode="#" d="M272 0l45 226h-95l-46 -226h-69l45 226h-119l14 66h119l22 105h-121l13 66h120l47 227h68l-46 -227h96l47 227h68l-46 -227h120l-14 -66h-119l-21 -105h119l-13 -66h-120l-45 -226h-69zM352 397h-97l-20 -105h96z"/>
            <glyph glyph-name="dollar" unicode="$" d="M248 -116v105q-60 2 -112 17.5t-88 38.5l63 92q22 -15 60.5 -27t76.5 -16v197q-35 14 -69 30.5t-62 39.5t-45 54.5t-17 75.5q0 37 15 68t41.5 55t61.5 40t75 23v76h88v-73q49 -5 93.5 -19.5t73.5 -31.5l-50 -92q-18 10 -50.5 21t-66.5 16v-180q34 -14 68.5 -31t62 -40.5 t44.5 -56t17 -78.5q0 -40 -16 -72t-42.5 -56.5t-61.5 -41t-72 -23.5v-111h-88zM336 104q24 10 39.5 28t15.5 46q0 24 -15 41.5t-40 31.5v-147zM248 568q-25 -8 -40.5 -23.5t-15.5 -38.5q0 -24 15 -41.5t41 -31.5v135z"/>
            <glyph glyph-name="percent" unicode="%" horiz-adv-x="846" d="M152 0l391 614h-185q15 -20 23.5 -44t8.5 -51q0 -35 -14 -66t-38 -54t-56.5 -36.5t-68.5 -13.5q-37 0 -69 13.5t-56 36.5t-38 54t-14 66t13.5 66t37.5 54.5t56 37t68 13.5h490l-442 -690h-107zM213 436q34 0 56.5 24t22.5 59t-22.5 59t-56.5 24q-35 0 -57.5 -24 t-22.5 -59t22.5 -59t57.5 -24zM810 158q0 -36 -14 -67t-38 -54t-56 -36t-69 -13q-36 0 -68.5 13t-56.5 36t-38 54t-14 67t14 67t38 54t56.5 36.5t68.5 13.5q37 0 69 -13.5t56 -36.5t38 -54t14 -67zM633 75q35 0 57.5 24t22.5 59t-22.5 59t-57.5 24t-57 -24t-22 -59t22 -59 t57 -24z"/>
            <glyph glyph-name="ampersand" unicode="&" horiz-adv-x="710" d="M527 0l-63 68q-45 -37 -98.5 -58.5t-113.5 -21.5q-49 0 -90 11t-70 33.5t-45.5 56.5t-16.5 79q0 64 41.5 112t109.5 93q-35 38 -53 75.5t-18 80.5q0 42 16.5 74.5t43.5 54t61.5 33t70.5 11.5t69 -10.5t58.5 -31.5t41 -52t15.5 -73q0 -53 -32.5 -91t-90.5 -75l-9 -6 l114 -124q36 62 47 131h124q-8 -54 -31.5 -110t-61.5 -107l140 -153h-159zM248 301q-44 -29 -68 -60t-24 -64q0 -35 26.5 -60t76.5 -25q35 0 69 14.5t63 39.5zM291 432q69 48 69 105q0 34 -18.5 50.5t-41.5 16.5t-41.5 -20.5t-18.5 -52.5q0 -26 14 -50t37 -49z"/>
            <glyph glyph-name="quotesingle" unicode="'" horiz-adv-x="207" d="M53 455v235h100v-235h-100z"/>
            <glyph glyph-name="parenleft" unicode="(" horiz-adv-x="368" d="M246 -140q-37 51 -68.5 104t-54.5 108t-36 114t-13 122q0 64 13 122.5t36 113t54.5 107t68.5 105.5h114q-31 -52 -59.5 -105.5t-50 -109t-34 -114t-12.5 -119.5q0 -62 12 -120.5t33.5 -114t50 -108.5t61.5 -105h-115z"/>
            <glyph glyph-name="parenright" unicode=")" horiz-adv-x="368" d="M7 -140q32 52 60.5 105t50 108.5t34 114t12.5 120.5q0 61 -12.5 119.5t-34 114t-50 109t-60.5 105.5h115q37 -52 68.5 -104.5t54.5 -107.5t36 -113.5t13 -122.5t-13 -122.5t-36 -114t-54.5 -108t-68.5 -103.5h-115z"/>
            <glyph glyph-name="asterisk" unicode="*" horiz-adv-x="420" d="M277 334l-68 120l-68 -120l-77 51l96 105l-138 29l29 87l128 -55l-14 139h93l-14 -139l125 56l28 -88l-134 -29l91 -105z"/>
            <glyph glyph-name="plus" unicode="+" d="M337 253v-175h-88v175h-174v88h174v175h88v-175h176v-88h-176z"/>
            <glyph glyph-name="comma" unicode="," horiz-adv-x="233" d="M50 -134l56 134h-56v125h132v-125l-68 -134h-64z"/>
            <glyph glyph-name="hyphen" unicode="-" horiz-adv-x="327" d="M20 240v91h287v-91h-287z"/>
            <glyph glyph-name="period" unicode="." horiz-adv-x="233" d="M50 0v125h132v-125h-132z"/>
            <glyph glyph-name="slash" unicode="/" horiz-adv-x="392" d="M0 0l312 690h80l-312 -690h-80z"/>
            <glyph glyph-name="zero" unicode="0" d="M294 85q31 0 53 22t35.5 58.5t19.5 82.5t6 94t-6.5 95t-20 84.5t-35 60.5t-52.5 23t-52.5 -23t-35 -60.5t-19.5 -84.5t-6 -95t6 -94t19 -82.5t34.5 -58.5t53.5 -22zM294 -12q-64 0 -111 29t-78 78t-46 113t-15 134t15 135t46 115t78 80t111 30t111 -30t78 -80t46 -115 t15 -135t-15 -134t-46 -113t-78 -78t-111 -29z"/>
            <glyph glyph-name="one" unicode="1" d="M109 0v99h147v459l-141 -95l-49 74l201 153h119v-591h115v-99h-392z"/>
            <glyph glyph-name="two" unicode="2" d="M64 0v104l205 221q47 51 74 91.5t28 86.5q0 39 -27 66t-68 27q-42 0 -80 -23t-62 -58l-83 62q36 54 99.5 89.5t148.5 35.5q45 0 83.5 -14.5t66 -39.5t43 -60t15.5 -75q0 -32 -8.5 -60.5t-25 -57t-41.5 -58t-57 -64.5l-161 -174h301v-99h-451z"/>
            <glyph glyph-name="three" unicode="3" d="M88 126q29 -18 70.5 -29.5t78.5 -11.5q34 0 62.5 10t49 28t32 42.5t11.5 53.5t-11 51.5t-30 38t-43 23.5t-51 8q-23 0 -42 -4.5t-30 -8.5l-46 76l197 188h-265v99h409v-98l-164 -161q43 -3 80.5 -16.5t65.5 -38t44.5 -61t16.5 -86.5q0 -61 -23.5 -106t-63.5 -75 t-91.5 -45t-106.5 -15q-27 0 -55.5 3.5t-55 10t-50.5 16.5t-42 23z"/>
            <glyph glyph-name="four" unicode="4" d="M355 0v151h-318v103l297 436h143v-448h79v-91h-79v-151h-122zM355 561l-214 -319h214v319z"/>
            <glyph glyph-name="five" unicode="5" d="M96 124q29 -17 70.5 -28t81.5 -11q31 0 57.5 9.5t46 27.5t31 43t11.5 55q0 28 -9.5 51t-26.5 39.5t-39.5 25t-49.5 8.5q-32 0 -61 -14t-46 -29l-80 27l52 362h343v-98h-245l-25 -177q20 10 46 18.5t58 8.5q44 0 83 -15t68 -42.5t45.5 -66t16.5 -85.5q0 -62 -24 -107.5 t-62.5 -76.5t-87.5 -46t-100 -15q-63 0 -117 13t-90 37z"/>
            <glyph glyph-name="six" unicode="6" d="M472 568q-25 16 -59 25.5t-67 9.5q-60 0 -101 -49.5t-51 -145.5q25 17 60.5 29.5t71.5 12.5q47 0 86.5 -13.5t68 -40t44.5 -65.5t16 -89q0 -56 -18 -102.5t-49.5 -80t-73.5 -52.5t-91 -19q-60 0 -107.5 24.5t-80 69.5t-50 107.5t-17.5 138.5q0 93 22.5 163.5t62 117 t92.5 70t115 23.5q19 0 42 -3.5t46 -10t46 -17t42 -23.5zM189 316q2 -112 32.5 -171.5t86.5 -59.5q47 0 74.5 40.5t27.5 101.5q0 58 -27.5 95t-81.5 37q-31 0 -60.5 -13t-51.5 -30z"/>
            <glyph glyph-name="seven" unicode="7" d="M110 0l292 591h-361v99h488v-94l-271 -596h-148z"/>
            <glyph glyph-name="eight" unicode="8" d="M395 373q31 -16 57.5 -33.5t46.5 -39.5t31.5 -49.5t11.5 -63.5q0 -48 -22 -85t-57 -62.5t-80.5 -38.5t-91.5 -13t-90.5 12t-80 35.5t-57.5 59t-22 82.5q0 36 12.5 64t32.5 50.5t45 39t50 28.5q-56 31 -89.5 70.5t-33.5 95.5q0 42 20 75t52.5 55.5t74.5 34.5t87 12 t86.5 -12t73.5 -33.5t51 -53t19 -70.5q0 -29 -10.5 -52t-27.5 -42.5t-40.5 -35.5t-48.5 -30zM258 319q-15 -11 -30 -23.5t-27 -28.5t-20 -35t-8 -43q0 -52 34 -78t85 -26q25 0 47 6.5t38.5 18.5t26 29.5t9.5 40.5q0 25 -12 45t-32.5 36t-49 30t-61.5 28zM314 411 q14 10 27.5 21t24.5 24.5t17.5 29.5t6.5 35q0 41 -30.5 62.5t-72.5 21.5q-45 0 -74 -22.5t-29 -57.5q0 -38 34.5 -63t95.5 -51z"/>
            <glyph glyph-name="nine" unicode="9" d="M64 42q2 3 9.5 14.5t16 25t16 25t9.5 14.5q24 -16 58 -25.5t68 -9.5q58 0 98 49.5t51 147.5q-24 -16 -58.5 -28.5t-70.5 -12.5q-47 0 -86.5 14.5t-68.5 41.5t-45.5 66t-16.5 89q0 54 18 100t49.5 79t74.5 51.5t92 18.5q60 0 107 -24.5t79.5 -69t49.5 -105.5t17 -133 q0 -94 -22 -165.5t-61 -119.5t-92.5 -72.5t-115.5 -24.5q-19 0 -41.5 3t-46 10t-46.5 17t-42 24zM396 375q-2 105 -31.5 167t-87.5 62q-23 0 -42 -11t-32.5 -30t-20.5 -44.5t-7 -55.5q0 -59 28.5 -94.5t82.5 -35.5q31 0 60 12.5t50 29.5z"/>
            <glyph glyph-name="colon" unicode=":" horiz-adv-x="233" d="M50 0v125h132v-125h-132zM50 384v126h132v-126h-132z"/>
            <glyph glyph-name="semicolon" unicode=";" horiz-adv-x="233" d="M50 -134l56 134h-56v125h132v-125l-68 -134h-64zM50 384v126h132v-126h-132z"/>
            <glyph glyph-name="less" unicode="<" horiz-adv-x="610" d="M74 243v102l438 166v-97l-337 -119l337 -116v-100z"/>
            <glyph glyph-name="equal" unicode="=" d="M75 345v89h438v-89h-438zM75 160v89h438v-89h-438z"/>
            <glyph glyph-name="greater" unicode=">" horiz-adv-x="610" d="M74 79v100l338 116l-338 119v97l438 -166v-102z"/>
            <glyph glyph-name="question" unicode="?" horiz-adv-x="465" d="M168 210q0 54 20.5 97.5t45.5 81t45.5 70.5t20.5 67q0 35 -25.5 57.5t-72.5 22.5q-16 0 -34.5 -5t-36.5 -13.5t-34.5 -18t-27.5 -18.5l-51 71q14 12 35.5 26t49.5 26t61 20t71 8q37 0 72 -11t62 -31.5t43 -50t16 -67.5q0 -50 -23 -89t-51.5 -75.5t-54 -76.5t-30.5 -91 h-101zM156 0v125h132v-125h-132z"/>
            <glyph glyph-name="at" unicode="@" horiz-adv-x="800" d="M457 220q-12 2 -23 3t-22 1q-46 0 -69.5 -19t-23.5 -49q0 -24 17 -40.5t47 -16.5q22 0 41.5 7t32.5 18v96zM572 -67q-41 -26 -90.5 -35t-88.5 -9q-73 0 -138 25t-113.5 70.5t-77 110.5t-28.5 145q0 77 27 143.5t75 115t115 76.5t148 28q74 0 139 -24t113 -67t76 -104 t28 -134q0 -54 -14.5 -99t-40 -77.5t-60.5 -50.5t-75 -18q-29 0 -59 10t-47 30q-20 -18 -48.5 -33t-69.5 -15q-25 0 -49 7.5t-42.5 23t-30 38.5t-11.5 54q0 34 11 61.5t35.5 47t64.5 30t98 10.5h18.5t19.5 -1v41q0 30 -21 41.5t-46 11.5q-35 0 -70.5 -11t-57.5 -20l-31 66 q30 17 75.5 31.5t107.5 14.5q69 0 112.5 -31.5t43.5 -99.5v-183q0 -37 4 -52.5t22 -15.5q21 0 35.5 18t23 45.5t12 59.5t3.5 61q0 65 -19 115t-53.5 83.5t-83 50.5t-107.5 17q-68 0 -120.5 -22t-88.5 -61t-54.5 -92.5t-18.5 -117.5q0 -67 20 -121t56 -91.5t86 -57.5t110 -20 q38 0 79.5 8t73.5 27z"/>
            <glyph glyph-name="A" unicode="A" horiz-adv-x="634" d="M484 0l-52 177h-233l-52 -177h-133l216 690h175l216 -690h-137zM316 582l-91 -309h181z"/>
            <glyph glyph-name="B" unicode="B" horiz-adv-x="589" d="M75 0v690h205q61 0 109.5 -9t82 -29.5t51 -53.5t17.5 -81q0 -33 -11 -58.5t-29.5 -44.5t-42 -31t-48.5 -18v-3q66 -12 107 -50.5t41 -107.5q0 -54 -20.5 -92.5t-57.5 -63t-87.5 -36.5t-111.5 -12h-205zM274 401q63 0 97 25.5t34 74.5q0 50 -32 70t-84 20h-79v-190h64z M283 99q65 0 101.5 26t36.5 82q0 30 -10.5 50t-29.5 32t-44.5 17t-56.5 5h-70v-212h73z"/>
            <glyph glyph-name="C" unicode="C" horiz-adv-x="579" d="M567 16q-35 -13 -79.5 -20.5t-92.5 -7.5q-78 0 -143.5 26t-113 73t-74 113.5t-26.5 146.5q0 84 29.5 149.5t79.5 111.5t116.5 70t141.5 24q48 0 89 -7.5t73 -20.5l-36 -94q-28 11 -61 17t-68 6q-54 0 -96 -20t-71.5 -54.5t-45 -82t-15.5 -102.5q0 -59 18 -106.5t49.5 -81 t74.5 -51.5t93 -18q33 0 62.5 5t55.5 14z"/>
            <glyph glyph-name="D" unicode="D" horiz-adv-x="722" d="M75 0v690h233q90 0 160 -23t118 -66.5t73 -106t25 -142.5q0 -170 -100 -261t-291 -91h-218zM297 99q121 0 185.5 63.5t64.5 191.5q0 58 -18.5 102t-51 74t-76 45.5t-94.5 15.5h-97v-492h87z"/>
            <glyph glyph-name="E" unicode="E" horiz-adv-x="532" d="M75 0v690h413l-5 -99h-273v-189h245v-96h-245v-207h306v-99h-441z"/>
            <glyph glyph-name="F" unicode="F" horiz-adv-x="532" d="M75 0v690h440v-99h-305v-195h262v-99h-262v-297h-135z"/>
            <glyph glyph-name="G" unicode="G" horiz-adv-x="680" d="M498 334l122 27v-333q-51 -20 -104.5 -30t-120.5 -10q-78 0 -143.5 26t-113 73t-74 113.5t-26.5 146.5q0 84 29.5 150t79.5 111.5t116.5 69.5t141.5 24q73 0 128.5 -15.5t91.5 -35.5l-44 -90q-14 7 -33.5 14.5t-42.5 14t-49.5 10.5t-53.5 4q-54 0 -96 -20t-71.5 -54.5 t-45 -82.5t-15.5 -103q0 -59 17.5 -106.5t49 -81t74.5 -51.5t93 -18q27 0 50 3.5t40 8.5v235z"/>
            <glyph glyph-name="H" unicode="H" horiz-adv-x="722" d="M512 0v302h-302v-302h-135v690h135v-284h302v284h135v-690h-135z"/>
            <glyph glyph-name="I" unicode="I" horiz-adv-x="292" d="M78 0v690h136v-690h-136z"/>
            <glyph glyph-name="J" unicode="J" horiz-adv-x="428" d="M220 690h135v-525q0 -49 -15 -82.5t-42 -54.5t-65.5 -30.5t-84.5 -9.5q-42 0 -84 7t-65 16l31 96q15 -7 44.5 -13.5t58.5 -6.5q38 0 62.5 17.5t24.5 63.5v522z"/>
            <glyph glyph-name="K" unicode="K" horiz-adv-x="663" d="M72 0v690h136v-690h-136zM515 0l-296 349l278 341h143l-270 -329l307 -361h-162z"/>
            <glyph glyph-name="L" unicode="L" horiz-adv-x="499" d="M75 0v690h135v-591h272v-99h-407z"/>
            <glyph glyph-name="M" unicode="M" horiz-adv-x="906" d="M728 0l-32 543l-179 -543h-129l-178 543h-1l-32 -543h-128l52 690h182l171 -528l171 528h181l51 -690h-129z"/>
            <glyph glyph-name="N" unicode="N" horiz-adv-x="738" d="M502 0l-310 543v-543h-117v690h167l303 -534h1v534h117v-690h-161z"/>
            <glyph glyph-name="O" unicode="O" horiz-adv-x="785" d="M392 -12q-72 0 -136.5 25t-112.5 71t-76.5 112t-28.5 149q0 82 28.5 148t76.5 112.5t112.5 71.5t136.5 25t136.5 -25t112.5 -71.5t76.5 -112.5t28.5 -148q0 -83 -28.5 -149t-76.5 -112t-112.5 -71t-136.5 -25zM392 87q48 0 87.5 19.5t68.5 54t45 81.5t16 103t-16 103 t-45 81.5t-68.5 54t-87.5 19.5t-87.5 -19.5t-68.5 -54t-45 -81.5t-16 -103t16 -103t45 -81.5t68.5 -54t87.5 -19.5z"/>
            <glyph glyph-name="P" unicode="P" horiz-adv-x="583" d="M75 0v690h248q56 0 98.5 -15.5t70.5 -43t42 -66.5t14 -86q0 -50 -17 -89.5t-47.5 -67t-72 -42t-89.5 -14.5h-112v-266h-135zM311 365q45 0 74.5 29t29.5 85q0 48 -26 80t-77 32h-102v-226h101z"/>
            <glyph glyph-name="Q" unicode="Q" horiz-adv-x="785" d="M485 -1q-47 -11 -93 -11q-72 0 -136.5 25t-112.5 71t-76.5 112t-28.5 149q0 82 28.5 148t76.5 112.5t112.5 71.5t136.5 25t136.5 -25t112.5 -71.5t76.5 -112.5t28.5 -148q0 -97 -38.5 -170.5t-102.5 -118.5l138 -77l-73 -95zM392 87q48 0 87.5 19.5t68.5 54t45 81.5 t16 103t-16 103t-45 81.5t-68.5 54t-87.5 19.5t-87.5 -19.5t-68.5 -54t-45 -81.5t-16 -103t16 -103t45 -81.5t68.5 -54t87.5 -19.5z"/>
            <glyph glyph-name="R" unicode="R" horiz-adv-x="593" d="M433 0l-146 277h-77v-277h-135v690h239q119 0 176.5 -55t57.5 -150q0 -38 -11 -68t-29.5 -53.5t-43 -39.5t-51.5 -25l168 -299h-148zM300 371q24 0 44.5 6.5t36 20t24.5 35t9 50.5q0 50 -28.5 79t-82.5 29h-93v-220h90z"/>
            <glyph glyph-name="S" unicode="S" horiz-adv-x="518" d="M90 137q26 -17 68 -30.5t83 -13.5q47 0 78 20.5t31 64.5q0 31 -23.5 53t-58.5 41.5t-76 39t-76 46.5t-58.5 63.5t-23.5 89.5q0 43 19 78.5t51.5 60.5t75.5 38.5t91 13.5q58 0 108 -16.5t83 -36.5l-50 -92q-11 6 -26.5 13t-34 13t-38.5 10t-39 4q-45 0 -74 -18t-29 -53 q0 -31 23.5 -52.5t58.5 -40.5t76 -39t76 -47t58.5 -65t23.5 -94q0 -49 -22 -86t-57.5 -62.5t-80 -38.5t-90.5 -13q-66 0 -118.5 16t-91.5 41z"/>
            <glyph glyph-name="T" unicode="T" horiz-adv-x="537" d="M200 0v591h-186v99h508v-99h-186v-591h-136z"/>
            <glyph glyph-name="U" unicode="U" horiz-adv-x="691" d="M482 690h136v-489q0 -54 -21.5 -94t-59 -66.5t-87 -39.5t-105.5 -13t-105 13t-86.5 39t-59 66.5t-21.5 94.5v489h136v-497q0 -27 11 -47t29.5 -33t43.5 -19.5t52 -6.5q28 0 52.5 6.5t43.5 19.5t30 33t11 47v497z"/>
            <glyph glyph-name="V" unicode="V" horiz-adv-x="633" d="M234 0l-221 690h138l169 -565l166 565h134l-218 -690h-168z"/>
            <glyph glyph-name="W" unicode="W" horiz-adv-x="991" d="M623 0l-128 518l-132 -518h-163l-185 690h133l134 -569l139 569h148l140 -569l134 569h133l-187 -690h-166z"/>
            <glyph glyph-name="X" unicode="X" horiz-adv-x="655" d="M493 0l-169 250l-167 -250h-145l241 356l-223 334h150l154 -230l153 230h141l-224 -336l239 -354h-150z"/>
            <glyph glyph-name="Y" unicode="Y" horiz-adv-x="600" d="M232 0v275l-221 415h142l150 -296l152 296h133l-221 -415v-275h-135z"/>
            <glyph glyph-name="Z" unicode="Z" horiz-adv-x="563" d="M37 0v91l331 500h-317v99h470v-91l-332 -500h345v-99h-497z"/>
            <glyph glyph-name="bracketleft" unicode="[" horiz-adv-x="334" d="M85 -141v896h231v-88h-108v-720h108v-88h-231z"/>
            <glyph glyph-name="backslash" unicode="\" horiz-adv-x="392" d="M312 0l-312 690h80l312 -690h-80z"/>
            <glyph glyph-name="bracketright" unicode="]" horiz-adv-x="334" d="M17 -141v88h109v720h-109v88h232v-896h-232z"/>
            <glyph glyph-name="asciicircum" unicode="^" horiz-adv-x="338" d="M235 447l-66 188l-65 -188h-87l81 243h143l80 -243h-86z"/>
            <glyph glyph-name="underscore" unicode="_" horiz-adv-x="446" d="M30 -159v84h386v-84h-386z"/>
            <glyph glyph-name="grave" unicode="`" horiz-adv-x="242" d="M111 568l-76 122h128l50 -122h-102z"/>
            <glyph glyph-name="a" unicode="a" horiz-adv-x="521" d="M331 0l-7 46q-23 -22 -56.5 -40t-81.5 -18q-29 0 -57.5 9t-51 27.5t-36 46t-13.5 64.5q0 40 12 73t39.5 56.5t72 36.5t109.5 13q14 0 32 -1t27 -2v51q0 18 -7 30t-18 19.5t-25 10.5t-29 3q-20 0 -41.5 -4.5t-41.5 -11t-37.5 -13.5t-29.5 -13l-38 84q35 21 89.5 38 t126.5 17q40 0 74 -9t58 -28.5t37.5 -49t13.5 -70.5v-365h-121zM320 226q-14 2 -27 3.5t-26 1.5q-54 0 -82.5 -22.5t-28.5 -58.5q0 -29 21 -48.5t56 -19.5q26 0 49 8.5t38 20.5v115z"/>
            <glyph glyph-name="b" unicode="b" horiz-adv-x="595" d="M68 702l132 27v-268q11 10 26.5 20.5t34.5 19.5t42.5 15t50.5 6q42 0 78.5 -15.5t63.5 -46t42.5 -74.5t15.5 -101q0 -71 -24 -126.5t-66.5 -93.5t-101 -57.5t-127.5 -19.5q-20 0 -43 1.5t-45.5 4.5t-43 7.5t-35.5 10.5v690zM200 93q11 -4 26.5 -6.5t32.5 -2.5 q31 0 59.5 11t50 33.5t34.5 58t13 83.5q0 43 -10 72t-26 47t-36.5 25.5t-41.5 7.5q-31 0 -59 -12t-43 -22v-295z"/>
            <glyph glyph-name="c" unicode="c" horiz-adv-x="460" d="M446 18q-24 -12 -61 -21t-81 -9q-59 0 -107.5 18.5t-83 53t-53.5 83t-19 107.5q0 60 20 110t55 86t84 56t108 20q42 0 74.5 -9t56.5 -20l-39 -88q-17 8 -39 13.5t-44 5.5q-29 0 -54.5 -12t-44.5 -34.5t-30 -54t-11 -69.5q0 -37 10.5 -68t30 -53t47 -34.5t61.5 -12.5 q24 0 46.5 5.5t37.5 11.5z"/>
            <glyph glyph-name="d" unicode="d" horiz-adv-x="596" d="M396 414q-14 9 -35.5 16t-44.5 7q-29 0 -54 -13t-44 -37.5t-29.5 -59t-10.5 -76.5t10.5 -73t28 -52t40.5 -31t49 -10q29 0 53.5 10.5t36.5 18.5v300zM396 0v43q-27 -20 -61 -37.5t-82 -17.5q-44 0 -82.5 17.5t-67 50.5t-45 80t-16.5 106q0 63 18.5 114.5t51.5 88t79 57 t100 20.5q38 0 64.5 -8.5t40.5 -17.5v206l131 27v-729h-131z"/>
            <glyph glyph-name="e" unicode="e" horiz-adv-x="536" d="M496 37q-12 -9 -32.5 -18t-46.5 -15.5t-55.5 -11t-59.5 -4.5q-62 0 -110 19t-81.5 53.5t-51 83t-17.5 106.5q0 61 19 111t52 86t78.5 55.5t98.5 19.5q40 0 77.5 -12.5t66.5 -40t46.5 -71.5t17.5 -108v-57h-319q5 -71 41 -109t102 -38q20 0 41 3.5t39.5 8.5t32.5 11t22 11 zM374 307q-1 60 -25.5 89.5t-63.5 29.5q-42 0 -70.5 -31.5t-34.5 -87.5h194z"/>
            <glyph glyph-name="f" unicode="f" horiz-adv-x="347" d="M97 0v419h-89v91h89v26q0 89 47.5 141t138.5 52q21 0 39 -2.5t34 -7.5v-97q-11 4 -25.5 6t-26.5 2q-41 0 -58 -23.5t-17 -66.5v-30h118v-91h-118v-419h-132z"/>
            <glyph glyph-name="g" unicode="g" horiz-adv-x="519" d="M352 94q80 -6 121 -42t41 -95q0 -41 -19.5 -74t-55 -56t-85 -35.5t-109.5 -12.5q-52 0 -96 9.5t-75.5 27t-49 42t-17.5 54.5q0 38 25 68t57 47q-17 12 -25.5 30t-8.5 37q0 31 19 55t45 43q-33 25 -51.5 61.5t-18.5 82.5q0 43 16.5 77.5t44.5 58.5t65.5 37t79.5 13 q23 0 42 -3.5t36 -8.5h182v-91h-75q24 -38 24 -85q0 -40 -16.5 -73.5t-44 -58t-64 -38t-75.5 -13.5q-24 0 -44.5 3.5t-29.5 7.5q-11 -6 -17 -14t-6 -20q0 -18 18 -21t41 -4zM156 -2q-17 -12 -27.5 -30t-10.5 -36q0 -17 11 -29.5t30 -20.5t44.5 -12t53.5 -4q27 0 52 3.5 t44.5 12t31.5 22.5t12 34t-14 33t-43 15zM256 241q39 0 63 25.5t24 66.5t-23.5 66.5t-63.5 25.5q-39 0 -62.5 -25.5t-23.5 -66.5t23.5 -66.5t62.5 -25.5z"/>
            <glyph glyph-name="h" unicode="h" horiz-adv-x="593" d="M393 0v346q0 35 -16.5 56t-50.5 21q-18 0 -36.5 -5.5t-35.5 -14t-31 -17.5t-23 -16v-370h-132v702l132 27v-279q14 11 33 24t41.5 23.5t47.5 17.5t52 7q26 0 52.5 -8t48.5 -27.5t35.5 -52.5t13.5 -83v-351h-131z"/>
            <glyph glyph-name="i" unicode="i" horiz-adv-x="270" d="M68 0v510h132v-510h-132zM68 570v120h132v-120h-132z"/>
            <glyph glyph-name="j" unicode="j" horiz-adv-x="256" d="M-11 -154q18 16 32.5 32.5t25 38.5t16 51.5t5.5 70.5v471h132v-472q0 -59 -11 -100.5t-28 -71.5t-39 -50.5t-44 -37.5zM68 570v120h132v-120h-132z"/>
            <glyph glyph-name="k" unicode="k" horiz-adv-x="547" d="M68 0v702l132 27v-729h-132zM411 0l-198 291l180 219h143l-181 -218l210 -292h-154z"/>
            <glyph glyph-name="l" unicode="l" horiz-adv-x="268" d="M68 0v702l132 27v-729h-132z"/>
            <glyph glyph-name="m" unicode="m" horiz-adv-x="914" d="M713 0v352q0 71 -64 71q-34 0 -68 -17t-58 -34q1 -14 1 -28.5v-28.5v-315h-132v352q0 71 -64 71q-17 0 -35.5 -5.5t-36 -13t-32 -17t-24.5 -16.5v-371h-132v510h129v-62q14 11 33 23.5t42 23.5t49 18t53 7q18 0 37.5 -4t38 -13t34.5 -24t25 -37q13 11 32.5 25t44 26 t53 20.5t59.5 8.5q25 0 51 -7.5t47.5 -26t35 -51t13.5 -82.5v-355h-132z"/>
            <glyph glyph-name="n" unicode="n" horiz-adv-x="593" d="M393 0v344q0 40 -18.5 59.5t-51.5 19.5q-18 0 -36 -5.5t-34 -13.5t-29.5 -17.5t-23.5 -16.5v-370h-132v510h130v-65q13 11 30.5 24.5t40 25t49 19.5t56.5 8q27 0 53.5 -8t48 -27.5t35 -52.5t13.5 -83v-351h-131z"/>
            <glyph glyph-name="o" unicode="o" horiz-adv-x="608" d="M304 85q33 0 56 14t37.5 37.5t21.5 54t7 63.5q0 35 -7.5 66t-22.5 54t-38 36.5t-54 13.5t-54 -13.5t-38.5 -36.5t-23 -54t-7.5 -66q0 -33 7 -63.5t21.5 -54t38 -37.5t56.5 -14zM304 -12q-58 0 -106 19t-82.5 54t-54 84.5t-19.5 110.5q0 60 19 109.5t53.5 84t83 53.5 t106.5 19t106 -19t82.5 -53.5t54 -83.5t19.5 -110t-19.5 -110.5t-54 -84.5t-83 -54t-105.5 -19z"/>
            <glyph glyph-name="p" unicode="p" horiz-adv-x="595" d="M68 -205v715h132v-49q11 10 25.5 20.5t32.5 19.5t40 15t49 6q43 0 81 -18.5t66 -52.5t44 -81t16 -104q0 -72 -24.5 -124.5t-65 -86.5t-92.5 -50.5t-107 -16.5q-6 0 -15 0.5t-19 1.5t-18.5 2t-12.5 2v-199h-132zM200 93q11 -4 26 -6.5t33 -2.5q31 0 59 9t50 30t35 55.5 t13 85.5q0 40 -10.5 69.5t-27 49t-38.5 29.5t-44 10q-29 0 -54 -11t-42 -24v-294z"/>
            <glyph glyph-name="q" unicode="q" horiz-adv-x="595" d="M395 -205v250q-30 -23 -66.5 -40t-81.5 -17q-43 0 -80.5 18t-65 51t-43.5 79.5t-16 104.5q0 68 22.5 120.5t63.5 88t98 54t127 18.5q22 0 46.5 -1.5t48 -4.5t44 -6.5t35.5 -7.5v-707h-132zM395 414q-14 5 -32 8.5t-38 3.5q-31 0 -58 -11.5t-46.5 -34t-31 -55.5t-11.5 -76 q0 -42 10.5 -72t28 -50t40 -29.5t47.5 -9.5q30 0 54.5 11t36.5 19v296z"/>
            <glyph glyph-name="r" unicode="r" horiz-adv-x="366" d="M68 0v510h126v-93q25 44 69.5 74.5t95.5 30.5v-126q-6 1 -16 1h-17q-35 0 -68.5 -15.5t-57.5 -39.5v-342h-132z"/>
            <glyph glyph-name="s" unicode="s" horiz-adv-x="455" d="M72 122q26 -15 60.5 -26.5t72.5 -11.5t62 13t24 39q0 23 -18.5 36.5t-46.5 25t-60 23t-60 29.5t-46.5 45.5t-18.5 70.5q0 39 15.5 68t42.5 48.5t63.5 29.5t78.5 10q51 0 94 -12.5t74 -27.5l-39 -89q-23 11 -56 21.5t-66 10.5q-35 0 -55.5 -13.5t-20.5 -35.5 q0 -21 18.5 -33.5t46 -22.5t59.5 -21t59.5 -29t46 -45.5t18.5 -71.5q0 -41 -16.5 -71.5t-45 -51.5t-66.5 -31.5t-81 -10.5q-48 0 -96.5 12.5t-86.5 32.5z"/>
            <glyph glyph-name="t" unicode="t" horiz-adv-x="362" d="M259 0q-8 0 -23.5 -0.5t-33.5 2t-36.5 9.5t-33.5 22.5t-24.5 41t-9.5 64.5v280h-84v91h84v100l131 55v-155h112v-91h-112v-256q0 -38 13 -55.5t47 -17.5h51v-90h-81z"/>
            <glyph glyph-name="u" unicode="u" horiz-adv-x="589" d="M391 0v62q-14 -11 -31 -24t-38 -24t-46 -18.5t-54 -7.5q-26 0 -53 7t-49.5 26t-37 51t-14.5 82v356h132v-353q0 -32 17.5 -50t49.5 -18t65.5 15.5t56.5 35.5v370h131v-510h-129z"/>
            <glyph glyph-name="v" unicode="v" horiz-adv-x="532" d="M200 0l-186 510h133l122 -378l123 378h126l-186 -510h-132z"/>
            <glyph glyph-name="w" unicode="w" horiz-adv-x="813" d="M517 0q-29 93 -56.5 184.5t-55.5 184.5l-108 -369h-128l-153 510h129q23 -92 46.5 -183.5t47.5 -183.5l104 367h132q26 -93 51.5 -184t51.5 -184l100 368h120l-153 -510h-128z"/>
            <glyph glyph-name="x" unicode="x" horiz-adv-x="538" d="M381 0l-114 178l-113 -178h-143l184 265l-166 245h148l98 -162l99 162h137l-164 -245l180 -265h-146z"/>
            <glyph glyph-name="y" unicode="y" horiz-adv-x="536" d="M143 -215q20 54 41 107.5t42 107.5h-42q-42 128 -84 255t-85 255h135l115 -403l126 403h133q-65 -183 -128 -363t-128 -362h-125z"/>
            <glyph glyph-name="z" unicode="z" horiz-adv-x="473" d="M29 0v88l261 330h-247v92h395v-88l-259 -331h269v-91h-419z"/>
            <glyph glyph-name="braceleft" unicode="{" horiz-adv-x="337" d="M321 -140q-46 4 -82.5 15.5t-61.5 34t-38.5 57t-13.5 85.5v63q0 67 -21.5 98.5t-69.5 46.5v94q48 15 69.5 47t21.5 99v62q0 51 13.5 85.5t38.5 57t61.5 34t82.5 15.5v-82q-46 -8 -63 -33.5t-17 -81.5v-61q0 -44 -7.5 -75t-21.5 -52.5t-34 -35.5t-46 -26q26 -12 46 -26 t34 -35.5t21.5 -52.5t7.5 -75v-61q0 -56 17 -81.5t63 -33.5v-82z"/>
            <glyph glyph-name="bar" unicode="|" horiz-adv-x="190" d="M76 -185v939h38v-939h-38z"/>
            <glyph glyph-name="braceright" unicode="}" horiz-adv-x="337" d="M15 -58q46 8 63 33.5t17 81.5v61q0 44 7.5 75t21.5 52.5t34 35.5t46 26q-26 12 -46 26t-34 35.5t-21.5 52.5t-7.5 75v61q0 56 -17 81.5t-63 33.5v82q46 -4 82.5 -15.5t62 -34t38.5 -57t13 -85.5v-62q0 -67 21.5 -99t69.5 -47v-94q-48 -15 -69.5 -46.5t-21.5 -98.5v-63 q0 -51 -13 -85.5t-38.5 -57t-62 -34t-82.5 -15.5v82z"/>
            <glyph glyph-name="asciitilde" unicode="~" horiz-adv-x="556" d="M499 310q-8 -14 -19.5 -29t-27.5 -28t-36 -21t-44 -8t-49.5 8.5t-51 19t-50 19.5t-46.5 9q-12 0 -22.5 -5.5t-19.5 -13.5t-15.5 -17t-10.5 -17l-48 45q8 14 19.5 29t27.5 28t36 21t44 8q26 0 53.5 -9t53 -19.5t49 -19t41.5 -8.5q22 0 41 18t27 35z"/>
            <glyph glyph-name="exclamdown" unicode="¡" horiz-adv-x="256" d="M90 300.013q-11 -120.992 -22 -239.485q-11 -118.492 -18 -240.485h155q-7 120.993 -18 239.985q-11 118.993 -21 239.985h-76zM62 510v-124.992h132v124.992h-132z"/>
            <glyph glyph-name="cent" unicode="¢" d="M301 0v84q-48 9 -90 30.5t-73 54.5t-49 76.5t-18 94.5t18 95t49 78.5t73 58t90 33.5v85h88v-79q35 -2 67 -10t53 -18l-39 -88q-15 6 -38 11t-43 7v-337q23 0 49.5 5.5t41.5 11.5l36 -85q-21 -11 -55 -19.5t-72 -10.5v-78h-88zM301 494q-39 -21 -66.5 -59.5t-27.5 -90.5 q0 -51 26.5 -89t67.5 -59v298z"/>
            <glyph glyph-name="sterling" unicode="£" horiz-adv-x="560" d="M60 0v99q50 22 76 70t26 109v34h-107v94h107v75q0 48 15 88.5t43 70t68.5 46t92.5 16.5q37 0 76 -10t62 -24l-39 -83q-16 8 -37 13.5t-46 5.5q-52 0 -78.5 -31t-26.5 -85v-82h177v-94h-177v-35q0 -64 -21.5 -110t-60.5 -68h330l-28 -99h-452z"/>
            <glyph glyph-name="currency" unicode="¤" d="M445 154q-29 -26 -68.5 -39t-82.5 -13q-42 0 -81.5 13t-68.5 39l-56 -57l-47 48l56 57q-26 30 -38.5 68t-12.5 80q0 40 12 80t39 69l-56 55l48 49l55 -56q29 24 69.5 37.5t80.5 13.5q42 0 81.5 -13.5t70.5 -37.5l54 55q1 -1 8 -8.5t15 -15.5t15 -15.5t9 -8.5l-55 -55 q25 -28 37.5 -67.5t12.5 -81.5q0 -41 -12.5 -80t-37.5 -68l55 -58l-47 -47zM294 174q36 0 67 14.5t53.5 38.5t35.5 56t13 67t-13 66.5t-35.5 55.5t-53.5 38.5t-67 14.5q-35 0 -66 -14t-54 -37.5t-36.5 -55.5t-13.5 -68q0 -37 13.5 -69t36.5 -56t54 -37.5t66 -13.5z"/>
            <glyph glyph-name="yen" unicode="¥" d="M360 141v-141h-135v141h-161v80h161v46l-13 33h-148v80h113l-145 310h137l127 -301l129 301h129l-146 -310h114v-80h-149l-13 -33v-46h162v-80h-162z"/>
            <glyph glyph-name="brokenbar" unicode="¦" horiz-adv-x="190" d="M76 373v381h38v-381h-38zM76 -200v381h38v-381h-38z"/>
            <glyph glyph-name="section" unicode="§" d="M118 50q13 -7 32 -16t41 -16.5t46.5 -12.5t48.5 -5q32 0 57.5 11.5t25.5 37.5q0 24 -20.5 39.5t-42.5 26.5q-39 20 -83 40t-80.5 44t-61 54t-24.5 69q0 45 30 74.5t75 45.5q-32 20 -51 48t-19 67q0 36 16.5 63t44.5 45t65 27.5t79 9.5q51 0 102.5 -13.5t93.5 -38.5 l-45 -80q-15 7 -34.5 14.5t-40.5 13.5t-42 10t-40 4q-38 0 -56.5 -14.5t-18.5 -33.5q0 -22 24 -40t59.5 -34.5t77 -34t77 -40t59.5 -51.5t24 -68q0 -24 -9.5 -44t-24.5 -35t-34 -26t-39 -18q30 -21 50 -46t20 -64t-20 -67t-51.5 -47t-70.5 -28t-78 -9q-56 0 -112 15.5 t-95 34.5zM249 392q-29 -5 -49 -21.5t-20 -37.5q0 -18 15.5 -33t39 -28.5t51 -25t51.5 -23.5q29 4 51.5 19.5t22.5 39.5q0 19 -14 33.5t-37 27t-52 24.5t-59 25z"/>
            <glyph glyph-name="dieresis" unicode="¨" horiz-adv-x="336" d="M11 570v120h119v-120h-119zM207 570v120h119v-120h-119z"/>
            <glyph glyph-name="copyright" unicode="©" horiz-adv-x="785" d="M542 188q-22 -21 -59.5 -39.5t-85.5 -18.5q-41 0 -77 15t-62.5 43.5t-42 69t-15.5 91.5q0 49 16 88.5t43 67t63.5 42t77.5 14.5q26 0 49 -6.5t42 -16.5t32.5 -22t20.5 -22l-64 -64q-9 13 -28.5 25.5t-49.5 12.5q-46 0 -68 -35.5t-22 -86.5q0 -56 27.5 -89t65.5 -33 q26 0 46.5 11t30.5 22zM392 -12q-74 0 -138 28t-111.5 76.5t-74.5 113.5t-27 138t27 138t74.5 114t111.5 77t138 28t138 -28t111.5 -77t75 -114t27.5 -138t-27.5 -138t-75 -113.5t-111.5 -76.5t-138 -28zM392 53q58 0 108 23.5t86 63t56.5 92.5t20.5 112t-20.5 112 t-56.5 92.5t-86 63t-108 23.5t-107.5 -23.5t-86 -63t-57 -92.5t-20.5 -112t20.5 -112t57 -92.5t86 -63t107.5 -23.5z"/>
            <glyph glyph-name="ordfeminine" unicode="ª" horiz-adv-x="344" d="M211 344l-4 31q-17 -14 -37 -24t-48 -10q-51 0 -78 28.5t-27 69.5q0 24 6.5 44t23.5 34.5t46 22t73 7.5h16.5t18.5 -1v41q0 20 -16.5 27t-34.5 7q-22 0 -47.5 -8t-41.5 -18l-29 58q23 15 58 26t83 11q57 0 92 -25t35 -80v-241h-89zM201 487q-5 0 -8.5 0.5t-8.5 0.5 q-38 0 -53.5 -9.5t-15.5 -35.5q0 -17 10.5 -27t30.5 -10q25 0 45 14v67zM22 224v73h294v-73h-294z"/>
            <glyph glyph-name="guillemotleft" unicode="«" horiz-adv-x="509" d="M154 78l-120 185l120 186h117l-118 -186l118 -185h-117zM354 78l-120 185l120 186h117l-118 -186l118 -185h-117z"/>
            <glyph glyph-name="logicalnot" unicode="¬" d="M424 78v175h-349v88h438v-263h-89z"/>
            <glyph glyph-name="uni00AD" unicode="­" horiz-adv-x="0"/>
            <glyph glyph-name="registered" unicode="®" horiz-adv-x="785" d="M392 -12q-74 0 -138 28t-111.5 76.5t-74.5 113.5t-27 138t27 138t74.5 114t111.5 77t138 28t138 -28t111.5 -77t75 -114t27.5 -138t-27.5 -138t-75 -113.5t-111.5 -76.5t-138 -28zM392 53q58 0 108 23.5t86 63t56.5 92.5t20.5 112t-20.5 112t-56.5 92.5t-86 63t-108 23.5 t-107.5 -23.5t-86 -63t-57 -92.5t-20.5 -112t20.5 -112t57 -92.5t86 -63t107.5 -23.5zM461 142l-76 149h-35v-149h-91v412h143q70 0 111 -35t41 -95q0 -26 -6.5 -45.5t-18 -33t-26.5 -22t-31 -14.5l86 -167h-97zM383 359q15 0 29.5 2.5t26.5 9t19 18t7 30.5q0 26 -15.5 40 t-43.5 16h-56v-116h33z"/>
            <glyph glyph-name="macron" unicode="¯" horiz-adv-x="300" d="M20 599v83h260v-83h-260z"/>
            <glyph glyph-name="degree" unicode="°" horiz-adv-x="422" d="M211 351q-36 0 -68 13.5t-56 37.5t-37.5 56t-13.5 68t13.5 68t37.5 56t56 37.5t68 13.5t68 -13.5t56 -37.5t37.5 -56t13.5 -68t-13.5 -68t-37.5 -56t-56 -37.5t-68 -13.5zM210 435q18 0 34 7.5t27.5 19.5t18.5 28.5t7 34.5t-7 34.5t-18.5 28.5t-27 19.5t-33.5 7.5 t-34 -7.5t-28 -19.5t-18.5 -28t-6.5 -34t6.5 -34.5t18.5 -29t27.5 -20t33.5 -7.5z"/>
            <glyph glyph-name="plusminus" unicode="±" d="M337 283v-175h-88v175h-174v88h174v175h88v-175h176v-88h-176zM75 1v88h438v-88h-438z"/>
            <glyph glyph-name="twosuperior" unicode="²" horiz-adv-x="380" d="M43 273v67l137 146q26 28 38.5 48.5t12.5 42.5q0 21 -13.5 33.5t-34.5 12.5q-22 0 -41.5 -15t-31.5 -38l-78 30q22 43 62 70t102 27q31 0 56.5 -9.5t42.5 -25.5t26.5 -37t9.5 -43q0 -30 -18 -62.5t-53 -70.5l-90 -98h165v-78h-292z"/>
            <glyph glyph-name="threesuperior" unicode="³" horiz-adv-x="380" d="M63 370q25 -14 49.5 -23t47.5 -9q37 0 63 18.5t26 55.5q0 16 -7.5 27.5t-19.5 19t-26 11t-27 3.5q-14 0 -28 -2.5t-21 -5.5l-29 43l117 109h-165v73h277v-64l-102 -91q28 0 52 -8t42 -22.5t28.5 -36t10.5 -49.5q0 -38 -16 -67t-42 -48t-59.5 -28.5t-67.5 -9.5 q-37 0 -75 10t-70 33z"/>
            <glyph glyph-name="acute" unicode="´" horiz-adv-x="242" d="M35 568l50 122h128l-76 -122h-102z"/>
            <glyph glyph-name="mu" unicode="µ" horiz-adv-x="590" d="M398 0v61q-15 -11 -36 -22.5t-45.5 -21t-50.5 -16t-51 -6.5h-9t-9 1v-201h-131v715h131v-358q0 -31 15.5 -48t49.5 -17q14 0 32.5 5.5t37.5 13t35 16.5t26 15v373h131v-510h-126z"/>
            <glyph glyph-name="paragraph" unicode="¶" horiz-adv-x="529" d="M372 -210v857h-150v-857h-53v603q-42 0 -72 12.5t-49.5 33t-28.5 47.5t-9 56q0 28 8.5 55t26.5 47.5t46 33t66 12.5h312v-16l-23 -17q-10 -8 -15.5 -16.5t-5.5 -20.5v-830h-53z"/>
            <glyph glyph-name="periodcentered" unicode="·" horiz-adv-x="233" d="M195 358q0 -33 -23 -56t-56 -23q-32 0 -55 23t-23 56q0 32 23 55.5t55 23.5q33 0 56 -23.5t23 -55.5z"/>
            <glyph glyph-name="cedilla" unicode="¸" horiz-adv-x="251" d="M44 -152q11 -7 28 -12.5t34 -5.5q20 0 33.5 8.5t13.5 27.5q0 20 -21 29t-54 9h-40q1 3 11 17t21 30.5t20.5 31t11.5 17.5h70l-36 -50q17 -1 34.5 -5.5t31.5 -13.5t22.5 -24t8.5 -36q0 -25 -11 -42.5t-28.5 -28.5t-39 -16t-41.5 -5q-28 0 -54 7.5t-37 15.5z"/>
            <glyph glyph-name="onesuperior" unicode="¹" horiz-adv-x="380" d="M64 273v77h87v236l-75 -50l-41 56l126 98h90v-340h70v-77h-257z"/>
            <glyph glyph-name="ordmasculine" unicode="º" horiz-adv-x="402" d="M201 411q19 0 32.5 8.5t22.5 23t13.5 33t4.5 39.5q0 43 -19 74t-54 31q-37 0 -56 -31t-19 -74q0 -21 4.5 -39.5t13.5 -33t23 -23t34 -8.5zM379 515q0 -39 -13.5 -71.5t-37.5 -55t-56.5 -35t-70.5 -12.5q-39 0 -71.5 12.5t-56.5 35t-37.5 55t-13.5 71.5q0 40 13.5 72.5 t37.5 55.5t56.5 35t71.5 12q38 0 70.5 -12t56.5 -35t37.5 -55.5t13.5 -72.5zM29 224v73h345v-73h-345z"/>
            <glyph glyph-name="guillemotright" unicode="»" horiz-adv-x="507" d="M37 78l118 185l-118 186h117l120 -186l-120 -185h-117zM237 78l118 185l-118 186h117l120 -186l-120 -185h-117z"/>
            <glyph glyph-name="onequarter" unicode="¼" horiz-adv-x="956" d="M239 0l380 690h99l-381 -690h-98zM64 273v77h87v236l-75 -50l-41 56l126 98h90v-340h70v-77h-257zM772 1v88h-192v87l175 242h119v-256h45v-73h-45v-88h-102zM772 323l-118 -161h118v161z"/>
            <glyph glyph-name="onehalf" unicode="½" horiz-adv-x="956" d="M239 0l380 690h99l-381 -690h-98zM64 273v77h87v236l-75 -50l-41 56l126 98h90v-340h70v-77h-257zM597 1v67l137 146q26 28 38.5 48.5t12.5 42.5q0 21 -13.5 33.5t-34.5 12.5q-22 0 -41.5 -15t-31.5 -38l-78 30q22 43 62 70t102 27q31 0 56.5 -9.5t42.5 -25.5t26.5 -37 t9.5 -43q0 -30 -18 -62.5t-53 -70.5l-90 -98h165v-78h-292z"/>
            <glyph glyph-name="threequarters" unicode="¾" horiz-adv-x="956" d="M239 0l380 690h99l-381 -690h-98zM772 1v88h-192v87l175 242h119v-256h45v-73h-45v-88h-102zM772 323l-118 -161h118v161zM63 370q25 -14 49.5 -23t47.5 -9q37 0 63 18.5t26 55.5q0 16 -7.5 27.5t-19.5 19t-26 11t-27 3.5q-14 0 -28 -2.5t-21 -5.5l-29 43l117 109h-165 v73h277v-64l-102 -91q28 0 52 -8t42 -22.5t28.5 -36t10.5 -49.5q0 -38 -16 -67t-42 -48t-59.5 -28.5t-67.5 -9.5q-37 0 -75 10t-70 33z"/>
            <glyph glyph-name="questiondown" unicode="¿" horiz-adv-x="465" d="M295.01 300.013q0 -53.9971 -20.498 -97.4941q-20.499 -43.4971 -45.4971 -80.9951q-24.999 -37.4971 -45.498 -70.4951q-20.498 -32.998 -20.498 -66.9961q0 -34.998 25.498 -57.4971q25.499 -22.498 72.4961 -22.498q15.999 0 34.4971 5q18.499 4.99902 36.498 13.499 q17.999 8.49902 34.498 17.999q16.499 9.49902 27.498 18.498l50.9971 -70.9951q-13.999 -11.999 -35.498 -25.999q-21.498 -13.999 -49.4971 -25.998q-27.998 -11.999 -60.9961 -19.999q-32.998 -7.99902 -70.9951 -7.99902q-36.998 0 -71.9961 10.999t-61.9961 31.498 t-42.9971 49.9971t-15.999 67.4961q0 49.9971 22.998 88.9941q22.999 38.998 51.4971 75.4961q28.498 36.4971 53.9971 76.4951q25.498 39.9971 30.498 90.9941h100.993zM307.01 510v-124.992h-131.992v124.992h131.992z"/>
            <glyph glyph-name="Agrave" unicode="À" horiz-adv-x="634" d="M484 0l-52 177h-233l-52 -177h-133l216 690h175l216 -690h-137zM316 582l-91 -309h181zM261 748l-76 122h128l50 -122h-102z"/>
            <glyph glyph-name="Aacute" unicode="Á" horiz-adv-x="634" d="M484 0l-52 177h-233l-52 -177h-133l216 690h175l216 -690h-137zM316 582l-91 -309h181zM262 748l50 122h128l-76 -122h-102z"/>
            <glyph glyph-name="Acircumflex" unicode="Â" horiz-adv-x="634" d="M484 0l-52 177h-233l-52 -177h-133l216 690h175l216 -690h-137zM316 582l-91 -309h181zM378 748l-61 66l-62 -66h-79l75 122h129l77 -122h-79z"/>
            <glyph glyph-name="Atilde" unicode="Ã" horiz-adv-x="634" d="M484 0l-52 177h-233l-52 -177h-133l216 690h175l216 -690h-137zM316 582l-91 -309h181zM461 848q-2 -7 -8.5 -20.5t-18 -27t-27.5 -24t-37 -10.5q-17 0 -33.5 5t-31.5 11.5t-28 11.5t-23 5q-15 0 -25.5 -9t-16.5 -24l-40 24q2 7 8.5 20t18 26t27.5 23t37 10 q16 0 31.5 -4.5t30 -10.5t28 -10.5t26.5 -4.5q14 0 24.5 9t16.5 24z"/>
            <glyph glyph-name="Adieresis" unicode="Ä" horiz-adv-x="634" d="M484 0l-52 177h-233l-52 -177h-133l216 690h175l216 -690h-137zM316 582l-91 -309h181zM160 750v120h119v-120h-119zM356 750v120h119v-120h-119z"/>
            <glyph glyph-name="Aring" unicode="Å" horiz-adv-x="630" d="M481 0l-52 177h-231l-52 -177h-134l196 620q-30 35 -30 82q0 27 11 51t29.5 43t43 30t52.5 11t52.5 -10.5t43 -29t29 -43t10.5 -52.5q0 -23 -7.5 -42.5t-20.5 -35.5l198 -624h-138zM368 702q0 23 -16 39t-39 16t-38.5 -16t-15.5 -39t15.5 -39t38.5 -16t39 16t16 39z M317 566h-7l-86 -293h179z"/>
            <glyph glyph-name="AE" unicode="Æ" horiz-adv-x="876" d="M420 0v183h-198l-68 -183h-144l278 690h545v-98h-277v-188h244v-95h-244v-211h305v-98h-441zM420 592h-49l-120 -319h169v319z"/>
            <glyph glyph-name="Ccedilla" unicode="Ç" horiz-adv-x="579" d="M275 -152q11 -7 28 -12.5t34 -5.5q20 0 33.5 8.5t13.5 27.5q0 20 -21 29t-54 9h-40q1 3 8.5 14t17.5 25.5t19.5 28.5t14.5 22q-65 10 -118.5 39.5t-92 75.5t-59.5 106t-21 132q0 84 29.5 149.5t79.5 111.5t116.5 70t141.5 24q48 0 89 -7.5t73 -20.5l-36 -94 q-28 11 -61 17t-68 6q-54 0 -96 -20t-71.5 -54.5t-45 -82t-15.5 -102.5q0 -59 18 -106.5t49.5 -81t74.5 -51.5t93 -18q33 0 62.5 5t55.5 14l40 -90q-35 -13 -79.5 -20.5t-93.5 -7.5l-27 -38q17 -1 34.5 -5.5t31.5 -13.5t22.5 -24t8.5 -36q0 -25 -11 -42.5t-28.5 -28.5 t-39 -16t-41.5 -5q-28 0 -54 7.5t-37 15.5z"/>
            <glyph glyph-name="Egrave" unicode="È" horiz-adv-x="532" d="M75 0v690h413l-5 -99h-273v-189h245v-96h-245v-207h306v-99h-441zM253 748l-76 122h128l50 -122h-102z"/>
            <glyph glyph-name="Eacute" unicode="É" horiz-adv-x="532" d="M75 0v690h413l-5 -99h-273v-189h245v-96h-245v-207h306v-99h-441zM220 748l50 122h128l-76 -122h-102z"/>
            <glyph glyph-name="Ecircumflex" unicode="Ê" horiz-adv-x="532" d="M75 0v690h413l-5 -99h-273v-189h245v-96h-245v-207h306v-99h-441zM340 748l-61 66l-62 -66h-79l75 122h129l77 -122h-79z"/>
            <glyph glyph-name="Edieresis" unicode="Ë" horiz-adv-x="532" d="M75 0v690h413l-5 -99h-273v-189h245v-96h-245v-207h306v-99h-441zM121 750v120h119v-120h-119zM317 750v120h119v-120h-119z"/>
            <glyph glyph-name="Igrave" unicode="Ì" horiz-adv-x="292" d="M78 0v690h136v-690h-136zM94 748l-76 122h128l50 -122h-102z"/>
            <glyph glyph-name="Iacute" unicode="Í" horiz-adv-x="292" d="M78 0v690h136v-690h-136zM96 748l50 122h128l-76 -122h-102z"/>
            <glyph glyph-name="Icircumflex" unicode="Î" horiz-adv-x="292" d="M78 0v690h136v-690h-136zM209 748l-61 66l-62 -66h-79l75 122h129l77 -122h-79z"/>
            <glyph glyph-name="Idieresis" unicode="Ï" horiz-adv-x="287" d="M77 0v690h136v-690h-136zM-12 750v120h119v-120h-119zM184 750v120h119v-120h-119z"/>
            <glyph glyph-name="Eth" unicode="Ð" horiz-adv-x="722" d="M75 0v311h-52v91h52v288h233q90 0 160 -23t118 -66.5t73 -106t25 -142.5q0 -170 -100 -261t-291 -91h-218zM297 99q121 0 185.5 63.5t64.5 191.5q0 58 -18.5 102t-51 74t-76 45.5t-94.5 15.5h-97v-189h107v-91h-107v-212h87z"/>
            <glyph glyph-name="Ntilde" unicode="Ñ" horiz-adv-x="738" d="M502 0l-310 543v-543h-117v690h167l303 -534h1v534h117v-690h-161zM513 848q-2 -7 -8.5 -20.5t-18 -27t-27.5 -24t-37 -10.5q-17 0 -33.5 5t-31.5 11.5t-28 11.5t-23 5q-15 0 -25.5 -9t-16.5 -24l-40 24q2 7 8.5 20t18 26t27.5 23t37 10q16 0 31.5 -4.5t30 -10.5 t28 -10.5t26.5 -4.5q14 0 24.5 9t16.5 24z"/>
            <glyph glyph-name="Ograve" unicode="Ò" horiz-adv-x="785" d="M392 -12q-72 0 -136.5 25t-112.5 71t-76.5 112t-28.5 149q0 82 28.5 148t76.5 112.5t112.5 71.5t136.5 25t136.5 -25t112.5 -71.5t76.5 -112.5t28.5 -148q0 -83 -28.5 -149t-76.5 -112t-112.5 -71t-136.5 -25zM392 87q48 0 87.5 19.5t68.5 54t45 81.5t16 103t-16 103 t-45 81.5t-68.5 54t-87.5 19.5t-87.5 -19.5t-68.5 -54t-45 -81.5t-16 -103t16 -103t45 -81.5t68.5 -54t87.5 -19.5zM335 748l-76 122h128l50 -122h-102z"/>
            <glyph glyph-name="Oacute" unicode="Ó" horiz-adv-x="785" d="M392 -12q-72 0 -136.5 25t-112.5 71t-76.5 112t-28.5 149q0 82 28.5 148t76.5 112.5t112.5 71.5t136.5 25t136.5 -25t112.5 -71.5t76.5 -112.5t28.5 -148q0 -83 -28.5 -149t-76.5 -112t-112.5 -71t-136.5 -25zM392 87q48 0 87.5 19.5t68.5 54t45 81.5t16 103t-16 103 t-45 81.5t-68.5 54t-87.5 19.5t-87.5 -19.5t-68.5 -54t-45 -81.5t-16 -103t16 -103t45 -81.5t68.5 -54t87.5 -19.5zM327 748l50 122h128l-76 -122h-102z"/>
            <glyph glyph-name="Ocircumflex" unicode="Ô" horiz-adv-x="785" d="M392 -12q-72 0 -136.5 25t-112.5 71t-76.5 112t-28.5 149q0 82 28.5 148t76.5 112.5t112.5 71.5t136.5 25t136.5 -25t112.5 -71.5t76.5 -112.5t28.5 -148q0 -83 -28.5 -149t-76.5 -112t-112.5 -71t-136.5 -25zM392 87q48 0 87.5 19.5t68.5 54t45 81.5t16 103t-16 103 t-45 81.5t-68.5 54t-87.5 19.5t-87.5 -19.5t-68.5 -54t-45 -81.5t-16 -103t16 -103t45 -81.5t68.5 -54t87.5 -19.5zM454 748l-61 66l-62 -66h-79l75 122h129l77 -122h-79z"/>
            <glyph glyph-name="Otilde" unicode="Õ" horiz-adv-x="785" d="M392 -12q-72 0 -136.5 25t-112.5 71t-76.5 112t-28.5 149q0 82 28.5 148t76.5 112.5t112.5 71.5t136.5 25t136.5 -25t112.5 -71.5t76.5 -112.5t28.5 -148q0 -83 -28.5 -149t-76.5 -112t-112.5 -71t-136.5 -25zM392 87q48 0 87.5 19.5t68.5 54t45 81.5t16 103t-16 103 t-45 81.5t-68.5 54t-87.5 19.5t-87.5 -19.5t-68.5 -54t-45 -81.5t-16 -103t16 -103t45 -81.5t68.5 -54t87.5 -19.5zM536 848q-2 -7 -8.5 -20.5t-18 -27t-27.5 -24t-37 -10.5q-17 0 -33.5 5t-31.5 11.5t-28 11.5t-23 5q-15 0 -25.5 -9t-16.5 -24l-40 24q2 7 8.5 20t18 26 t27.5 23t37 10q16 0 31.5 -4.5t30 -10.5t28 -10.5t26.5 -4.5q14 0 24.5 9t16.5 24z"/>
            <glyph glyph-name="Odieresis" unicode="Ö" horiz-adv-x="785" d="M392 -12q-72 0 -136.5 25t-112.5 71t-76.5 112t-28.5 149q0 82 28.5 148t76.5 112.5t112.5 71.5t136.5 25t136.5 -25t112.5 -71.5t76.5 -112.5t28.5 -148q0 -83 -28.5 -149t-76.5 -112t-112.5 -71t-136.5 -25zM392 87q48 0 87.5 19.5t68.5 54t45 81.5t16 103t-16 103 t-45 81.5t-68.5 54t-87.5 19.5t-87.5 -19.5t-68.5 -54t-45 -81.5t-16 -103t16 -103t45 -81.5t68.5 -54t87.5 -19.5zM235 750v120h119v-120h-119zM431 750v120h119v-120h-119z"/>
            <glyph glyph-name="multiply" unicode="×" d="M293 234l-123 -123l-63 62l123 124l-123 123l63 62l123 -123l124 124l62 -62l-124 -124l124 -124l-62 -63z"/>
            <glyph glyph-name="Oslash" unicode="Ø" horiz-adv-x="785" d="M392 -11q-72 0 -136.5 24.5t-112.5 71t-76.5 112t-28.5 148.5q0 82 28.5 148t76.5 112t112.5 71t136.5 25t136.5 -25t112.5 -71t76.5 -112t28.5 -148q0 -83 -28.5 -148.5t-76.5 -112t-112.5 -71t-136.5 -24.5zM273 126q50 -38 119 -38q48 0 87.5 19t68.5 53.5t45 81.5 t16 103q0 47 -12 88t-34 74zM511 563q-25 18 -55 28.5t-64 10.5q-48 0 -87.5 -19t-68.5 -53.5t-45 -81.5t-16 -103q0 -96 46 -163z"/>
            <glyph glyph-name="Ugrave" unicode="Ù" horiz-adv-x="691" d="M482 690h136v-489q0 -54 -21.5 -94t-59 -66.5t-87 -39.5t-105.5 -13t-105 13t-86.5 39t-59 66.5t-21.5 94.5v489h136v-497q0 -27 11 -47t29.5 -33t43.5 -19.5t52 -6.5q28 0 52.5 6.5t43.5 19.5t30 33t11 47v497zM332 748l-76 122h128l50 -122h-102z"/>
            <glyph glyph-name="Uacute" unicode="Ú" horiz-adv-x="691" d="M482 690h136v-489q0 -54 -21.5 -94t-59 -66.5t-87 -39.5t-105.5 -13t-105 13t-86.5 39t-59 66.5t-21.5 94.5v489h136v-497q0 -27 11 -47t29.5 -33t43.5 -19.5t52 -6.5q28 0 52.5 6.5t43.5 19.5t30 33t11 47v497zM256 748l50 122h128l-76 -122h-102z"/>
            <glyph glyph-name="Ucircumflex" unicode="Û" horiz-adv-x="691" d="M482 690h136v-489q0 -54 -21.5 -94t-59 -66.5t-87 -39.5t-105.5 -13t-105 13t-86.5 39t-59 66.5t-21.5 94.5v489h136v-497q0 -27 11 -47t29.5 -33t43.5 -19.5t52 -6.5q28 0 52.5 6.5t43.5 19.5t30 33t11 47v497zM407 748l-61 66l-62 -66h-79l75 122h129l77 -122h-79z"/>
            <glyph glyph-name="Udieresis" unicode="Ü" horiz-adv-x="691" d="M482 690h136v-489q0 -54 -21.5 -94t-59 -66.5t-87 -39.5t-105.5 -13t-105 13t-86.5 39t-59 66.5t-21.5 94.5v489h136v-497q0 -27 11 -47t29.5 -33t43.5 -19.5t52 -6.5q28 0 52.5 6.5t43.5 19.5t30 33t11 47v497zM188 750v120h119v-120h-119zM384 750v120h119v-120h-119z "/>
            <glyph glyph-name="Yacute" unicode="Ý" horiz-adv-x="600" d="M232 0v275l-221 415h142l150 -296l152 296h133l-221 -415v-275h-135zM211 748l50 122h128l-76 -122h-102z"/>
            <glyph glyph-name="Thorn" unicode="Þ" horiz-adv-x="583" d="M75 0v690h135v-115h113q56 0 98.5 -15t70.5 -42.5t42 -66.5t14 -86q0 -50 -17 -90t-47.5 -67.5t-72 -42t-89.5 -14.5h-112v-151h-135zM311 250q45 0 74.5 29t29.5 86q0 48 -26 79.5t-77 31.5h-102v-226h101z"/>
            <glyph glyph-name="germandbls" unicode="ß" horiz-adv-x="575" d="M258 84h26q61 0 93.5 29.5t32.5 86.5q0 59 -36.5 86.5t-95.5 27.5h-21v87h17q57 0 89.5 26t32.5 76q0 48 -26 77.5t-71 29.5q-29 0 -47 -9t-29 -24.5t-15 -37t-4 -45.5v-494h-133v499q0 51 18.5 89t50.5 63t74 37.5t89 12.5q46 0 86 -11t68.5 -33.5t45 -56t16.5 -78.5 q0 -34 -11 -60.5t-30 -46t-45 -32t-55 -19.5v-2q35 -3 65 -16.5t52 -35.5t34.5 -52t12.5 -67q0 -61 -24.5 -98.5t-64.5 -58t-91 -27.5t-104 -7v84z"/>
            <glyph glyph-name="agrave" unicode="à" horiz-adv-x="521" d="M331 0l-7 46q-23 -22 -56.5 -40t-81.5 -18q-29 0 -57.5 9t-51 27.5t-36 46t-13.5 64.5q0 40 12 73t39.5 56.5t72 36.5t109.5 13q14 0 32 -1t27 -2v51q0 18 -7 30t-18 19.5t-25 10.5t-29 3q-20 0 -41.5 -4.5t-41.5 -11t-37.5 -13.5t-29.5 -13l-38 84q35 21 89.5 38 t126.5 17q40 0 74 -9t58 -28.5t37.5 -49t13.5 -70.5v-365h-121zM320 226q-14 2 -27 3.5t-26 1.5q-54 0 -82.5 -22.5t-28.5 -58.5q0 -29 21 -48.5t56 -19.5q26 0 49 8.5t38 20.5v115zM220 568l-76 122h128l50 -122h-102z"/>
            <glyph glyph-name="aacute" unicode="á" horiz-adv-x="521" d="M331 0l-7 46q-23 -22 -56.5 -40t-81.5 -18q-29 0 -57.5 9t-51 27.5t-36 46t-13.5 64.5q0 40 12 73t39.5 56.5t72 36.5t109.5 13q14 0 32 -1t27 -2v51q0 18 -7 30t-18 19.5t-25 10.5t-29 3q-20 0 -41.5 -4.5t-41.5 -11t-37.5 -13.5t-29.5 -13l-38 84q35 21 89.5 38 t126.5 17q40 0 74 -9t58 -28.5t37.5 -49t13.5 -70.5v-365h-121zM320 226q-14 2 -27 3.5t-26 1.5q-54 0 -82.5 -22.5t-28.5 -58.5q0 -29 21 -48.5t56 -19.5q26 0 49 8.5t38 20.5v115zM190 568l50 122h128l-76 -122h-102z"/>
            <glyph glyph-name="acircumflex" unicode="â" horiz-adv-x="521" d="M331 0l-7 46q-23 -22 -56.5 -40t-81.5 -18q-29 0 -57.5 9t-51 27.5t-36 46t-13.5 64.5q0 40 12 73t39.5 56.5t72 36.5t109.5 13q14 0 32 -1t27 -2v51q0 18 -7 30t-18 19.5t-25 10.5t-29 3q-20 0 -41.5 -4.5t-41.5 -11t-37.5 -13.5t-29.5 -13l-38 84q35 21 89.5 38 t126.5 17q40 0 74 -9t58 -28.5t37.5 -49t13.5 -70.5v-365h-121zM320 226q-14 2 -27 3.5t-26 1.5q-54 0 -82.5 -22.5t-28.5 -58.5q0 -29 21 -48.5t56 -19.5q26 0 49 8.5t38 20.5v115zM320 568l-61 66l-62 -66h-79l75 122h129l77 -122h-79z"/>
            <glyph glyph-name="atilde" unicode="ã" horiz-adv-x="521" d="M331 0l-7 46q-23 -22 -56.5 -40t-81.5 -18q-29 0 -57.5 9t-51 27.5t-36 46t-13.5 64.5q0 40 12 73t39.5 56.5t72 36.5t109.5 13q14 0 32 -1t27 -2v51q0 18 -7 30t-18 19.5t-25 10.5t-29 3q-20 0 -41.5 -4.5t-41.5 -11t-37.5 -13.5t-29.5 -13l-38 84q35 21 89.5 38 t126.5 17q40 0 74 -9t58 -28.5t37.5 -49t13.5 -70.5v-365h-121zM320 226q-14 2 -27 3.5t-26 1.5q-54 0 -82.5 -22.5t-28.5 -58.5q0 -29 21 -48.5t56 -19.5q26 0 49 8.5t38 20.5v115zM403 668q-2 -7 -8.5 -20.5t-18 -27t-27.5 -24t-37 -10.5q-17 0 -33.5 5t-31.5 11.5 t-28 11.5t-23 5q-15 0 -25.5 -9t-16.5 -24l-40 24q2 7 8.5 20t18 26t27.5 23t37 10q16 0 31.5 -4.5t30 -10.5t28 -10.5t26.5 -4.5q14 0 24.5 9t16.5 24z"/>
            <glyph glyph-name="adieresis" unicode="ä" horiz-adv-x="521" d="M331 0l-7 46q-23 -22 -56.5 -40t-81.5 -18q-29 0 -57.5 9t-51 27.5t-36 46t-13.5 64.5q0 40 12 73t39.5 56.5t72 36.5t109.5 13q14 0 32 -1t27 -2v51q0 18 -7 30t-18 19.5t-25 10.5t-29 3q-20 0 -41.5 -4.5t-41.5 -11t-37.5 -13.5t-29.5 -13l-38 84q35 21 89.5 38 t126.5 17q40 0 74 -9t58 -28.5t37.5 -49t13.5 -70.5v-365h-121zM320 226q-14 2 -27 3.5t-26 1.5q-54 0 -82.5 -22.5t-28.5 -58.5q0 -29 21 -48.5t56 -19.5q26 0 49 8.5t38 20.5v115zM102 570v120h119v-120h-119zM298 570v120h119v-120h-119z"/>
            <glyph glyph-name="aring" unicode="å" horiz-adv-x="521" d="M331 0l-7 46q-23 -22 -56.5 -40t-81.5 -18q-29 0 -57.5 9t-51 27.5t-36 46t-13.5 64.5q0 40 12 73t39.5 56.5t72 36.5t109.5 13q14 0 32 -1t27 -2v51q0 18 -7 30t-18 19.5t-25 10.5t-29 3q-20 0 -41.5 -4.5t-41.5 -11t-37.5 -13.5t-29.5 -13l-38 84q35 21 89.5 38 t126.5 17q40 0 74 -9t58 -28.5t37.5 -49t13.5 -70.5v-365h-121zM320 226q-14 2 -27 3.5t-26 1.5q-54 0 -82.5 -22.5t-28.5 -58.5q0 -29 21 -48.5t56 -19.5q26 0 49 8.5t38 20.5v115zM259 559q-22 0 -42 8.5t-35 23.5t-23.5 34.5t-8.5 41.5t8.5 41.5t23.5 34t35 23t42 8.5 t41.5 -8.5t34.5 -23t23.5 -34t8.5 -41.5t-8.5 -41.5t-23.5 -34.5t-34.5 -23.5t-41.5 -8.5zM259 610q23 0 39 17t16 40t-16 39.5t-39 16.5t-39.5 -16.5t-16.5 -39.5t16.5 -40t39.5 -17z"/>
            <glyph glyph-name="ae" unicode="æ" horiz-adv-x="802" d="M762 37q-12 -9 -32.5 -18t-46.5 -15.5t-55.5 -11t-59.5 -4.5q-66 0 -114.5 22t-80.5 61q-22 -20 -42.5 -35.5t-42.5 -26t-47 -16t-55 -5.5q-29 0 -57.5 9t-51 27.5t-36 46t-13.5 64.5q0 40 13 73t42 56.5t76.5 36t115.5 12.5h22t23 -1v50q0 18 -7 30t-18 19.5t-25 10.5 t-29 3q-20 0 -41.5 -4t-42 -9.5t-38 -12t-30.5 -11.5l-36 79q35 21 89.5 38t126.5 17q97 0 136 -54q60 54 151 54q40 0 77.5 -12.5t66.5 -40t46.5 -71.5t17.5 -108v-57h-319q5 -71 41 -109t102 -38q20 0 41 3.5t39.5 8.5t32.5 11t22 11zM318 226q-14 2 -26.5 3.5t-24.5 1.5 q-54 0 -82.5 -22.5t-28.5 -58.5q0 -29 21 -48.5t56 -19.5q15 0 30.5 5t29.5 13t25.5 16.5t18.5 16.5q-8 21 -12.5 44t-6.5 49zM640 307q-1 60 -25.5 89.5t-63.5 29.5q-42 0 -70.5 -31.5t-34.5 -87.5h194z"/>
            <glyph glyph-name="ccedilla" unicode="ç" horiz-adv-x="456" d="M287 -49q17 -1 34.5 -5.5t31.5 -14t22.5 -24.5t8.5 -36q0 -25 -11 -42.5t-28.5 -28.5t-39 -16t-41.5 -5q-28 0 -54 8t-37 16q5 11 10.5 23t11.5 23q11 -7 28 -12.5t34 -5.5q20 0 33.5 8.5t13.5 26.5q0 20 -20.5 29.5t-54.5 9.5h-40l59 88q-97 16 -152.5 84t-55.5 177 q0 58 20 107t55.5 85t84.5 56t108 20q38 0 72 -9t58 -20l-39 -88q-17 8 -39 13.5t-44 5.5q-30 0 -55.5 -12t-44 -34.5t-29.5 -54t-11 -69.5q0 -37 10 -68t29.5 -53t47.5 -34.5t63 -12.5q23 0 45 5.5t37 11.5l36 -85q-23 -12 -58.5 -20t-71.5 -10z"/>
            <glyph glyph-name="egrave" unicode="è" horiz-adv-x="531" d="M495 37q-12 -9 -32.5 -18t-46.5 -15.5t-55.5 -11t-59.5 -4.5q-62 0 -110 19t-81.5 53.5t-51 83t-17.5 106.5q0 61 19 111t52 86t78.5 55.5t98.5 19.5q40 0 77.5 -12.5t66.5 -40t46.5 -71.5t17.5 -108v-57h-319q5 -71 41 -109t102 -38q20 0 41 3.5t39.5 8.5t32.5 11t22 11 zM373 307q-1 60 -25.5 89.5t-63.5 29.5q-42 0 -70.5 -31.5t-34.5 -87.5h194zM253 568l-76 122h128l50 -122h-102z"/>
            <glyph glyph-name="eacute" unicode="é" horiz-adv-x="531" d="M495 37q-12 -9 -32.5 -18t-46.5 -15.5t-55.5 -11t-59.5 -4.5q-62 0 -110 19t-81.5 53.5t-51 83t-17.5 106.5q0 61 19 111t52 86t78.5 55.5t98.5 19.5q40 0 77.5 -12.5t66.5 -40t46.5 -71.5t17.5 -108v-57h-319q5 -71 41 -109t102 -38q20 0 41 3.5t39.5 8.5t32.5 11t22 11 zM373 307q-1 60 -25.5 89.5t-63.5 29.5q-42 0 -70.5 -31.5t-34.5 -87.5h194zM236 568l50 122h128l-76 -122h-102z"/>
            <glyph glyph-name="ecircumflex" unicode="ê" horiz-adv-x="531" d="M495 37q-12 -9 -32.5 -18t-46.5 -15.5t-55.5 -11t-59.5 -4.5q-62 0 -110 19t-81.5 53.5t-51 83t-17.5 106.5q0 61 19 111t52 86t78.5 55.5t98.5 19.5q40 0 77.5 -12.5t66.5 -40t46.5 -71.5t17.5 -108v-57h-319q5 -71 41 -109t102 -38q20 0 41 3.5t39.5 8.5t32.5 11t22 11 zM373 307q-1 60 -25.5 89.5t-63.5 29.5q-42 0 -70.5 -31.5t-34.5 -87.5h194zM339 568l-61 66l-62 -66h-79l75 122h129l77 -122h-79z"/>
            <glyph glyph-name="edieresis" unicode="ë" horiz-adv-x="531" d="M495 37q-12 -9 -32.5 -18t-46.5 -15.5t-55.5 -11t-59.5 -4.5q-62 0 -110 19t-81.5 53.5t-51 83t-17.5 106.5q0 61 19 111t52 86t78.5 55.5t98.5 19.5q40 0 77.5 -12.5t66.5 -40t46.5 -71.5t17.5 -108v-57h-319q5 -71 41 -109t102 -38q20 0 41 3.5t39.5 8.5t32.5 11t22 11 zM373 307q-1 60 -25.5 89.5t-63.5 29.5q-42 0 -70.5 -31.5t-34.5 -87.5h194zM120 570v120h119v-120h-119zM316 570v120h119v-120h-119z"/>
            <glyph glyph-name="igrave" unicode="ì" horiz-adv-x="265" d="M93 568l-76 122h128l50 -122h-102zM68 0v510h132v-510h-132z"/>
            <glyph glyph-name="iacute" unicode="í" horiz-adv-x="265" d="M69 568l50 122h128l-76 -122h-102zM68 0v510h132v-510h-132z"/>
            <glyph glyph-name="icircumflex" unicode="î" horiz-adv-x="265" d="M68 0v510h132v-510h-132zM195 568l-61 66l-62 -66h-79l75 122h129l77 -122h-79z"/>
            <glyph glyph-name="idieresis" unicode="ï" horiz-adv-x="265" d="M-23 570v120h119v-120h-119zM173 570v120h119v-120h-119zM68 0v510h132v-510h-132z"/>
            <glyph glyph-name="eth" unicode="ð" horiz-adv-x="618" d="M380 666q91 -79 143.5 -180.5t52.5 -225.5q0 -60 -20 -110t-56 -86t-85 -56t-106 -20q-58 0 -107 19t-84.5 54t-55.5 84.5t-20 109.5q0 61 20 110.5t55 84t83 53.5t104 19q23 0 46 -6.5t37 -14.5q-18 26 -41 52.5t-49 50.5l-64 -47l-42 49l56 41q-18 14 -36.5 26 t-35.5 23l80 58q19 -11 37.5 -22.5t35.5 -24.5l58 43l45 -46zM309 85q33 0 56.5 14t39.5 37.5t23.5 54.5t7.5 64q0 34 -8.5 65t-24.5 54t-39.5 36.5t-54.5 13.5t-54.5 -13.5t-40 -36.5t-25 -54t-8.5 -65q0 -33 7.5 -64t23.5 -54.5t40 -37.5t57 -14z"/>
            <glyph glyph-name="ntilde" unicode="ñ" d="M392 0v344q0 40 -18.5 59.5t-51.5 19.5q-18 0 -36 -5.5t-34 -13.5t-29.5 -17.5t-23.5 -16.5v-370h-132v510h130v-65q13 11 30.5 24.5t40 25t49 19.5t56.5 8q27 0 53.5 -8t48 -27.5t35 -52.5t13.5 -83v-351h-131zM440 668q-2 -7 -8.5 -20.5t-18 -27t-27.5 -24t-37 -10.5 q-17 0 -33.5 5t-31.5 11.5t-28 11.5t-23 5q-15 0 -25.5 -9t-16.5 -24l-40 24q2 7 8.5 20t18 26t27.5 23t37 10q16 0 31.5 -4.5t30 -10.5t28 -10.5t26.5 -4.5q14 0 24.5 9t16.5 24z"/>
            <glyph glyph-name="ograve" unicode="ò" horiz-adv-x="603" d="M303 85q33 0 56 14t37.5 37.5t21.5 54t7 63.5q0 35 -7.5 66t-22.5 54t-38 36.5t-54 13.5t-54 -13.5t-38.5 -36.5t-23 -54t-7.5 -66q0 -33 7 -63.5t21.5 -54t38 -37.5t56.5 -14zM303 -12q-58 0 -106 19t-82.5 54t-54 84.5t-19.5 110.5q0 60 19 109.5t53.5 84t83 53.5 t106.5 19t106 -19t82.5 -53.5t54 -83.5t19.5 -110t-19.5 -110.5t-54 -84.5t-83 -54t-105.5 -19zM250 568l-76 122h128l50 -122h-102z"/>
            <glyph glyph-name="oacute" unicode="ó" horiz-adv-x="603" d="M303 85q33 0 56 14t37.5 37.5t21.5 54t7 63.5q0 35 -7.5 66t-22.5 54t-38 36.5t-54 13.5t-54 -13.5t-38.5 -36.5t-23 -54t-7.5 -66q0 -33 7 -63.5t21.5 -54t38 -37.5t56.5 -14zM303 -12q-58 0 -106 19t-82.5 54t-54 84.5t-19.5 110.5q0 60 19 109.5t53.5 84t83 53.5 t106.5 19t106 -19t82.5 -53.5t54 -83.5t19.5 -110t-19.5 -110.5t-54 -84.5t-83 -54t-105.5 -19zM247 568l50 122h128l-76 -122h-102z"/>
            <glyph glyph-name="ocircumflex" unicode="ô" horiz-adv-x="603" d="M303 85q33 0 56 14t37.5 37.5t21.5 54t7 63.5q0 35 -7.5 66t-22.5 54t-38 36.5t-54 13.5t-54 -13.5t-38.5 -36.5t-23 -54t-7.5 -66q0 -33 7 -63.5t21.5 -54t38 -37.5t56.5 -14zM303 -12q-58 0 -106 19t-82.5 54t-54 84.5t-19.5 110.5q0 60 19 109.5t53.5 84t83 53.5 t106.5 19t106 -19t82.5 -53.5t54 -83.5t19.5 -110t-19.5 -110.5t-54 -84.5t-83 -54t-105.5 -19zM367 568l-61 66l-62 -66h-79l75 122h129l77 -122h-79z"/>
            <glyph glyph-name="otilde" unicode="õ" horiz-adv-x="603" d="M303 85q33 0 56 14t37.5 37.5t21.5 54t7 63.5q0 35 -7.5 66t-22.5 54t-38 36.5t-54 13.5t-54 -13.5t-38.5 -36.5t-23 -54t-7.5 -66q0 -33 7 -63.5t21.5 -54t38 -37.5t56.5 -14zM303 -12q-58 0 -106 19t-82.5 54t-54 84.5t-19.5 110.5q0 60 19 109.5t53.5 84t83 53.5 t106.5 19t106 -19t82.5 -53.5t54 -83.5t19.5 -110t-19.5 -110.5t-54 -84.5t-83 -54t-105.5 -19zM450 668q-2 -7 -8.5 -20.5t-18 -27t-27.5 -24t-37 -10.5q-17 0 -33.5 5t-31.5 11.5t-28 11.5t-23 5q-15 0 -25.5 -9t-16.5 -24l-40 24q2 7 8.5 20t18 26t27.5 23t37 10 q16 0 31.5 -4.5t30 -10.5t28 -10.5t26.5 -4.5q14 0 24.5 9t16.5 24z"/>
            <glyph glyph-name="odieresis" unicode="ö" horiz-adv-x="603" d="M303 85q33 0 56 14t37.5 37.5t21.5 54t7 63.5q0 35 -7.5 66t-22.5 54t-38 36.5t-54 13.5t-54 -13.5t-38.5 -36.5t-23 -54t-7.5 -66q0 -33 7 -63.5t21.5 -54t38 -37.5t56.5 -14zM303 -12q-58 0 -106 19t-82.5 54t-54 84.5t-19.5 110.5q0 60 19 109.5t53.5 84t83 53.5 t106.5 19t106 -19t82.5 -53.5t54 -83.5t19.5 -110t-19.5 -110.5t-54 -84.5t-83 -54t-105.5 -19zM149 570v120h119v-120h-119zM345 570v120h119v-120h-119z"/>
            <glyph glyph-name="divide" unicode="÷" d="M75 253v88h438v-88h-438zM228 40v125h132v-125h-132zM228 424v126h132v-126h-132z"/>
            <glyph glyph-name="oslash" unicode="ø" horiz-adv-x="608" d="M304 -12q-58 0 -106 19t-82.5 54t-54 84.5t-19.5 110.5q0 60 19 109.5t53.5 84t83 53.5t106.5 19t106 -19t82.5 -53.5t54 -83.5t19.5 -110t-19.5 -110.5t-54 -84.5t-83 -54t-105.5 -19zM234 109q29 -24 70 -24q33 0 56 14t37.5 37.5t21.5 54t7 63.5q0 44 -12 82zM373 399 q-28 25 -69 25q-31 0 -54 -13.5t-38.5 -36.5t-23 -54t-7.5 -66q0 -22 2.5 -42t8.5 -39z"/>
            <glyph glyph-name="ugrave" unicode="ù" horiz-adv-x="584" d="M390 0v62q-14 -11 -31 -24t-38 -24t-46 -18.5t-54 -7.5q-26 0 -53 7t-49.5 26t-37 51t-14.5 82v356h132v-353q0 -32 17.5 -50t49.5 -18t65.5 15.5t56.5 35.5v370h131v-510h-129zM276 568l-76 122h128l50 -122h-102z"/>
            <glyph glyph-name="uacute" unicode="ú" horiz-adv-x="584" d="M390 0v62q-14 -11 -31 -24t-38 -24t-46 -18.5t-54 -7.5q-26 0 -53 7t-49.5 26t-37 51t-14.5 82v356h132v-353q0 -32 17.5 -50t49.5 -18t65.5 15.5t56.5 35.5v370h131v-510h-129zM205 568l50 122h128l-76 -122h-102z"/>
            <glyph glyph-name="ucircumflex" unicode="û" horiz-adv-x="584" d="M390 0v62q-14 -11 -31 -24t-38 -24t-46 -18.5t-54 -7.5q-26 0 -53 7t-49.5 26t-37 51t-14.5 82v356h132v-353q0 -32 17.5 -50t49.5 -18t65.5 15.5t56.5 35.5v370h131v-510h-129zM355 568l-61 66l-62 -66h-79l75 122h129l77 -122h-79z"/>
            <glyph glyph-name="udieresis" unicode="ü" horiz-adv-x="584" d="M390 0v62q-14 -11 -31 -24t-38 -24t-46 -18.5t-54 -7.5q-26 0 -53 7t-49.5 26t-37 51t-14.5 82v356h132v-353q0 -32 17.5 -50t49.5 -18t65.5 15.5t56.5 35.5v370h131v-510h-129zM137 570v120h119v-120h-119zM333 570v120h119v-120h-119z"/>
            <glyph glyph-name="yacute" unicode="ý" horiz-adv-x="531" d="M142 -215q20 54 41 107.5t42 107.5h-42q-42 128 -84 255t-85 255h135l115 -403l126 403h133q-65 -183 -128 -363t-128 -362h-125zM175 568l50 122h128l-76 -122h-102z"/>
            <glyph glyph-name="thorn" unicode="þ" horiz-adv-x="595" d="M68 -205v907l131 27v-268q11 10 25.5 20.5t32.5 19.5t40 15t49 6q43 0 81 -18.5t66 -52.5t44 -81t16 -104q0 -72 -24.5 -124.5t-65 -86.5t-92.5 -50.5t-107 -16.5q-6 0 -15 0.5t-19 1.5t-18.5 2t-12.5 2v-199h-131zM199 93q11 -4 26 -6.5t33 -2.5q31 0 59 9t50 30 t35 55.5t13 85.5q0 40 -10.5 69.5t-27 49t-38.5 29.5t-44 10q-29 0 -54 -11t-42 -24v-294z"/>
            <glyph glyph-name="ydieresis" unicode="ÿ" horiz-adv-x="531" d="M142 -215q20 54 41 107.5t42 107.5h-42q-42 128 -84 255t-85 255h135l115 -403l126 403h133q-65 -183 -128 -363t-128 -362h-125zM107 570v120h119v-120h-119zM303 570v120h119v-120h-119z"/>
            <glyph glyph-name="Amacron" unicode="Ā" horiz-adv-x="634" d="M484 0l-52 177h-233l-52 -177h-133l216 690h175l216 -690h-137zM316 582l-91 -309h181zM187 779v83h260v-83h-260z"/>
            <glyph glyph-name="amacron" unicode="ā" horiz-adv-x="521" d="M331 0l-7 46q-23 -22 -56.5 -40t-81.5 -18q-29 0 -57.5 9t-51 27.5t-36 46t-13.5 64.5q0 40 12 73t39.5 56.5t72 36.5t109.5 13q14 0 32 -1t27 -2v51q0 18 -7 30t-18 19.5t-25 10.5t-29 3q-20 0 -41.5 -4.5t-41.5 -11t-37.5 -13.5t-29.5 -13l-38 84q35 21 89.5 38 t126.5 17q40 0 74 -9t58 -28.5t37.5 -49t13.5 -70.5v-365h-121zM320 226q-14 2 -27 3.5t-26 1.5q-54 0 -82.5 -22.5t-28.5 -58.5q0 -29 21 -48.5t56 -19.5q26 0 49 8.5t38 20.5v115zM129 599v83h260v-83h-260z"/>
            <glyph glyph-name="Abreve" unicode="Ă" horiz-adv-x="634" d="M484 0l-52 177h-233l-52 -177h-133l216 690h175l216 -690h-137zM316 582l-91 -309h181zM458 870q0 -57 -39.5 -90.5t-102.5 -33.5t-102 33.5t-39 90.5h76q2 -27 19.5 -42t45.5 -15t45.5 15t19.5 42h77z"/>
            <glyph glyph-name="abreve" unicode="ă" horiz-adv-x="521" d="M331 0l-7 46q-23 -22 -56.5 -40t-81.5 -18q-29 0 -57.5 9t-51 27.5t-36 46t-13.5 64.5q0 40 12 73t39.5 56.5t72 36.5t109.5 13q14 0 32 -1t27 -2v51q0 18 -7 30t-18 19.5t-25 10.5t-29 3q-20 0 -41.5 -4.5t-41.5 -11t-37.5 -13.5t-29.5 -13l-38 84q35 21 89.5 38 t126.5 17q40 0 74 -9t58 -28.5t37.5 -49t13.5 -70.5v-365h-121zM320 226q-14 2 -27 3.5t-26 1.5q-54 0 -82.5 -22.5t-28.5 -58.5q0 -29 21 -48.5t56 -19.5q26 0 49 8.5t38 20.5v115zM401 690q0 -57 -39.5 -90.5t-102.5 -33.5t-102 33.5t-39 90.5h76q2 -27 19.5 -42t45.5 -15 t45.5 15t19.5 42h77z"/>
            <glyph glyph-name="Aogonek" unicode="Ą" horiz-adv-x="634" d="M616 -200q-11 -4 -28 -6t-28 -2q-50 0 -75 21t-25 50q0 22 7.5 42.5t18.5 38t23.5 32t21.5 24.5h-47l-52 177h-233l-52 -177h-133l216 690h175l216 -690h-5q-27 -29 -45 -61.5t-18 -55.5q0 -16 10 -23t26 -7q5 0 12.5 1t14.5 3v-57zM316 582l-91 -309h181z"/>
            <glyph glyph-name="aogonek" unicode="ą" horiz-adv-x="521" d="M435 -200q-11 -4 -28 -6t-28 -2q-50 0 -75 21t-25 50q0 22 7.5 42.5t18.5 38t23.5 32t21.5 24.5h-19l-7 46q-23 -22 -56.5 -40t-81.5 -18q-29 0 -57.5 9t-51 27.5t-36 46t-13.5 64.5q0 40 12 73t39.5 56.5t72 36.5t109.5 13q14 0 32 -1t27 -2v51q0 18 -7 30t-18 19.5 t-25 10.5t-29 3q-20 0 -41.5 -4.5t-41.5 -11t-37.5 -13.5t-29.5 -13l-38 84q35 21 89.5 38t126.5 17q40 0 74 -9t58 -28.5t37.5 -49t13.5 -70.5v-365h-17q-27 -29 -45 -61.5t-18 -55.5q0 -16 10 -23t26 -7q5 0 12.5 1t14.5 3v-57zM320 226q-14 2 -27 3.5t-26 1.5 q-54 0 -82.5 -22.5t-28.5 -58.5q0 -29 21 -48.5t56 -19.5q26 0 49 8.5t38 20.5v115z"/>
            <glyph glyph-name="Cacute" unicode="Ć" horiz-adv-x="579" d="M567 16q-35 -13 -79.5 -20.5t-92.5 -7.5q-78 0 -143.5 26t-113 73t-74 113.5t-26.5 146.5q0 84 29.5 149.5t79.5 111.5t116.5 70t141.5 24q48 0 89 -7.5t73 -20.5l-36 -94q-28 11 -61 17t-68 6q-54 0 -96 -20t-71.5 -54.5t-45 -82t-15.5 -102.5q0 -59 18 -106.5t49.5 -81 t74.5 -51.5t93 -18q33 0 62.5 5t55.5 14zM326 748l50 122h128l-76 -122h-102z"/>
            <glyph glyph-name="cacute" unicode="ć" horiz-adv-x="460" d="M446 18q-24 -12 -61 -21t-81 -9q-59 0 -107.5 18.5t-83 53t-53.5 83t-19 107.5q0 60 20 110t55 86t84 56t108 20q42 0 74.5 -9t56.5 -20l-39 -88q-17 8 -39 13.5t-44 5.5q-29 0 -54.5 -12t-44.5 -34.5t-30 -54t-11 -69.5q0 -37 10.5 -68t30 -53t47 -34.5t61.5 -12.5 q24 0 46.5 5.5t37.5 11.5zM232 568l50 122h128l-76 -122h-102z"/>
            <glyph glyph-name="Ccircumflex" unicode="Ĉ" horiz-adv-x="579" d="M567 16q-35 -13 -79.5 -20.5t-92.5 -7.5q-78 0 -143.5 26t-113 73t-74 113.5t-26.5 146.5q0 84 29.5 149.5t79.5 111.5t116.5 70t141.5 24q48 0 89 -7.5t73 -20.5l-36 -94q-28 11 -61 17t-68 6q-54 0 -96 -20t-71.5 -54.5t-45 -82t-15.5 -102.5q0 -59 18 -106.5t49.5 -81 t74.5 -51.5t93 -18q33 0 62.5 5t55.5 14zM437 748l-61 66l-62 -66h-79l75 122h129l77 -122h-79z"/>
            <glyph glyph-name="ccircumflex" unicode="ĉ" horiz-adv-x="460" d="M446 18q-24 -12 -61 -21t-81 -9q-59 0 -107.5 18.5t-83 53t-53.5 83t-19 107.5q0 60 20 110t55 86t84 56t108 20q42 0 74.5 -9t56.5 -20l-39 -88q-17 8 -39 13.5t-44 5.5q-29 0 -54.5 -12t-44.5 -34.5t-30 -54t-11 -69.5q0 -37 10.5 -68t30 -53t47 -34.5t61.5 -12.5 q24 0 46.5 5.5t37.5 11.5zM356 568l-61 66l-62 -66h-79l75 122h129l77 -122h-79z"/>
            <glyph glyph-name="Cdotaccent" unicode="Ċ" horiz-adv-x="579" d="M567 16q-35 -13 -79.5 -20.5t-92.5 -7.5q-78 0 -143.5 26t-113 73t-74 113.5t-26.5 146.5q0 84 29.5 149.5t79.5 111.5t116.5 70t141.5 24q48 0 89 -7.5t73 -20.5l-36 -94q-28 11 -61 17t-68 6q-54 0 -96 -20t-71.5 -54.5t-45 -82t-15.5 -102.5q0 -59 18 -106.5t49.5 -81 t74.5 -51.5t93 -18q33 0 62.5 5t55.5 14zM294 763v120h131v-120h-131z"/>
            <glyph glyph-name="cdotaccent" unicode="ċ" horiz-adv-x="460" d="M446 18q-24 -12 -61 -21t-81 -9q-59 0 -107.5 18.5t-83 53t-53.5 83t-19 107.5q0 60 20 110t55 86t84 56t108 20q42 0 74.5 -9t56.5 -20l-39 -88q-17 8 -39 13.5t-44 5.5q-29 0 -54.5 -12t-44.5 -34.5t-30 -54t-11 -69.5q0 -37 10.5 -68t30 -53t47 -34.5t61.5 -12.5 q24 0 46.5 5.5t37.5 11.5zM233 583v120h131v-120h-131z"/>
            <glyph glyph-name="Ccaron" unicode="Č" horiz-adv-x="579" d="M567 16q-35 -13 -79.5 -20.5t-92.5 -7.5q-78 0 -143.5 26t-113 73t-74 113.5t-26.5 146.5q0 84 29.5 149.5t79.5 111.5t116.5 70t141.5 24q48 0 89 -7.5t73 -20.5l-36 -94q-28 11 -61 17t-68 6q-54 0 -96 -20t-71.5 -54.5t-45 -82t-15.5 -102.5q0 -59 18 -106.5t49.5 -81 t74.5 -51.5t93 -18q33 0 62.5 5t55.5 14zM329 748l-75 122h79l62 -66l61 66h79l-77 -122h-129z"/>
            <glyph glyph-name="ccaron" unicode="č" horiz-adv-x="460" d="M446 18q-24 -12 -61 -21t-81 -9q-59 0 -107.5 18.5t-83 53t-53.5 83t-19 107.5q0 60 20 110t55 86t84 56t108 20q42 0 74.5 -9t56.5 -20l-39 -88q-17 8 -39 13.5t-44 5.5q-29 0 -54.5 -12t-44.5 -34.5t-30 -54t-11 -69.5q0 -37 10.5 -68t30 -53t47 -34.5t61.5 -12.5 q24 0 46.5 5.5t37.5 11.5zM226 568l-75 122h79l62 -66l61 66h79l-77 -122h-129z"/>
            <glyph glyph-name="Dcaron" unicode="Ď" horiz-adv-x="722" d="M75 0v690h233q90 0 160 -23t118 -66.5t73 -106t25 -142.5q0 -170 -100 -261t-291 -91h-218zM297 99q121 0 185.5 63.5t64.5 191.5q0 58 -18.5 102t-51 74t-76 45.5t-94.5 15.5h-97v-492h87zM295 748l-75 122h79l62 -66l61 66h79l-77 -122h-129z"/>
            <glyph glyph-name="dcaron" unicode="ď" horiz-adv-x="646" d="M396 414q-14 9 -35.5 16t-44.5 7q-29 0 -54 -13t-44 -37.5t-29.5 -59t-10.5 -76.5t10.5 -73t28 -52t40.5 -31t49 -10q29 0 53.5 10.5t36.5 18.5v300zM396 0v43q-27 -20 -61 -37.5t-82 -17.5q-44 0 -82.5 17.5t-67 50.5t-45 80t-16.5 106q0 63 18.5 114.5t51.5 88t79 57 t100 20.5q38 0 64.5 -8.5t40.5 -17.5v206l131 27v-729h-131zM573 495v195h100v-195h-100z"/>
            <glyph glyph-name="Dcroat" unicode="Đ" horiz-adv-x="722" d="M75 0v311h-52v91h52v288h233q90 0 160 -23t118 -66.5t73 -106t25 -142.5q0 -170 -100 -261t-291 -91h-218zM297 99q121 0 185.5 63.5t64.5 191.5q0 58 -18.5 102t-51 74t-76 45.5t-94.5 15.5h-97v-189h107v-91h-107v-212h87z"/>
            <glyph glyph-name="dcroat" unicode="đ" horiz-adv-x="605" d="M405 0v43q-26 -20 -62.5 -37.5t-81.5 -17.5q-52 0 -93 21t-69 55.5t-42.5 77.5t-14.5 87q0 73 23.5 128t64.5 92t96 55t119 18q13 0 32.5 -3.5t27.5 -5.5v58h-133v84h133v44l132 55v-99h39v-84h-39v-571h-132zM405 412q-14 5 -35.5 8.5t-41.5 3.5q-67 0 -108.5 -46 t-41.5 -133q0 -40 11 -69.5t29.5 -49t42.5 -29.5t51 -10q14 0 28 3t26.5 7.5t22.5 9.5t16 9v296z"/>
            <glyph glyph-name="Emacron" unicode="Ē" horiz-adv-x="532" d="M75 0v690h413l-5 -99h-273v-189h245v-96h-245v-207h306v-99h-441zM156 779v83h260v-83h-260z"/>
            <glyph glyph-name="emacron" unicode="ē" horiz-adv-x="536" d="M496 37q-12 -9 -32.5 -18t-46.5 -15.5t-55.5 -11t-59.5 -4.5q-62 0 -110 19t-81.5 53.5t-51 83t-17.5 106.5q0 61 19 111t52 86t78.5 55.5t98.5 19.5q40 0 77.5 -12.5t66.5 -40t46.5 -71.5t17.5 -108v-57h-319q5 -71 41 -109t102 -38q20 0 41 3.5t39.5 8.5t32.5 11t22 11 zM374 307q-1 60 -25.5 89.5t-63.5 29.5q-42 0 -70.5 -31.5t-34.5 -87.5h194zM138 599v83h260v-83h-260z"/>
            <glyph glyph-name="Ebreve" unicode="Ĕ" horiz-adv-x="532" d="M75 0v690h413l-5 -99h-273v-189h245v-96h-245v-207h306v-99h-441zM407 870q0 -57 -39.5 -90.5t-102.5 -33.5t-102 33.5t-39 90.5h76q2 -27 19.5 -42t45.5 -15t45.5 15t19.5 42h77z"/>
            <glyph glyph-name="ebreve" unicode="ĕ" horiz-adv-x="536" d="M496 37q-12 -9 -32.5 -18t-46.5 -15.5t-55.5 -11t-59.5 -4.5q-62 0 -110 19t-81.5 53.5t-51 83t-17.5 106.5q0 61 19 111t52 86t78.5 55.5t98.5 19.5q40 0 77.5 -12.5t66.5 -40t46.5 -71.5t17.5 -108v-57h-319q5 -71 41 -109t102 -38q20 0 41 3.5t39.5 8.5t32.5 11t22 11 zM374 307q-1 60 -25.5 89.5t-63.5 29.5q-42 0 -70.5 -31.5t-34.5 -87.5h194zM409 690q0 -57 -39.5 -90.5t-102.5 -33.5t-102 33.5t-39 90.5h76q2 -27 19.5 -42t45.5 -15t45.5 15t19.5 42h77z"/>
            <glyph glyph-name="Edotaccent" unicode="Ė" horiz-adv-x="532" d="M75 0v690h413l-5 -99h-273v-189h245v-96h-245v-207h306v-99h-441zM204 763v120h131v-120h-131z"/>
            <glyph glyph-name="edotaccent" unicode="ė" horiz-adv-x="536" d="M496 37q-12 -9 -32.5 -18t-46.5 -15.5t-55.5 -11t-59.5 -4.5q-62 0 -110 19t-81.5 53.5t-51 83t-17.5 106.5q0 61 19 111t52 86t78.5 55.5t98.5 19.5q40 0 77.5 -12.5t66.5 -40t46.5 -71.5t17.5 -108v-57h-319q5 -71 41 -109t102 -38q20 0 41 3.5t39.5 8.5t32.5 11t22 11 zM374 307q-1 60 -25.5 89.5t-63.5 29.5q-42 0 -70.5 -31.5t-34.5 -87.5h194zM212 583v120h131v-120h-131z"/>
            <glyph glyph-name="Eogonek" unicode="Ę" horiz-adv-x="532" d="M506 -200q-11 -4 -28 -6t-28 -2q-50 0 -75 21t-25 50q0 22 7.5 42.5t18.5 38t23.5 32t21.5 24.5h-346v690h413l-5 -99h-273v-189h245v-96h-245v-207h306v-99h-10q-27 -29 -45 -61.5t-18 -55.5q0 -16 10 -23t26 -7q5 0 12.5 1t14.5 3v-57z"/>
            <glyph glyph-name="eogonek" unicode="ę" horiz-adv-x="536" d="M492 -200q-11 -4 -28 -6t-28 -2q-50 0 -75 21t-25 50q0 21 6.5 41t16.5 38t21.5 32.5t21.5 25.5q-23 -5 -48.5 -8.5t-51.5 -3.5q-62 0 -110 19t-81.5 53.5t-51 83t-17.5 106.5q0 61 19 111t52 86t78.5 55.5t98.5 19.5q40 0 77.5 -12.5t66.5 -40t46.5 -71.5t17.5 -108v-57 h-319q5 -71 41 -109t102 -38q20 0 41 3.5t39.5 8.5t32.5 11t22 11l39 -83q-14 -15 -26 -36.5t-21 -43.5t-14.5 -42t-5.5 -32q0 -16 10 -23t26 -7q5 0 12.5 1t14.5 3v-57zM374 307q-1 60 -25.5 89.5t-63.5 29.5q-42 0 -70.5 -31.5t-34.5 -87.5h194z"/>
            <glyph glyph-name="Ecaron" unicode="Ě" horiz-adv-x="532" d="M75 0v690h413l-5 -99h-273v-189h245v-96h-245v-207h306v-99h-441zM200 748l-75 122h79l62 -66l61 66h79l-77 -122h-129z"/>
            <glyph glyph-name="ecaron" unicode="ě" horiz-adv-x="536" d="M496 37q-12 -9 -32.5 -18t-46.5 -15.5t-55.5 -11t-59.5 -4.5q-62 0 -110 19t-81.5 53.5t-51 83t-17.5 106.5q0 61 19 111t52 86t78.5 55.5t98.5 19.5q40 0 77.5 -12.5t66.5 -40t46.5 -71.5t17.5 -108v-57h-319q5 -71 41 -109t102 -38q20 0 41 3.5t39.5 8.5t32.5 11t22 11 zM374 307q-1 60 -25.5 89.5t-63.5 29.5q-42 0 -70.5 -31.5t-34.5 -87.5h194zM211 568l-75 122h79l62 -66l61 66h79l-77 -122h-129z"/>
            <glyph glyph-name="Gcircumflex" unicode="Ĝ" horiz-adv-x="680" d="M498 334l122 27v-333q-51 -20 -104.5 -30t-120.5 -10q-78 0 -143.5 26t-113 73t-74 113.5t-26.5 146.5q0 84 29.5 150t79.5 111.5t116.5 69.5t141.5 24q73 0 128.5 -15.5t91.5 -35.5l-44 -90q-14 7 -33.5 14.5t-42.5 14t-49.5 10.5t-53.5 4q-54 0 -96 -20t-71.5 -54.5 t-45 -82.5t-15.5 -103q0 -59 17.5 -106.5t49 -81t74.5 -51.5t93 -18q27 0 50 3.5t40 8.5v235zM471 748l-61 66l-62 -66h-79l75 122h129l77 -122h-79z"/>
            <glyph glyph-name="gcircumflex" unicode="ĝ" horiz-adv-x="519" d="M352 94q80 -6 121 -42t41 -95q0 -41 -19.5 -74t-55 -56t-85 -35.5t-109.5 -12.5q-52 0 -96 9.5t-75.5 27t-49 42t-17.5 54.5q0 38 25 68t57 47q-17 12 -25.5 30t-8.5 37q0 31 19 55t45 43q-33 25 -51.5 61.5t-18.5 82.5q0 43 16.5 77.5t44.5 58.5t65.5 37t79.5 13 q23 0 42 -3.5t36 -8.5h182v-91h-75q24 -38 24 -85q0 -40 -16.5 -73.5t-44 -58t-64 -38t-75.5 -13.5q-24 0 -44.5 3.5t-29.5 7.5q-11 -6 -17 -14t-6 -20q0 -18 18 -21t41 -4zM156 -2q-17 -12 -27.5 -30t-10.5 -36q0 -17 11 -29.5t30 -20.5t44.5 -12t53.5 -4q27 0 52 3.5 t44.5 12t31.5 22.5t12 34t-14 33t-43 15zM256 241q39 0 63 25.5t24 66.5t-23.5 66.5t-63.5 25.5q-39 0 -62.5 -25.5t-23.5 -66.5t23.5 -66.5t62.5 -25.5zM320 568l-61 66l-62 -66h-79l75 122h129l77 -122h-79z"/>
            <glyph glyph-name="Gbreve" unicode="Ğ" horiz-adv-x="680" d="M498 334l122 27v-333q-51 -20 -104.5 -30t-120.5 -10q-78 0 -143.5 26t-113 73t-74 113.5t-26.5 146.5q0 84 29.5 150t79.5 111.5t116.5 69.5t141.5 24q73 0 128.5 -15.5t91.5 -35.5l-44 -90q-14 7 -33.5 14.5t-42.5 14t-49.5 10.5t-53.5 4q-54 0 -96 -20t-71.5 -54.5 t-45 -82.5t-15.5 -103q0 -59 17.5 -106.5t49 -81t74.5 -51.5t93 -18q27 0 50 3.5t40 8.5v235zM536 870q0 -57 -39.5 -90.5t-102.5 -33.5t-102 33.5t-39 90.5h76q2 -27 19.5 -42t45.5 -15t45.5 15t19.5 42h77z"/>
            <glyph glyph-name="gbreve" unicode="ğ" horiz-adv-x="519" d="M352 94q80 -6 121 -42t41 -95q0 -41 -19.5 -74t-55 -56t-85 -35.5t-109.5 -12.5q-52 0 -96 9.5t-75.5 27t-49 42t-17.5 54.5q0 38 25 68t57 47q-17 12 -25.5 30t-8.5 37q0 31 19 55t45 43q-33 25 -51.5 61.5t-18.5 82.5q0 43 16.5 77.5t44.5 58.5t65.5 37t79.5 13 q23 0 42 -3.5t36 -8.5h182v-91h-75q24 -38 24 -85q0 -40 -16.5 -73.5t-44 -58t-64 -38t-75.5 -13.5q-24 0 -44.5 3.5t-29.5 7.5q-11 -6 -17 -14t-6 -20q0 -18 18 -21t41 -4zM156 -2q-17 -12 -27.5 -30t-10.5 -36q0 -17 11 -29.5t30 -20.5t44.5 -12t53.5 -4q27 0 52 3.5 t44.5 12t31.5 22.5t12 34t-14 33t-43 15zM256 241q39 0 63 25.5t24 66.5t-23.5 66.5t-63.5 25.5q-39 0 -62.5 -25.5t-23.5 -66.5t23.5 -66.5t62.5 -25.5zM400 690q0 -57 -39.5 -90.5t-102.5 -33.5t-102 33.5t-39 90.5h76q2 -27 19.5 -42t45.5 -15t45.5 15t19.5 42h77z"/>
            <glyph glyph-name="Gdotaccent" unicode="Ġ" horiz-adv-x="680" d="M498 334l122 27v-333q-51 -20 -104.5 -30t-120.5 -10q-78 0 -143.5 26t-113 73t-74 113.5t-26.5 146.5q0 84 29.5 150t79.5 111.5t116.5 69.5t141.5 24q73 0 128.5 -15.5t91.5 -35.5l-44 -90q-14 7 -33.5 14.5t-42.5 14t-49.5 10.5t-53.5 4q-54 0 -96 -20t-71.5 -54.5 t-45 -82.5t-15.5 -103q0 -59 17.5 -106.5t49 -81t74.5 -51.5t93 -18q27 0 50 3.5t40 8.5v235zM343 763v120h131v-120h-131z"/>
            <glyph glyph-name="gdotaccent" unicode="ġ" horiz-adv-x="519" d="M352 94q80 -6 121 -42t41 -95q0 -41 -19.5 -74t-55 -56t-85 -35.5t-109.5 -12.5q-52 0 -96 9.5t-75.5 27t-49 42t-17.5 54.5q0 38 25 68t57 47q-17 12 -25.5 30t-8.5 37q0 31 19 55t45 43q-33 25 -51.5 61.5t-18.5 82.5q0 43 16.5 77.5t44.5 58.5t65.5 37t79.5 13 q23 0 42 -3.5t36 -8.5h182v-91h-75q24 -38 24 -85q0 -40 -16.5 -73.5t-44 -58t-64 -38t-75.5 -13.5q-24 0 -44.5 3.5t-29.5 7.5q-11 -6 -17 -14t-6 -20q0 -18 18 -21t41 -4zM156 -2q-17 -12 -27.5 -30t-10.5 -36q0 -17 11 -29.5t30 -20.5t44.5 -12t53.5 -4q27 0 52 3.5 t44.5 12t31.5 22.5t12 34t-14 33t-43 15zM256 241q39 0 63 25.5t24 66.5t-23.5 66.5t-63.5 25.5q-39 0 -62.5 -25.5t-23.5 -66.5t23.5 -66.5t62.5 -25.5zM197 583v120h131v-120h-131z"/>
            <glyph glyph-name="Gcommaaccent" unicode="Ģ" horiz-adv-x="680" d="M498 334l122 27v-333q-51 -20 -104.5 -30t-120.5 -10q-78 0 -143.5 26t-113 73t-74 113.5t-26.5 146.5q0 84 29.5 150t79.5 111.5t116.5 69.5t141.5 24q73 0 128.5 -15.5t91.5 -35.5l-44 -90q-14 7 -33.5 14.5t-42.5 14t-49.5 10.5t-53.5 4q-54 0 -96 -20t-71.5 -54.5 t-45 -82.5t-15.5 -103q0 -59 17.5 -106.5t49 -81t74.5 -51.5t93 -18q27 0 50 3.5t40 8.5v235zM283 -254l50 91h-50v112h118v-112l-61 -91h-57z"/>
            <glyph glyph-name="gcommaaccent" unicode="ģ" horiz-adv-x="519" d="M352 94q80 -6 121 -42t41 -95q0 -41 -19.5 -74t-55 -56t-85 -35.5t-109.5 -12.5q-52 0 -96 9.5t-75.5 27t-49 42t-17.5 54.5q0 38 25 68t57 47q-17 12 -25.5 30t-8.5 37q0 31 19 55t45 43q-33 25 -51.5 61.5t-18.5 82.5q0 43 16.5 77.5t44.5 58.5t65.5 37t79.5 13 q23 0 42 -3.5t36 -8.5h182v-91h-75q24 -38 24 -85q0 -40 -16.5 -73.5t-44 -58t-64 -38t-75.5 -13.5q-24 0 -44.5 3.5t-29.5 7.5q-11 -6 -17 -14t-6 -20q0 -18 18 -21t41 -4zM156 -2q-17 -12 -27.5 -30t-10.5 -36q0 -17 11 -29.5t30 -20.5t44.5 -12t53.5 -4q27 0 52 3.5 t44.5 12t31.5 22.5t12 34t-14 33t-43 15zM256 241q39 0 63 25.5t24 66.5t-23.5 66.5t-63.5 25.5q-39 0 -62.5 -25.5t-23.5 -66.5t23.5 -66.5t62.5 -25.5zM208 567v112l61 91h57l-50 -91h50v-112h-118z"/>
            <glyph glyph-name="Hcircumflex" unicode="Ĥ" horiz-adv-x="724" d="M512 0v302h-302v-302h-135v690h135v-284h302v284h135v-690h-135zM423 748l-61 66l-62 -66h-79l75 122h129l77 -122h-79z"/>
            <glyph glyph-name="hcircumflex" unicode="ĥ" horiz-adv-x="593" d="M393 0v346q0 35 -16.5 56t-50.5 21q-18 0 -36.5 -5.5t-35.5 -14t-31 -17.5t-23 -16v-370h-132v702l132 27v-279q14 11 33 24t41.5 23.5t47.5 17.5t52 7q26 0 52.5 -8t48.5 -27.5t35.5 -52.5t13.5 -83v-351h-131zM207 750l-61 66l-62 -66h-79l75 122h129l77 -122h-79z"/>
            <glyph glyph-name="Hbar" unicode="Ħ" horiz-adv-x="724" d="M512 0v267h-302v-267h-135v464h-48v95h48v131h135v-131h302v131h137v-131h47v-95h-47v-464h-137zM512 464h-302v-93h302v93z"/>
            <glyph glyph-name="hbar" unicode="ħ" horiz-adv-x="593" d="M393 0v346q0 35 -16.5 56t-50.5 21q-18 0 -36.5 -5.5t-35.5 -14t-31 -17.5t-23 -16v-370h-132v561h-51v84h51v57l132 27v-84h131v-84h-131v-111q14 11 33 24t41.5 23.5t47.5 17.5t52 7q26 0 52.5 -8t48.5 -27.5t35.5 -52.5t13.5 -83v-351h-131z"/>
            <glyph glyph-name="Itilde" unicode="Ĩ" horiz-adv-x="292" d="M78 0v690h136v-690h-136zM292 848q-2 -7 -8.5 -20.5t-18 -27t-27.5 -24t-37 -10.5q-17 0 -33.5 5t-31.5 11.5t-28 11.5t-23 5q-15 0 -25.5 -9t-16.5 -24l-40 24q2 7 8.5 20t18 26t27.5 23t37 10q16 0 31.5 -4.5t30 -10.5t28 -10.5t26.5 -4.5q14 0 24.5 9t16.5 24z"/>
            <glyph glyph-name="itilde" unicode="ĩ" horiz-adv-x="265" d="M279 668q-2 -7 -8.5 -20.5t-18 -27t-27.5 -24t-37 -10.5q-17 0 -33.5 5t-31.5 11.5t-28 11.5t-23 5q-15 0 -25.5 -9t-16.5 -24l-40 24q2 7 8.5 20t18 26t27.5 23t37 10q16 0 31.5 -4.5t30 -10.5t28 -10.5t26.5 -4.5q14 0 24.5 9t16.5 24zM68 0v510h132v-510h-132z"/>
            <glyph glyph-name="Imacron" unicode="Ī" horiz-adv-x="292" d="M78 0v690h136v-690h-136zM17 779v83h260v-83h-260z"/>
            <glyph glyph-name="imacron" unicode="ī" horiz-adv-x="265" d="M4 599v83h260v-83h-260zM68 0v510h132v-510h-132z"/>
            <glyph glyph-name="Ibreve" unicode="Ĭ" horiz-adv-x="292" d="M78 0v690h136v-690h-136zM289 870q0 -57 -39.5 -90.5t-102.5 -33.5t-102 33.5t-39 90.5h76q2 -27 19.5 -42t45.5 -15t45.5 15t19.5 42h77z"/>
            <glyph glyph-name="ibreve" unicode="ĭ" horiz-adv-x="265" d="M276 690q0 -57 -39.5 -90.5t-102.5 -33.5t-102 33.5t-39 90.5h76q2 -27 19.5 -42t45.5 -15t45.5 15t19.5 42h77zM68 0v510h132v-510h-132z"/>
            <glyph glyph-name="Iogonek" unicode="Į" horiz-adv-x="292" d="M209 -200q-11 -4 -28 -6t-28 -2q-50 0 -75 21t-25 50q0 22 7.5 42.5t18.5 38t23.5 32t21.5 24.5h-46v690h136v-690h-5q-27 -29 -45 -61.5t-18 -55.5q0 -16 10 -23t26 -7q5 0 12.5 1t14.5 3v-57z"/>
            <glyph glyph-name="iogonek" unicode="į" horiz-adv-x="270" d="M182 -200q-11 -4 -28 -6t-28 -2q-50 0 -75 21t-25 50q0 22 7.5 42.5t18.5 38t23.5 32t21.5 24.5h-29v510h132v-510h-18q-27 -29 -45 -61.5t-18 -55.5q0 -16 10 -23t26 -7q5 0 12.5 1t14.5 3v-57zM68 570v120h132v-120h-132z"/>
            <glyph glyph-name="Idotaccent" unicode="İ" horiz-adv-x="292" d="M78 0v690h136v-690h-136zM84 763v120h131v-120h-131z"/>
            <glyph glyph-name="dotlessi" unicode="ı" horiz-adv-x="265" d="M68 0v510h132v-510h-132z"/>
            <glyph glyph-name="IJ" unicode="Ĳ" horiz-adv-x="720" d="M78 0v690h136v-690h-136zM512 690h135v-525q0 -49 -15 -82.5t-42 -54.5t-65.5 -30.5t-84.5 -9.5q-42 0 -84 7t-65 16l31 96q15 -7 44.5 -13.5t58.5 -6.5q38 0 62.5 17.5t24.5 63.5v522z"/>
            <glyph glyph-name="ij" unicode="ĳ" horiz-adv-x="526" d="M68 0v510h132v-510h-132zM68 570v120h132v-120h-132zM259 -154q18 16 32.5 32.5t25 38.5t16 51.5t5.5 70.5v471h132v-472q0 -59 -11 -100.5t-28 -71.5t-39 -50.5t-44 -37.5zM338 570v120h132v-120h-132z"/>
            <glyph glyph-name="Jcircumflex" unicode="Ĵ" horiz-adv-x="428" d="M220 690h135v-525q0 -49 -15 -82.5t-42 -54.5t-65.5 -30.5t-84.5 -9.5q-42 0 -84 7t-65 16l31 96q15 -7 44.5 -13.5t58.5 -6.5q38 0 62.5 17.5t24.5 63.5v522zM350 748l-61 66l-62 -66h-79l75 122h129l77 -122h-79z"/>
            <glyph glyph-name="jcircumflex" unicode="ĵ" horiz-adv-x="256" d="M-11 -154q18 16 32.5 32.5t25 38.5t16 51.5t5.5 70.5v471h132v-472q0 -59 -11 -100.5t-28 -71.5t-39 -50.5t-44 -37.5zM191 568l-61 66l-62 -66h-79l75 122h129l77 -122h-79z"/>
            <glyph glyph-name="Kcommaaccent" unicode="Ķ" horiz-adv-x="639" d="M72 0v690h136v-690h-136zM515 0l-296 349l278 341h143l-270 -329l307 -361h-162zM258 -254l50 91h-50v112h118v-112l-61 -91h-57z"/>
            <glyph glyph-name="kcommaaccent" unicode="ķ" horiz-adv-x="538" d="M68 0v702l132 27v-729h-132zM411 0l-198 291l180 219h143l-181 -218l210 -292h-154zM214 -254l50 91h-50v112h118v-112l-61 -91h-57z"/>
            <glyph glyph-name="kgreenlandic" unicode="ĸ" horiz-adv-x="538" d="M68 0v510h130v-510h-130zM411 0l-198 280l180 230h143l-181 -229l210 -281h-154z"/>
            <glyph glyph-name="Lacute" unicode="Ĺ" horiz-adv-x="499" d="M75 0v690h135v-591h272v-99h-407zM93 748l50 122h128l-76 -122h-102z"/>
            <glyph glyph-name="lacute" unicode="ĺ" horiz-adv-x="268" d="M68 0v702l132 27v-729h-132zM89 749l50 122h128l-76 -122h-102z"/>
            <glyph glyph-name="Lcommaaccent" unicode="Ļ" horiz-adv-x="518" d="M75 0v690h135v-591h272v-99h-407zM202 -254l50 91h-50v112h118v-112l-61 -91h-57z"/>
            <glyph glyph-name="lcommaaccent" unicode="ļ" horiz-adv-x="268" d="M68 0v702l132 27v-729h-132zM83 -254l50 91h-50v112h118v-112l-61 -91h-57z"/>
            <glyph glyph-name="Lcaron" unicode="Ľ" horiz-adv-x="499" d="M75 0v690h135v-591h272v-99h-407zM255 495v195h100v-195h-100z"/>
            <glyph glyph-name="lcaron" unicode="ľ" horiz-adv-x="316" d="M68 0v702l132 27v-729h-132zM243 495v195h100v-195h-100z"/>
            <glyph glyph-name="Ldot" unicode="Ŀ" horiz-adv-x="518" d="M75 0v690h135v-591h272v-99h-407zM458 355q0 -33 -23 -56t-56 -23q-32 0 -55 23t-23 56q0 32 23 55.5t55 23.5q33 0 56 -23.5t23 -55.5z"/>
            <glyph glyph-name="ldot" unicode="ŀ" horiz-adv-x="391" d="M68 0v702l132 27v-729h-132zM405 358q0 -33 -23 -56t-56 -23q-32 0 -55 23t-23 56q0 32 23 55.5t55 23.5q33 0 56 -23.5t23 -55.5z"/>
            <glyph glyph-name="Lslash" unicode="Ł" horiz-adv-x="499" d="M75 0v253l-47 -14v92l47 14v345h135v-306l139 41v-91l-139 -41v-194h272v-99h-407z"/>
            <glyph glyph-name="lslash" unicode="ł" horiz-adv-x="280" d="M74 0v346l-55 -24v92l55 24v264l131 27v-238l56 25v-92l-56 -25v-399h-131z"/>
            <glyph glyph-name="Nacute" unicode="Ń" horiz-adv-x="738" d="M502 0l-310 543v-543h-117v690h167l303 -534h1v534h117v-690h-161zM280 748l50 122h128l-76 -122h-102z"/>
            <glyph glyph-name="nacute" unicode="ń" horiz-adv-x="593" d="M393 0v344q0 40 -18.5 59.5t-51.5 19.5q-18 0 -36 -5.5t-34 -13.5t-29.5 -17.5t-23.5 -16.5v-370h-132v510h130v-65q13 11 30.5 24.5t40 25t49 19.5t56.5 8q27 0 53.5 -8t48 -27.5t35 -52.5t13.5 -83v-351h-131zM209 568l50 122h128l-76 -122h-102z"/>
            <glyph glyph-name="Ncommaaccent" unicode="Ņ" horiz-adv-x="738" d="M502 0l-310 543v-543h-117v690h167l303 -534h1v534h117v-690h-161zM313 -254l50 91h-50v112h118v-112l-61 -91h-57z"/>
            <glyph glyph-name="ncommaaccent" unicode="ņ" horiz-adv-x="593" d="M393 0v344q0 40 -18.5 59.5t-51.5 19.5q-18 0 -36 -5.5t-34 -13.5t-29.5 -17.5t-23.5 -16.5v-370h-132v510h130v-65q13 11 30.5 24.5t40 25t49 19.5t56.5 8q27 0 53.5 -8t48 -27.5t35 -52.5t13.5 -83v-351h-131zM242 -254l50 91h-50v112h118v-112l-61 -91h-57z"/>
            <glyph glyph-name="Ncaron" unicode="Ň" horiz-adv-x="738" d="M502 0l-310 543v-543h-117v690h167l303 -534h1v534h117v-690h-161zM303 748l-75 122h79l62 -66l61 66h79l-77 -122h-129z"/>
            <glyph glyph-name="ncaron" unicode="ň" horiz-adv-x="593" d="M393 0v344q0 40 -18.5 59.5t-51.5 19.5q-18 0 -36 -5.5t-34 -13.5t-29.5 -17.5t-23.5 -16.5v-370h-132v510h130v-65q13 11 30.5 24.5t40 25t49 19.5t56.5 8q27 0 53.5 -8t48 -27.5t35 -52.5t13.5 -83v-351h-131zM232 568l-75 122h79l62 -66l61 66h79l-77 -122h-129z"/>
            <glyph glyph-name="napostrophe" unicode="ŉ" horiz-adv-x="593" d="M393 0v344q0 40 -18.5 59.5t-51.5 19.5q-18 0 -36 -5.5t-34 -13.5t-29.5 -17.5t-23.5 -16.5v-370h-132v510h130v-65q13 11 30.5 24.5t40 25t49 19.5t56.5 8q27 0 53.5 -8t48 -27.5t35 -52.5t13.5 -83v-351h-131zM87 547l50 91h-50v112h118v-112l-61 -91h-57z"/>
            <glyph glyph-name="Eng" unicode="Ŋ" horiz-adv-x="738" d="M410 -136q11 2 30.5 4.5t38.5 12.5t33 30.5t14 58.5v46l-336 527v-543h-115v690h165q77 -124 153.5 -246t154.5 -246v492h115v-647q0 -57 -6.5 -102.5t-28 -78.5t-62 -51t-107.5 -19z"/>
            <glyph glyph-name="eng" unicode="ŋ" horiz-adv-x="597" d="M318 -154q18 16 32.5 32.5t25 38.5t16 51.5t5.5 70.5v313q0 35 -15.5 52.5t-50.5 17.5q-15 0 -34 -5.5t-37.5 -14t-34.5 -17.5t-25 -15v-370h-132v510h126v-63q13 10 34 23.5t46 24.5t52.5 19t53.5 8q28 0 54.5 -7.5t47.5 -26t33.5 -51t12.5 -82.5v-317q0 -59 -11 -100.5 t-28 -71.5t-39 -50.5t-43 -37.5z"/>
            <glyph glyph-name="Omacron" unicode="Ō" horiz-adv-x="785" d="M392 -12q-72 0 -136.5 25t-112.5 71t-76.5 112t-28.5 149q0 82 28.5 148t76.5 112.5t112.5 71.5t136.5 25t136.5 -25t112.5 -71.5t76.5 -112.5t28.5 -148q0 -83 -28.5 -149t-76.5 -112t-112.5 -71t-136.5 -25zM392 87q48 0 87.5 19.5t68.5 54t45 81.5t16 103t-16 103 t-45 81.5t-68.5 54t-87.5 19.5t-87.5 -19.5t-68.5 -54t-45 -81.5t-16 -103t16 -103t45 -81.5t68.5 -54t87.5 -19.5zM262 779v83h260v-83h-260z"/>
            <glyph glyph-name="omacron" unicode="ō" horiz-adv-x="608" d="M304 85q33 0 56 14t37.5 37.5t21.5 54t7 63.5q0 35 -7.5 66t-22.5 54t-38 36.5t-54 13.5t-54 -13.5t-38.5 -36.5t-23 -54t-7.5 -66q0 -33 7 -63.5t21.5 -54t38 -37.5t56.5 -14zM304 -12q-58 0 -106 19t-82.5 54t-54 84.5t-19.5 110.5q0 60 19 109.5t53.5 84t83 53.5 t106.5 19t106 -19t82.5 -53.5t54 -83.5t19.5 -110t-19.5 -110.5t-54 -84.5t-83 -54t-105.5 -19zM179 599v83h260v-83h-260z"/>
            <glyph glyph-name="Obreve" unicode="Ŏ" horiz-adv-x="785" d="M392 -12q-72 0 -136.5 25t-112.5 71t-76.5 112t-28.5 149q0 82 28.5 148t76.5 112.5t112.5 71.5t136.5 25t136.5 -25t112.5 -71.5t76.5 -112.5t28.5 -148q0 -83 -28.5 -149t-76.5 -112t-112.5 -71t-136.5 -25zM392 87q48 0 87.5 19.5t68.5 54t45 81.5t16 103t-16 103 t-45 81.5t-68.5 54t-87.5 19.5t-87.5 -19.5t-68.5 -54t-45 -81.5t-16 -103t16 -103t45 -81.5t68.5 -54t87.5 -19.5zM534 870q0 -57 -39.5 -90.5t-102.5 -33.5t-102 33.5t-39 90.5h76q2 -27 19.5 -42t45.5 -15t45.5 15t19.5 42h77z"/>
            <glyph glyph-name="obreve" unicode="ŏ" horiz-adv-x="608" d="M304 85q33 0 56 14t37.5 37.5t21.5 54t7 63.5q0 35 -7.5 66t-22.5 54t-38 36.5t-54 13.5t-54 -13.5t-38.5 -36.5t-23 -54t-7.5 -66q0 -33 7 -63.5t21.5 -54t38 -37.5t56.5 -14zM304 -12q-58 0 -106 19t-82.5 54t-54 84.5t-19.5 110.5q0 60 19 109.5t53.5 84t83 53.5 t106.5 19t106 -19t82.5 -53.5t54 -83.5t19.5 -110t-19.5 -110.5t-54 -84.5t-83 -54t-105.5 -19zM450 690q0 -57 -39.5 -90.5t-102.5 -33.5t-102 33.5t-39 90.5h76q2 -27 19.5 -42t45.5 -15t45.5 15t19.5 42h77z"/>
            <glyph glyph-name="Ohungarumlaut" unicode="Ő" horiz-adv-x="785" d="M392 -12q-72 0 -136.5 25t-112.5 71t-76.5 112t-28.5 149q0 82 28.5 148t76.5 112.5t112.5 71.5t136.5 25t136.5 -25t112.5 -71.5t76.5 -112.5t28.5 -148q0 -83 -28.5 -149t-76.5 -112t-112.5 -71t-136.5 -25zM392 87q48 0 87.5 19.5t68.5 54t45 81.5t16 103t-16 103 t-45 81.5t-68.5 54t-87.5 19.5t-87.5 -19.5t-68.5 -54t-45 -81.5t-16 -103t16 -103t45 -81.5t68.5 -54t87.5 -19.5zM238 748l50 122h102l-65 -122h-87zM393 748l50 122h103l-65 -122h-88z"/>
            <glyph glyph-name="ohungarumlaut" unicode="ő" horiz-adv-x="608" d="M304 85q33 0 56 14t37.5 37.5t21.5 54t7 63.5q0 35 -7.5 66t-22.5 54t-38 36.5t-54 13.5t-54 -13.5t-38.5 -36.5t-23 -54t-7.5 -66q0 -33 7 -63.5t21.5 -54t38 -37.5t56.5 -14zM304 -12q-58 0 -106 19t-82.5 54t-54 84.5t-19.5 110.5q0 60 19 109.5t53.5 84t83 53.5 t106.5 19t106 -19t82.5 -53.5t54 -83.5t19.5 -110t-19.5 -110.5t-54 -84.5t-83 -54t-105.5 -19zM154 568l50 122h102l-65 -122h-87zM309 568l50 122h103l-65 -122h-88z"/>
            <glyph glyph-name="OE" unicode="Œ" horiz-adv-x="1065" d="M608 0v85q-42 -46 -97.5 -71.5t-123.5 -25.5q-70 0 -133.5 25t-111.5 71t-76 112t-28 149q0 82 28 148t76 112.5t111.5 71.5t133.5 25q68 0 123.5 -26t97.5 -72v86h413v-99h-278v-189h245v-96h-245v-207h306v-99h-441zM392 87q48 0 87.5 19.5t68.5 54t45 81.5t16 103 t-16 103t-45 81.5t-68.5 53.5t-87.5 19t-87.5 -19t-68.5 -53.5t-45 -81.5t-16 -103t16 -103t45 -81.5t68.5 -54t87.5 -19.5z"/>
            <glyph glyph-name="oe" unicode="œ" horiz-adv-x="923" d="M309 85q33 0 56.5 14t39.5 37.5t23.5 54.5t7.5 64q0 34 -8.5 65t-24.5 54t-39.5 36.5t-54.5 13.5t-54.5 -13.5t-40 -36.5t-25 -54t-8.5 -65q0 -33 7.5 -64t23.5 -54.5t40 -37.5t57 -14zM764 307q-1 60 -25.5 89.5t-63.5 29.5q-43 0 -72.5 -31.5t-36.5 -87.5h198zM877 37 q-24 -18 -73.5 -33.5t-109.5 -15.5q-70 0 -120.5 25.5t-79.5 71.5q-31 -45 -79.5 -71t-110.5 -26q-56 0 -104 19t-83 54t-55 84t-20 110t20 110.5t55 84t83 53.5t104 19q65 0 114 -26.5t80 -71.5q29 46 74 72t104 26q40 0 78 -12.5t68 -40t48 -71.5t18 -108v-57h-323 q5 -71 45 -109t106 -38q41 0 73.5 12t48.5 22z"/>
            <glyph glyph-name="Racute" unicode="Ŕ" horiz-adv-x="593" d="M433 0l-146 277h-77v-277h-135v690h239q119 0 176.5 -55t57.5 -150q0 -38 -11 -68t-29.5 -53.5t-43 -39.5t-51.5 -25l168 -299h-148zM300 371q24 0 44.5 6.5t36 20t24.5 35t9 50.5q0 50 -28.5 79t-82.5 29h-93v-220h90zM207 748l50 122h128l-76 -122h-102z"/>
            <glyph glyph-name="racute" unicode="ŕ" horiz-adv-x="370" d="M68 0v510h126v-93q25 44 69.5 74.5t95.5 30.5v-126q-6 1 -16 1h-17q-35 0 -68.5 -15.5t-57.5 -39.5v-342h-132zM96 568l50 122h128l-76 -122h-102z"/>
            <glyph glyph-name="Rcommaaccent" unicode="Ŗ" horiz-adv-x="593" d="M433 0l-146 277h-77v-277h-135v690h239q119 0 176.5 -55t57.5 -150q0 -38 -11 -68t-29.5 -53.5t-43 -39.5t-51.5 -25l168 -299h-148zM300 371q24 0 44.5 6.5t36 20t24.5 35t9 50.5q0 50 -28.5 79t-82.5 29h-93v-220h90zM240 -254l50 91h-50v112h118v-112l-61 -91h-57z "/>
            <glyph glyph-name="rcommaaccent" unicode="ŗ" horiz-adv-x="370" d="M68 0v510h126v-93q25 44 69.5 74.5t95.5 30.5v-126q-6 1 -16 1h-17q-35 0 -68.5 -15.5t-57.5 -39.5v-342h-132zM76 -254l50 91h-50v112h118v-112l-61 -91h-57z"/>
            <glyph glyph-name="Rcaron" unicode="Ř" horiz-adv-x="593" d="M433 0l-146 277h-77v-277h-135v690h239q119 0 176.5 -55t57.5 -150q0 -38 -11 -68t-29.5 -53.5t-43 -39.5t-51.5 -25l168 -299h-148zM300 371q24 0 44.5 6.5t36 20t24.5 35t9 50.5q0 50 -28.5 79t-82.5 29h-93v-220h90zM231 748l-75 122h79l62 -66l61 66h79l-77 -122 h-129z"/>
            <glyph glyph-name="rcaron" unicode="ř" horiz-adv-x="370" d="M68 0v510h126v-93q25 44 69.5 74.5t95.5 30.5v-126q-6 1 -16 1h-17q-35 0 -68.5 -15.5t-57.5 -39.5v-342h-132zM119 568l-75 122h79l62 -66l61 66h79l-77 -122h-129z"/>
            <glyph glyph-name="Sacute" unicode="Ś" horiz-adv-x="518" d="M90 137q26 -17 68 -30.5t83 -13.5q47 0 78 20.5t31 64.5q0 31 -23.5 53t-58.5 41.5t-76 39t-76 46.5t-58.5 63.5t-23.5 89.5q0 43 19 78.5t51.5 60.5t75.5 38.5t91 13.5q58 0 108 -16.5t83 -36.5l-50 -92q-11 6 -26.5 13t-34 13t-38.5 10t-39 4q-45 0 -74 -18t-29 -53 q0 -31 23.5 -52.5t58.5 -40.5t76 -39t76 -47t58.5 -65t23.5 -94q0 -49 -22 -86t-57.5 -62.5t-80 -38.5t-90.5 -13q-66 0 -118.5 16t-91.5 41zM205 748l50 122h128l-76 -122h-102z"/>
            <glyph glyph-name="sacute" unicode="ś" horiz-adv-x="455" d="M72 122q26 -15 60.5 -26.5t72.5 -11.5t62 13t24 39q0 23 -18.5 36.5t-46.5 25t-60 23t-60 29.5t-46.5 45.5t-18.5 70.5q0 39 15.5 68t42.5 48.5t63.5 29.5t78.5 10q51 0 94 -12.5t74 -27.5l-39 -89q-23 11 -56 21.5t-66 10.5q-35 0 -55.5 -13.5t-20.5 -35.5 q0 -21 18.5 -33.5t46 -22.5t59.5 -21t59.5 -29t46 -45.5t18.5 -71.5q0 -41 -16.5 -71.5t-45 -51.5t-66.5 -31.5t-81 -10.5q-48 0 -96.5 12.5t-86.5 32.5zM166 568l50 122h128l-76 -122h-102z"/>
            <glyph glyph-name="Scircumflex" unicode="Ŝ" horiz-adv-x="518" d="M90 137q26 -17 68 -30.5t83 -13.5q47 0 78 20.5t31 64.5q0 31 -23.5 53t-58.5 41.5t-76 39t-76 46.5t-58.5 63.5t-23.5 89.5q0 43 19 78.5t51.5 60.5t75.5 38.5t91 13.5q58 0 108 -16.5t83 -36.5l-50 -92q-11 6 -26.5 13t-34 13t-38.5 10t-39 4q-45 0 -74 -18t-29 -53 q0 -31 23.5 -52.5t58.5 -40.5t76 -39t76 -47t58.5 -65t23.5 -94q0 -49 -22 -86t-57.5 -62.5t-80 -38.5t-90.5 -13q-66 0 -118.5 16t-91.5 41zM326 748l-61 66l-62 -66h-79l75 122h129l77 -122h-79z"/>
            <glyph glyph-name="scircumflex" unicode="ŝ" horiz-adv-x="455" d="M72 122q26 -15 60.5 -26.5t72.5 -11.5t62 13t24 39q0 23 -18.5 36.5t-46.5 25t-60 23t-60 29.5t-46.5 45.5t-18.5 70.5q0 39 15.5 68t42.5 48.5t63.5 29.5t78.5 10q51 0 94 -12.5t74 -27.5l-39 -89q-23 11 -56 21.5t-66 10.5q-35 0 -55.5 -13.5t-20.5 -35.5 q0 -21 18.5 -33.5t46 -22.5t59.5 -21t59.5 -29t46 -45.5t18.5 -71.5q0 -41 -16.5 -71.5t-45 -51.5t-66.5 -31.5t-81 -10.5q-48 0 -96.5 12.5t-86.5 32.5zM288 568l-61 66l-62 -66h-79l75 122h129l77 -122h-79z"/>
            <glyph glyph-name="Scedilla" unicode="Ş" horiz-adv-x="518" d="M175 -152q11 -7 28 -12.5t34 -5.5q20 0 33.5 8.5t13.5 27.5q0 20 -21 29t-54 9h-40q1 3 7.5 13t15.5 22.5t18 26l15 22.5q-62 2 -111.5 17.5t-86.5 39.5l63 92q26 -17 68 -30.5t83 -13.5q47 0 78 20.5t31 64.5q0 31 -23.5 53t-58.5 41.5t-76 39t-76 46.5t-58.5 63.5 t-23.5 89.5q0 43 19 78.5t51.5 60.5t75.5 38.5t91 13.5q58 0 108 -16.5t83 -36.5l-50 -92q-11 6 -26.5 13t-34 13t-38.5 10t-39 4q-45 0 -74 -18t-29 -53q0 -31 23.5 -52.5t58.5 -40.5t76 -39t76 -47t58.5 -65t23.5 -94q0 -41 -15.5 -73.5t-41.5 -57t-60.5 -40.5t-71.5 -23 l-31 -44q17 -1 34.5 -5.5t31.5 -13.5t22.5 -24t8.5 -36q0 -25 -11 -42.5t-28.5 -28.5t-39 -16t-41.5 -5q-28 0 -54 7.5t-37 15.5z"/>
            <glyph glyph-name="scedilla" unicode="ş" horiz-adv-x="455" d="M144 -152q11 -7 28 -12.5t34 -5.5q20 0 33.5 8.5t13.5 27.5q0 20 -21 29t-54 9h-40q1 3 7.5 13t15.5 23t18 26.5l15 22.5q-45 2 -88 13.5t-78 30.5l44 89q26 -15 60.5 -26.5t72.5 -11.5t62 13t24 39q0 23 -18.5 36.5t-46.5 25t-60 23t-60 29.5t-46.5 45.5t-18.5 70.5 q0 39 15.5 68t42.5 48.5t63.5 29.5t78.5 10q51 0 94 -12.5t74 -27.5l-39 -89q-23 11 -56 21.5t-66 10.5q-35 0 -55.5 -13.5t-20.5 -35.5q0 -21 18.5 -33.5t46 -22.5t59.5 -21t59.5 -29t46 -45.5t18.5 -71.5q0 -34 -11.5 -61t-32 -47t-48.5 -33t-61 -19l-31 -43 q17 -1 34.5 -5.5t31.5 -13.5t22.5 -24t8.5 -36q0 -25 -11 -42.5t-28.5 -28.5t-39 -16t-41.5 -5q-28 0 -54 7.5t-37 15.5z"/>
            <glyph glyph-name="Scaron" unicode="Š" horiz-adv-x="513" d="M89 137q26 -17 68 -30.5t83 -13.5q47 0 78 20.5t31 64.5q0 31 -23.5 53t-58.5 41.5t-76 39t-76 46.5t-58.5 63.5t-23.5 89.5q0 43 19 78.5t51.5 60.5t75.5 38.5t91 13.5q58 0 108 -16.5t83 -36.5l-50 -92q-11 6 -26.5 13t-34 13t-38.5 10t-39 4q-45 0 -74 -18t-29 -53 q0 -31 23.5 -52.5t58.5 -40.5t76 -39t76 -47t58.5 -65t23.5 -94q0 -49 -22 -86t-57.5 -62.5t-80 -38.5t-90.5 -13q-66 0 -118.5 16t-91.5 41zM190 748l-75 122h79l62 -66l61 66h79l-77 -122h-129z"/>
            <glyph glyph-name="scaron" unicode="š" horiz-adv-x="450" d="M71 122q26 -15 60.5 -26.5t72.5 -11.5t62 13t24 39q0 23 -18.5 36.5t-46.5 25t-60 23t-60 29.5t-46.5 45.5t-18.5 70.5q0 39 15.5 68t42.5 48.5t63.5 29.5t78.5 10q51 0 94 -12.5t74 -27.5l-39 -89q-23 11 -56 21.5t-66 10.5q-35 0 -55.5 -13.5t-20.5 -35.5 q0 -21 18.5 -33.5t46 -22.5t59.5 -21t59.5 -29t46 -45.5t18.5 -71.5q0 -41 -16.5 -71.5t-45 -51.5t-66.5 -31.5t-81 -10.5q-48 0 -96.5 12.5t-86.5 32.5zM158 568l-75 122h79l62 -66l61 66h79l-77 -122h-129z"/>
            <glyph glyph-name="Tcommaaccent" unicode="Ţ" horiz-adv-x="537" d="M200 0v591h-186v99h508v-99h-186v-591h-136zM212 -254l50 91h-50v112h118v-112l-61 -91h-57z"/>
            <glyph glyph-name="tcommaaccent" unicode="ţ" horiz-adv-x="385" d="M259 0q-8 0 -23.5 -0.5t-33.5 2t-36.5 9.5t-33.5 22.5t-24.5 41t-9.5 64.5v280h-84v91h84v100l131 55v-155h112v-91h-112v-256q0 -38 13 -55.5t47 -17.5h51v-90h-81zM136 -254l50 91h-50v112h118v-112l-61 -91h-57z"/>
            <glyph glyph-name="Tcaron" unicode="Ť" horiz-adv-x="537" d="M200 0v591h-186v99h508v-99h-186v-591h-136zM203 748l-75 122h79l62 -66l61 66h79l-77 -122h-129z"/>
            <glyph glyph-name="tcaron" unicode="ť" horiz-adv-x="362" d="M259 0q-8 0 -23.5 -0.5t-33.5 2t-36.5 9.5t-33.5 22.5t-24.5 41t-9.5 64.5v280h-84v91h84v100l131 55v-155h112v-91h-112v-256q0 -38 13 -55.5t47 -17.5h51v-90h-81zM278 559v195h100v-195h-100z"/>
            <glyph glyph-name="Tbar" unicode="Ŧ" horiz-adv-x="537" d="M200 0v301h-87v95h87v195h-186v99h508v-99h-186v-195h87v-95h-87v-301h-136z"/>
            <glyph glyph-name="tbar" unicode="ŧ" horiz-adv-x="362" d="M259 0q-8 0 -23.5 -0.5t-33.5 2t-36.5 9.5t-33.5 22.5t-24.5 41t-9.5 64.5v80h-84v91h84v109h-84v91h84v100l131 55v-155h112v-91h-112v-109h112v-91h-112v-56q0 -38 13 -55.5t47 -17.5h51v-90h-81z"/>
            <glyph glyph-name="Utilde" unicode="Ũ" horiz-adv-x="691" d="M482 690h136v-489q0 -54 -21.5 -94t-59 -66.5t-87 -39.5t-105.5 -13t-105 13t-86.5 39t-59 66.5t-21.5 94.5v489h136v-497q0 -27 11 -47t29.5 -33t43.5 -19.5t52 -6.5q28 0 52.5 6.5t43.5 19.5t30 33t11 47v497zM490 848q-2 -7 -8.5 -20.5t-18 -27t-27.5 -24t-37 -10.5 q-17 0 -33.5 5t-31.5 11.5t-28 11.5t-23 5q-15 0 -25.5 -9t-16.5 -24l-40 24q2 7 8.5 20t18 26t27.5 23t37 10q16 0 31.5 -4.5t30 -10.5t28 -10.5t26.5 -4.5q14 0 24.5 9t16.5 24z"/>
            <glyph glyph-name="utilde" unicode="ũ" horiz-adv-x="589" d="M391 0v62q-14 -11 -31 -24t-38 -24t-46 -18.5t-54 -7.5q-26 0 -53 7t-49.5 26t-37 51t-14.5 82v356h132v-353q0 -32 17.5 -50t49.5 -18t65.5 15.5t56.5 35.5v370h131v-510h-129zM441 668q-2 -7 -8.5 -20.5t-18 -27t-27.5 -24t-37 -10.5q-17 0 -33.5 5t-31.5 11.5 t-28 11.5t-23 5q-15 0 -25.5 -9t-16.5 -24l-40 24q2 7 8.5 20t18 26t27.5 23t37 10q16 0 31.5 -4.5t30 -10.5t28 -10.5t26.5 -4.5q14 0 24.5 9t16.5 24z"/>
            <glyph glyph-name="Umacron" unicode="Ū" horiz-adv-x="691" d="M482 690h136v-489q0 -54 -21.5 -94t-59 -66.5t-87 -39.5t-105.5 -13t-105 13t-86.5 39t-59 66.5t-21.5 94.5v489h136v-497q0 -27 11 -47t29.5 -33t43.5 -19.5t52 -6.5q28 0 52.5 6.5t43.5 19.5t30 33t11 47v497zM215 779v83h260v-83h-260z"/>
            <glyph glyph-name="umacron" unicode="ū" horiz-adv-x="589" d="M391 0v62q-14 -11 -31 -24t-38 -24t-46 -18.5t-54 -7.5q-26 0 -53 7t-49.5 26t-37 51t-14.5 82v356h132v-353q0 -32 17.5 -50t49.5 -18t65.5 15.5t56.5 35.5v370h131v-510h-129zM167 599v83h260v-83h-260z"/>
            <glyph glyph-name="Ubreve" unicode="Ŭ" horiz-adv-x="691" d="M482 690h136v-489q0 -54 -21.5 -94t-59 -66.5t-87 -39.5t-105.5 -13t-105 13t-86.5 39t-59 66.5t-21.5 94.5v489h136v-497q0 -27 11 -47t29.5 -33t43.5 -19.5t52 -6.5q28 0 52.5 6.5t43.5 19.5t30 33t11 47v497zM487 870q0 -57 -39.5 -90.5t-102.5 -33.5t-102 33.5 t-39 90.5h76q2 -27 19.5 -42t45.5 -15t45.5 15t19.5 42h77z"/>
            <glyph glyph-name="ubreve" unicode="ŭ" horiz-adv-x="589" d="M391 0v62q-14 -11 -31 -24t-38 -24t-46 -18.5t-54 -7.5q-26 0 -53 7t-49.5 26t-37 51t-14.5 82v356h132v-353q0 -32 17.5 -50t49.5 -18t65.5 15.5t56.5 35.5v370h131v-510h-129zM438 690q0 -57 -39.5 -90.5t-102.5 -33.5t-102 33.5t-39 90.5h76q2 -27 19.5 -42t45.5 -15 t45.5 15t19.5 42h77z"/>
            <glyph glyph-name="Uring" unicode="Ů" horiz-adv-x="691" d="M482 690h136v-489q0 -54 -21.5 -94t-59 -66.5t-87 -39.5t-105.5 -13t-105 13t-86.5 39t-59 66.5t-21.5 94.5v489h136v-497q0 -27 11 -47t29.5 -33t43.5 -19.5t52 -6.5q28 0 52.5 6.5t43.5 19.5t30 33t11 47v497zM345 739q-22 0 -42 8.5t-35 23.5t-23.5 34.5t-8.5 41.5 t8.5 41.5t23.5 34t35 23t42 8.5t41.5 -8.5t34.5 -23t23.5 -34t8.5 -41.5t-8.5 -41.5t-23.5 -34.5t-34.5 -23.5t-41.5 -8.5zM345 790q23 0 39 17t16 40t-16 39.5t-39 16.5t-39.5 -16.5t-16.5 -39.5t16.5 -40t39.5 -17z"/>
            <glyph glyph-name="uring" unicode="ů" horiz-adv-x="589" d="M391 0v62q-14 -11 -31 -24t-38 -24t-46 -18.5t-54 -7.5q-26 0 -53 7t-49.5 26t-37 51t-14.5 82v356h132v-353q0 -32 17.5 -50t49.5 -18t65.5 15.5t56.5 35.5v370h131v-510h-129zM297 559q-22 0 -42 8.5t-35 23.5t-23.5 34.5t-8.5 41.5t8.5 41.5t23.5 34t35 23t42 8.5 t41.5 -8.5t34.5 -23t23.5 -34t8.5 -41.5t-8.5 -41.5t-23.5 -34.5t-34.5 -23.5t-41.5 -8.5zM297 610q23 0 39 17t16 40t-16 39.5t-39 16.5t-39.5 -16.5t-16.5 -39.5t16.5 -40t39.5 -17z"/>
            <glyph glyph-name="Uhungarumlaut" unicode="Ű" horiz-adv-x="691" d="M482 690h136v-489q0 -54 -21.5 -94t-59 -66.5t-87 -39.5t-105.5 -13t-105 13t-86.5 39t-59 66.5t-21.5 94.5v489h136v-497q0 -27 11 -47t29.5 -33t43.5 -19.5t52 -6.5q28 0 52.5 6.5t43.5 19.5t30 33t11 47v497zM191 748l50 122h102l-65 -122h-87zM346 748l50 122h103 l-65 -122h-88z"/>
            <glyph glyph-name="uhungarumlaut" unicode="ű" horiz-adv-x="589" d="M391 0v62q-14 -11 -31 -24t-38 -24t-46 -18.5t-54 -7.5q-26 0 -53 7t-49.5 26t-37 51t-14.5 82v356h132v-353q0 -32 17.5 -50t49.5 -18t65.5 15.5t56.5 35.5v370h131v-510h-129zM143 568l50 122h102l-65 -122h-87zM298 568l50 122h103l-65 -122h-88z"/>
            <glyph glyph-name="Uogonek" unicode="Ų" horiz-adv-x="691" d="M415 -200q-11 -4 -28.5 -6.5t-28.5 -2.5q-49 0 -74.5 21.5t-25.5 50.5q0 19 6 37.5t15 34.5t20 29.5t21 24.5q-52 4 -97 18t-78.5 40t-52.5 64t-19 90v489h136v-497q0 -27 11 -47t29.5 -33t43.5 -19.5t52 -6.5q28 0 52.5 6.5t43.5 19.5t30 33t11 47v497h136v-489 q0 -46 -16 -82t-44 -62t-66.5 -42t-83.5 -22q-24 -29 -40.5 -58.5t-16.5 -51.5q0 -16 10 -23.5t26 -7.5q5 0 13 1t15 3v-56z"/>
            <glyph glyph-name="uogonek" unicode="ų" horiz-adv-x="589" d="M520 -200q-11 -4 -28 -6t-28 -2q-50 0 -75 21t-25 50q0 22 7.5 42.5t18.5 38t23.5 32t21.5 24.5h-44v62q-14 -11 -31 -24t-38 -24t-46 -18.5t-54 -7.5q-26 0 -53 7t-49.5 26t-37 51t-14.5 82v356h132v-353q0 -32 17.5 -50t49.5 -18t65.5 15.5t56.5 35.5v370h131v-510 q-27 -29 -45 -61.5t-18 -55.5q0 -16 10 -23t26 -7q5 0 12.5 1t14.5 3v-57z"/>
            <glyph glyph-name="Wcircumflex" unicode="Ŵ" horiz-adv-x="991" d="M623 0l-128 518l-132 -518h-163l-185 690h133l134 -569l139 569h148l140 -569l134 569h133l-187 -690h-166zM557 748l-61 66l-62 -66h-79l75 122h129l77 -122h-79z"/>
            <glyph glyph-name="wcircumflex" unicode="ŵ" horiz-adv-x="813" d="M517 0q-29 93 -56.5 184.5t-55.5 184.5l-108 -369h-128l-153 510h129q23 -92 46.5 -183.5t47.5 -183.5l104 367h132q26 -93 51.5 -184t51.5 -184l100 368h120l-153 -510h-128zM467 568l-61 66l-62 -66h-79l75 122h129l77 -122h-79z"/>
            <glyph glyph-name="Ycircumflex" unicode="Ŷ" horiz-adv-x="600" d="M232 0v275l-221 415h142l150 -296l152 296h133l-221 -415v-275h-135zM361 748l-61 66l-62 -66h-79l75 122h129l77 -122h-79z"/>
            <glyph glyph-name="ycircumflex" unicode="ŷ" horiz-adv-x="536" d="M143 -215q20 54 41 107.5t42 107.5h-42q-42 128 -84 255t-85 255h135l115 -403l126 403h133q-65 -183 -128 -363t-128 -362h-125zM327 568l-61 66l-62 -66h-79l75 122h129l77 -122h-79z"/>
            <glyph glyph-name="Ydieresis" unicode="Ÿ" horiz-adv-x="595" d="M231 0v275l-221 415h142l150 -296l152 296h133l-221 -415v-275h-135zM140 750v120h119v-120h-119zM336 750v120h119v-120h-119z"/>
            <glyph glyph-name="Zacute" unicode="Ź" horiz-adv-x="563" d="M37 0v91l331 500h-317v99h470v-91l-332 -500h345v-99h-497zM192 748l50 122h128l-76 -122h-102z"/>
            <glyph glyph-name="zacute" unicode="ź" horiz-adv-x="473" d="M29 0v88l261 330h-247v92h395v-88l-259 -331h269v-91h-419zM167 568l50 122h128l-76 -122h-102z"/>
            <glyph glyph-name="Zdotaccent" unicode="Ż" horiz-adv-x="563" d="M37 0v91l331 500h-317v99h470v-91l-332 -500h345v-99h-497zM220 763v120h131v-120h-131z"/>
            <glyph glyph-name="zdotaccent" unicode="ż" horiz-adv-x="473" d="M29 0v88l261 330h-247v92h395v-88l-259 -331h269v-91h-419zM175 583v120h131v-120h-131z"/>
            <glyph glyph-name="Zcaron" unicode="Ž" horiz-adv-x="558" d="M36 0v91l331 500h-317v99h470v-91l-332 -500h345v-99h-497zM212 748l-75 122h79l62 -66l61 66h79l-77 -122h-129z"/>
            <glyph glyph-name="zcaron" unicode="ž" horiz-adv-x="468" d="M28 0v88l261 330h-247v92h395v-88l-259 -331h269v-91h-419zM167 568l-75 122h79l62 -66l61 66h79l-77 -122h-129z"/>
            <glyph glyph-name="longs" unicode="ſ" horiz-adv-x="324" d="M98 0v561q0 89 47 141t141 52q37 0 70.5 -10t50.5 -20l-31 -83q-14 5 -33 9.5t-42 4.5q-39 0 -55.5 -24t-16.5 -66v-565h-131z"/>
            <glyph glyph-name="florin" unicode="ƒ" d="M212 288h-101v97h101v84q0 52 10 94.5t32.5 72.5t58 46t87.5 16q37 0 70.5 -10t50.5 -20l-31 -83q-14 6 -33 10.5t-42 4.5q-37 0 -54.5 -25t-17.5 -65v-125h118v-97h-118v-305q0 -101 -43 -158t-145 -57q-37 0 -70.5 10t-51.5 20l32 83q14 -6 32.5 -10.5t41.5 -4.5 q38 0 55.5 25t17.5 65v332z"/>
            <glyph glyph-name="Scommaaccent" unicode="Ș" horiz-adv-x="518" d="M90 137q26 -17 68 -30.5t83 -13.5q47 0 78 20.5t31 64.5q0 31 -23.5 53t-58.5 41.5t-76 39t-76 46.5t-58.5 63.5t-23.5 89.5q0 43 19 78.5t51.5 60.5t75.5 38.5t91 13.5q58 0 108 -16.5t83 -36.5l-50 -92q-11 6 -26.5 13t-34 13t-38.5 10t-39 4q-45 0 -74 -18t-29 -53 q0 -31 23.5 -52.5t58.5 -40.5t76 -39t76 -47t58.5 -65t23.5 -94q0 -49 -22 -86t-57.5 -62.5t-80 -38.5t-90.5 -13q-66 0 -118.5 16t-91.5 41zM202 -254l50 91h-50v112h118v-112l-61 -91h-57z"/>
            <glyph glyph-name="scommaaccent" unicode="ș" horiz-adv-x="455" d="M72 122q26 -15 60.5 -26.5t72.5 -11.5t62 13t24 39q0 23 -18.5 36.5t-46.5 25t-60 23t-60 29.5t-46.5 45.5t-18.5 70.5q0 39 15.5 68t42.5 48.5t63.5 29.5t78.5 10q51 0 94 -12.5t74 -27.5l-39 -89q-23 11 -56 21.5t-66 10.5q-35 0 -55.5 -13.5t-20.5 -35.5 q0 -21 18.5 -33.5t46 -22.5t59.5 -21t59.5 -29t46 -45.5t18.5 -71.5q0 -41 -16.5 -71.5t-45 -51.5t-66.5 -31.5t-81 -10.5q-48 0 -96.5 12.5t-86.5 32.5zM171 -254l50 91h-50v112h118v-112l-61 -91h-57z"/>
            <glyph glyph-name="uni021A" unicode="Ț" horiz-adv-x="537" d="M200 0v591h-186v99h508v-99h-186v-591h-136zM212 -254l50 91h-50v112h118v-112l-61 -91h-57z"/>
            <glyph glyph-name="uni021B" unicode="ț" horiz-adv-x="385" d="M259 0q-8 0 -23.5 -0.5t-33.5 2t-36.5 9.5t-33.5 22.5t-24.5 41t-9.5 64.5v280h-84v91h84v100l131 55v-155h112v-91h-112v-256q0 -38 13 -55.5t47 -17.5h51v-90h-81zM136 -254l50 91h-50v112h118v-112l-61 -91h-57z"/>
            <glyph glyph-name="dotlessj" unicode="ȷ" horiz-adv-x="256" d="M-11 -154q18 16 32.5 32.5t25 38.5t16 51.5t5.5 70.5v471h132v-472q0 -59 -11 -100.5t-28 -71.5t-39 -50.5t-44 -37.5z"/>
            <glyph glyph-name="apostrophe" unicode="ʼ" horiz-adv-x="183" d="M33 487l50 91h-50v112h118v-112l-61 -91h-57z"/>
            <glyph glyph-name="circumflex" unicode="ˆ" horiz-adv-x="316" d="M219 568l-61 66l-62 -66h-79l75 122h129l77 -122h-79z"/>
            <glyph glyph-name="caron" unicode="ˇ" horiz-adv-x="316" d="M92 568l-75 122h79l62 -66l61 66h79l-77 -122h-129z"/>
            <glyph glyph-name="breve" unicode="˘" horiz-adv-x="303" d="M293 690q0 -57 -39.5 -90.5t-102.5 -33.5t-102 33.5t-39 90.5h76q2 -27 19.5 -42t45.5 -15t45.5 15t19.5 42h77z"/>
            <glyph glyph-name="dotaccent" unicode="˙" horiz-adv-x="260" d="M69 583v120h131v-120h-131z"/>
            <glyph glyph-name="ring" unicode="˚" horiz-adv-x="286" d="M143 559q-22 0 -42 8.5t-35 23.5t-23.5 34.5t-8.5 41.5t8.5 41.5t23.5 34t35 23t42 8.5t41.5 -8.5t34.5 -23t23.5 -34t8.5 -41.5t-8.5 -41.5t-23.5 -34.5t-34.5 -23.5t-41.5 -8.5zM143 610q23 0 39 17t16 40t-16 39.5t-39 16.5t-39.5 -16.5t-16.5 -39.5t16.5 -40 t39.5 -17z"/>
            <glyph glyph-name="ogonek" unicode="˛" horiz-adv-x="216" d="M186 -200q-11 -4 -28 -6t-28 -2q-50 0 -75 21t-25 50q0 22 7.5 42.5t18.5 38t23.5 32t21.5 24.5h85q-27 -29 -45 -61.5t-18 -55.5q0 -16 10 -23t26 -7q5 0 12.5 1t14.5 3v-57z"/>
            <glyph glyph-name="tilde" unicode="˜" horiz-adv-x="329" d="M309 668q-2 -7 -8.5 -20.5t-18 -27t-27.5 -24t-37 -10.5q-17 0 -33.5 5t-31.5 11.5t-28 11.5t-23 5q-15 0 -25.5 -9t-16.5 -24l-40 24q2 7 8.5 20t18 26t27.5 23t37 10q16 0 31.5 -4.5t30 -10.5t28 -10.5t26.5 -4.5q14 0 24.5 9t16.5 24z"/>
            <glyph glyph-name="hungarumlaut" unicode="˝" horiz-adv-x="368" d="M30 568l50 122h102l-65 -122h-87zM185 568l50 122h103l-65 -122h-88z"/>
            <glyph glyph-name="pi" unicode="π" horiz-adv-x="645" d="M630 -2q-7 -2 -19.5 -4t-26.5 -3t-27.5 -1.5t-21.5 -0.5q-64 0 -104 34t-40 109v286h-146v-418h-136v418h-93v92h614v-92h-103v-270q0 -32 11.5 -52t43.5 -20q12 0 25 2t23 6v-86z"/>
            <glyph glyph-name="Wgrave" unicode="Ẁ" horiz-adv-x="991" d="M623 0l-128 518l-132 -518h-163l-185 690h133l134 -569l139 569h148l140 -569l134 569h133l-187 -690h-166zM482 748l-76 122h128l50 -122h-102z"/>
            <glyph glyph-name="wgrave" unicode="ẁ" horiz-adv-x="813" d="M517 0q-29 93 -56.5 184.5t-55.5 184.5l-108 -369h-128l-153 510h129q23 -92 46.5 -183.5t47.5 -183.5l104 367h132q26 -93 51.5 -184t51.5 -184l100 368h120l-153 -510h-128zM393 568l-76 122h128l50 -122h-102z"/>
            <glyph glyph-name="Wacute" unicode="Ẃ" horiz-adv-x="991" d="M623 0l-128 518l-132 -518h-163l-185 690h133l134 -569l139 569h148l140 -569l134 569h133l-187 -690h-166zM406 748l50 122h128l-76 -122h-102z"/>
            <glyph glyph-name="wacute" unicode="ẃ" horiz-adv-x="813" d="M517 0q-29 93 -56.5 184.5t-55.5 184.5l-108 -369h-128l-153 510h129q23 -92 46.5 -183.5t47.5 -183.5l104 367h132q26 -93 51.5 -184t51.5 -184l100 368h120l-153 -510h-128zM317 568l50 122h128l-76 -122h-102z"/>
            <glyph glyph-name="Wdieresis" unicode="Ẅ" horiz-adv-x="991" d="M623 0l-128 518l-132 -518h-163l-185 690h133l134 -569l139 569h148l140 -569l134 569h133l-187 -690h-166zM338 750v120h119v-120h-119zM534 750v120h119v-120h-119z"/>
            <glyph glyph-name="wdieresis" unicode="ẅ" horiz-adv-x="813" d="M517 0q-29 93 -56.5 184.5t-55.5 184.5l-108 -369h-128l-153 510h129q23 -92 46.5 -183.5t47.5 -183.5l104 367h132q26 -93 51.5 -184t51.5 -184l100 368h120l-153 -510h-128zM249 570v120h119v-120h-119zM445 570v120h119v-120h-119z"/>
            <glyph glyph-name="Ygrave" unicode="Ỳ" horiz-adv-x="600" d="M232 0v275l-221 415h142l150 -296l152 296h133l-221 -415v-275h-135zM251 748l-76 122h128l50 -122h-102z"/>
            <glyph glyph-name="ygrave" unicode="ỳ" horiz-adv-x="536" d="M143 -215q20 54 41 107.5t42 107.5h-42q-42 128 -84 255t-85 255h135l115 -403l126 403h133q-65 -183 -128 -363t-128 -362h-125zM253 568l-76 122h128l50 -122h-102z"/>
            <glyph glyph-name="endash" unicode="–" horiz-adv-x="500" d="M0 241v90h500v-90h-500z"/>
            <glyph glyph-name="emdash" unicode="—" horiz-adv-x="1000" d="M0 241v90h1000v-90h-1000z"/>
            <glyph glyph-name="quoteleft" unicode="‘" horiz-adv-x="207" d="M40 447v117l64 126h60l-53 -126h53v-117h-124z"/>
            <glyph glyph-name="quoteright" unicode="’" horiz-adv-x="207" d="M39 447l53 126h-53v117h124v-117l-64 -126h-60z"/>
            <glyph glyph-name="quotesinglbase" unicode="‚" horiz-adv-x="207" d="M39 -126l53 126h-53v117h124v-117l-64 -126h-60z"/>
            <glyph glyph-name="quotedblleft" unicode="“" horiz-adv-x="379" d="M40 447v117l64 126h60l-53 -126h53v-117h-124zM210 447v117l64 126h60l-53 -126h53v-117h-124z"/>
            <glyph glyph-name="quotedblright" unicode="”" horiz-adv-x="379" d="M39 447l53 126h-53v117h124v-117l-64 -126h-60zM209 447l53 126h-53v117h124v-117l-64 -126h-60z"/>
            <glyph glyph-name="quotedblbase" unicode="„" horiz-adv-x="379" d="M39 -126l53 126h-53v117h124v-117l-64 -126h-60zM209 -126l53 126h-53v117h124v-117l-64 -126h-60z"/>
            <glyph glyph-name="dagger" unicode="†" horiz-adv-x="494" d="M181 -147v561h-169l15 96h154v180h131v-180h154l15 -96h-169v-561h-131z"/>
            <glyph glyph-name="daggerdbl" unicode="‡" horiz-adv-x="494" d="M181 -147v182h-154l-15 96h169v283h-169l15 96h154v180h131v-180h154l15 -96h-169v-283h169l-15 -96h-154v-182h-131z"/>
            <glyph glyph-name="bullet" unicode="•" horiz-adv-x="475" d="M238 145q-37 0 -69.5 14t-56.5 38t-38 56.5t-14 69.5t14 69t38 56t56 38t69 14t69.5 -14t56.5 -38t38 -56t14 -69t-14 -69.5t-38 -56.5t-56 -38t-69 -14z"/>
            <glyph glyph-name="ellipsis" unicode="…" horiz-adv-x="699" d="M50 0v125h132v-125h-132zM283 0v125h132v-125h-132zM516 0v125h132v-125h-132z"/>
            <glyph glyph-name="perthousand" unicode="‰" horiz-adv-x="1240" d="M152 0l391 614h-185q15 -20 23.5 -44t8.5 -51q0 -35 -14 -66t-38 -54t-56.5 -36.5t-68.5 -13.5q-37 0 -69 13.5t-56 36.5t-38 54t-14 66t13.5 66t37.5 54.5t56 37t68 13.5h490l-442 -690h-107zM213 436q34 0 56.5 24t22.5 59t-22.5 59t-56.5 24q-35 0 -57.5 -24 t-22.5 -59t22.5 -59t57.5 -24zM810 158q0 -36 -14 -67t-38 -54t-56 -36t-69 -13q-36 0 -68.5 13t-56.5 36t-38 54t-14 67t14 67t38 54t56.5 36.5t68.5 13.5q37 0 69 -13.5t56 -36.5t38 -54t14 -67zM633 75q35 0 57.5 24t22.5 59t-22.5 59t-57.5 24t-57 -24t-22 -59t22 -59 t57 -24zM1204 158q0 -36 -14 -67t-38 -54t-56 -36t-69 -13t-69 13t-56 36t-38 54t-14 67t14 67t38 54t56 36.5t69 13.5t69 -13.5t56 -36.5t38 -54t14 -67zM1027 75q34 0 56.5 24t22.5 59t-22.5 59t-56.5 24q-35 0 -57.5 -24t-22.5 -59t22.5 -59t57.5 -24z"/>
            <glyph glyph-name="guilsinglleft" unicode="‹" horiz-adv-x="309" d="M154 78l-120 185l120 186h117l-118 -186l118 -185h-117z"/>
            <glyph glyph-name="guilsinglright" unicode="›" horiz-adv-x="309" d="M37 78l118 185l-118 186h117l120 -186l-120 -185h-117z"/>
            <glyph glyph-name="fraction" unicode="⁄" horiz-adv-x="120" d="M-179 0l380 690h99l-381 -690h-98z"/>
            <glyph glyph-name="zero.sups" unicode="⁰" horiz-adv-x="380" d="M190 428q32 0 49 38t17 102q0 66 -17.5 106t-49.5 40t-49 -41t-17 -105t17 -102t50 -38zM190 356q-40 0 -72 15.5t-54.5 43.5t-35 67.5t-12.5 86.5t12.5 87t35 69t54.5 45t72 16t72 -16t54.5 -45t34.5 -69t12 -87q0 -48 -12.5 -87t-35 -67t-54.5 -43.5t-71 -15.5z"/>
            <glyph glyph-name="four.sups" unicode="⁴" horiz-adv-x="380" d="M218 363v88h-192v87l175 242h119v-256h45v-73h-45v-88h-102zM218 685l-118 -161h118v161z"/>
            <glyph glyph-name="five.sups" unicode="⁵" horiz-adv-x="380" d="M71 459q48 -30 89 -30q16 0 31.5 5t27.5 14t19 22.5t7 31.5q0 31 -20 47.5t-47 16.5q-17 0 -33.5 -6.5t-27.5 -17.5l-66 18l38 220h239v-75h-164l-14 -86q12 5 28.5 8.5t36.5 3.5q28 0 53 -8.5t43.5 -25t29 -39.5t10.5 -53q0 -36 -16 -64t-42 -47t-59.5 -28.5t-67.5 -9.5 q-31 0 -68 8.5t-70 31.5z"/>
            <glyph glyph-name="six.sups" unicode="⁶" horiz-adv-x="380" d="M310 690q-19 11 -41.5 17t-36.5 6t-30 -6.5t-30.5 -18.5t-24.5 -29.5t-13 -39.5q14 6 34.5 11.5t48.5 5.5q61 0 100.5 -31.5t39.5 -95.5q0 -34 -11.5 -62t-32.5 -48.5t-50 -31.5t-63 -11q-36 0 -68 13.5t-55 39.5t-36.5 65t-13.5 89q0 53 15 94.5t42 70t63 43.5t78 15 q31 0 63 -8.5t57 -25.5zM130 558q0 -59 17.5 -94t52.5 -35q28 0 43 20.5t15 52.5q0 35 -18 53t-49 18q-18 0 -33.5 -5t-27.5 -10z"/>
            <glyph glyph-name="seven.sups" unicode="⁷" horiz-adv-x="380" d="M67 363l185 332h-226v85h320v-76l-167 -341h-112z"/>
            <glyph glyph-name="eight.sups" unicode="⁸" horiz-adv-x="380" d="M278 589q39 -19 62.5 -45.5t23.5 -64.5q0 -29 -14 -52t-38 -39t-55.5 -24t-66.5 -8t-65.5 8t-53.5 23t-36.5 36.5t-13.5 48.5q0 40 26 65t59 41q-39 20 -56 44t-17 52q0 24 11.5 44.5t32.5 35.5t50.5 23.5t64.5 8.5q37 0 66 -9t49 -24t31 -34t11 -39q0 -29 -20.5 -52 t-50.5 -39zM178 544q-16 -8 -33.5 -22.5t-17.5 -40.5t19 -40t46 -14t46.5 13t19.5 37q0 23 -17.5 36t-42.5 24zM203 618q17 11 29 24.5t12 31.5q0 20 -15.5 31t-39.5 11q-26 0 -41 -12t-15 -29q0 -31 70 -57z"/>
            <glyph glyph-name="nine.sups" unicode="⁹" horiz-adv-x="380" d="M70 452q20 -11 42.5 -17t37.5 -6t31 6.5t29.5 18.5t23.5 29.5t12 39.5q-15 -6 -34.5 -11t-46.5 -5q-62 0 -101.5 32t-39.5 95q0 31 11 59t31.5 48.5t50 32.5t65.5 12q76 0 123.5 -52.5t47.5 -151.5q0 -53 -14.5 -94.5t-40 -71t-61 -45t-77.5 -15.5q-30 0 -64.5 8.5 t-59.5 25.5zM250 585q0 57 -17 93t-52 36q-28 0 -43 -22t-15 -53q0 -33 18 -50.5t50 -17.5q16 0 31.5 4t27.5 10z"/>
            <glyph glyph-name="zero.sinf" unicode="₀" horiz-adv-x="380" d="M190 -81q32 0 49 38t17 102q0 66 -17.5 106t-49.5 40t-49 -41t-17 -105t17 -102t50 -38zM190 -153q-40 0 -72 15.5t-54.5 43.5t-35 67.5t-12.5 86.5t12.5 87t35 69t54.5 45t72 16t72 -16t54.5 -45t34.5 -69t12 -87q0 -48 -12.5 -87t-35 -67t-54.5 -43.5t-71 -15.5z"/>
            <glyph glyph-name="one.sinf" unicode="₁" horiz-adv-x="380" d="M64 -146v77h87v236l-75 -50l-41 56l126 98h90v-340h70v-77h-257z"/>
            <glyph glyph-name="two.sinf" unicode="₂" horiz-adv-x="380" d="M43 -146v67l137 146q26 28 38.5 48.5t12.5 42.5q0 21 -13.5 33.5t-34.5 12.5q-22 0 -41.5 -15t-31.5 -38l-78 30q22 43 62 70t102 27q31 0 56.5 -9.5t42.5 -25.5t26.5 -37t9.5 -43q0 -30 -18 -62.5t-53 -70.5l-90 -98h165v-78h-292z"/>
            <glyph glyph-name="three.sinf" unicode="₃" horiz-adv-x="380" d="M63 -49q25 -14 49.5 -23t47.5 -9q37 0 63 18.5t26 55.5q0 16 -7.5 27.5t-19.5 19t-26 11t-27 3.5q-14 0 -28 -2.5t-21 -5.5l-29 43l117 109h-165v73h277v-64l-102 -91q28 0 52 -8t42 -22.5t28.5 -36t10.5 -49.5q0 -38 -16 -67t-42 -48t-59.5 -28.5t-67.5 -9.5 q-37 0 -75 10t-70 33z"/>
            <glyph glyph-name="four.sinf" unicode="₄" horiz-adv-x="380" d="M218 -146v88h-192v87l175 242h119v-256h45v-73h-45v-88h-102zM218 176l-118 -161h118v161z"/>
            <glyph glyph-name="five.sinf" unicode="₅" horiz-adv-x="380" d="M71 -50q48 -30 89 -30q16 0 31.5 5t27.5 14t19 22.5t7 31.5q0 31 -20 47.5t-47 16.5q-17 0 -33.5 -6.5t-27.5 -17.5l-66 18l38 220h239v-75h-164l-14 -86q12 5 28.5 8.5t36.5 3.5q28 0 53 -8.5t43.5 -25t29 -39.5t10.5 -53q0 -36 -16 -64t-42 -47t-59.5 -28.5t-67.5 -9.5 q-31 0 -68 8.5t-70 31.5z"/>
            <glyph glyph-name="six.sinf" unicode="₆" horiz-adv-x="380" d="M310 181q-19 11 -41.5 17t-36.5 6t-30 -6.5t-30.5 -18.5t-24.5 -29.5t-13 -39.5q14 6 34.5 11.5t48.5 5.5q61 0 100.5 -31.5t39.5 -95.5q0 -34 -11.5 -62t-32.5 -48.5t-50 -31.5t-63 -11q-36 0 -68 13.5t-55 39.5t-36.5 65t-13.5 89q0 53 15 94.5t42 70t63 43.5t78 15 q31 0 63 -8.5t57 -25.5zM130 49q0 -59 17.5 -94t52.5 -35q28 0 43 20.5t15 52.5q0 35 -18 53t-49 18q-18 0 -33.5 -5t-27.5 -10z"/>
            <glyph glyph-name="seven.sinf" unicode="₇" horiz-adv-x="380" d="M67 -146l185 332h-226v85h320v-76l-167 -341h-112z"/>
            <glyph glyph-name="eight.sinf" unicode="₈" horiz-adv-x="380" d="M278 80q39 -19 62.5 -45.5t23.5 -64.5q0 -29 -14 -52t-38 -39t-55.5 -24t-66.5 -8t-65.5 8t-53.5 23t-36.5 36.5t-13.5 48.5q0 40 26 65t59 41q-39 20 -56 44t-17 52q0 24 11.5 44.5t32.5 35.5t50.5 23.5t64.5 8.5q37 0 66 -9t49 -24t31 -34t11 -39q0 -29 -20.5 -52 t-50.5 -39zM178 35q-16 -8 -33.5 -22.5t-17.5 -40.5t19 -40t46 -14t46.5 13t19.5 37q0 23 -17.5 36t-42.5 24zM203 109q17 11 29 24.5t12 31.5q0 20 -15.5 31t-39.5 11q-26 0 -41 -12t-15 -29q0 -31 70 -57z"/>
            <glyph glyph-name="nine.sinf" unicode="₉" horiz-adv-x="380" d="M70 -57q20 -11 42.5 -17t37.5 -6t31 6.5t29.5 18.5t23.5 29.5t12 39.5q-15 -6 -34.5 -11t-46.5 -5q-62 0 -101.5 32t-39.5 95q0 31 11 59t31.5 48.5t50 32.5t65.5 12q76 0 123.5 -52.5t47.5 -151.5q0 -53 -14.5 -94.5t-40 -71t-61 -45t-77.5 -15.5q-30 0 -64.5 8.5 t-59.5 25.5zM250 76q0 57 -17 93t-52 36q-28 0 -43 -22t-15 -53q0 -33 18 -50.5t50 -17.5q16 0 31.5 4t27.5 10z"/>
            <glyph glyph-name="Euro" unicode="€" d="M556 16q-27 -13 -65 -20t-75 -7q-107 0 -182 60t-104 171h-91v81h79q-1 11 -1 22v22v18.5t1 18.5h-79v80h93q31 112 110.5 175t192.5 63q29 0 59.5 -4.5t56.5 -13.5l-23 -100q-17 8 -41.5 13t-50.5 5q-66 0 -107.5 -37t-60.5 -101h238l-14 -80h-240q-1 -10 -1 -19.5 v-19.5v-21.5t1 -20.5h225l-15 -81h-194q19 -59 59 -95.5t103 -36.5q23 0 47.5 4.5t43.5 10.5z"/>
            <glyph glyph-name="afii61289" unicode="ℓ" horiz-adv-x="446" d="M429 94q-15 -20 -34 -39t-40.5 -34t-46.5 -24t-53 -9q-69 0 -102 41.5t-41 114.5q-2 -1 -9.5 -6.5t-16 -12t-16 -12t-8.5 -6.5l-34 62q5 3 16 11t23.5 17t24 17t16.5 12v194q0 76 8 129.5t26 87.5t46.5 50t68.5 16q58 0 94.5 -43.5t36.5 -134.5q0 -74 -49.5 -157.5 t-140.5 -164.5q0 -26 3.5 -52t11.5 -46.5t21 -33t34 -12.5q16 0 31.5 7.5t29.5 19.5t26.5 27t23.5 29zM198 296q45 54 72.5 110.5t27.5 115.5q0 52 -11.5 80t-33.5 28q-31 0 -43 -44.5t-12 -133.5v-156z"/>
            <glyph glyph-name="trademark" unicode="™" horiz-adv-x="643" d="M536 425l-10 197l-59 -197h-66l-58 197l-11 -197h-65l21 265h92l55 -194l54 194h92l21 -265h-66zM94 425v212h-87v53h241v-53h-81v-212h-73z"/>
            <glyph glyph-name="Omega" unicode="Ω" horiz-adv-x="781" d="M449 0v99q29 17 57.5 43t51 59.5t36 74.5t13.5 88q0 52 -16 96t-44.5 75.5t-68.5 49.5t-88 18t-88 -18t-68.5 -49.5t-44.5 -75.5t-16 -96q0 -47 13.5 -88t36 -74.5t51 -59.5t58.5 -43v-99h-252l-25 94h146q-29 19 -58.5 47t-53 64t-38.5 80t-15 97q0 73 29 132t78 101 t113 64.5t134 22.5t134 -22.5t113 -64.5t78 -101t29 -132q0 -53 -15 -97t-38.5 -80t-53 -64t-58.5 -47h146l-25 -94h-251z"/>
            <glyph glyph-name="estimated" unicode="℮" horiz-adv-x="851" d="M750 128q-54 -66 -133.5 -103t-179.5 -37q-81 0 -153.5 28t-127 77t-86 114t-31.5 140q0 73 31.5 137.5t86 113t127 76.5t153.5 28q84 0 157 -28.5t127 -78t84.5 -116t30.5 -141.5h-640q-9 0 -9 -11v-177q0 -21 12.5 -40t33.5 -34.5t47.5 -28t54.5 -21t54.5 -13 t47.5 -4.5q78 0 143 32.5t113 86.5h57zM688 543q0 11 -4.5 24t-12.5 23q-49 46 -108 70t-126 24q-68 0 -125 -24t-106 -70q-8 -10 -13.5 -23t-5.5 -24v-178q0 -9 9 -9h482q10 0 10 9v178z"/>
            <glyph glyph-name="onethird" unicode="⅓" horiz-adv-x="956" d="M239 0l380 690h99l-381 -690h-98zM64 273v77h87v236l-75 -50l-41 56l126 98h90v-340h70v-77h-257zM617 98q25 -14 49.5 -23t47.5 -9q37 0 63 18.5t26 55.5q0 16 -7.5 27.5t-19.5 19t-26 11t-27 3.5q-14 0 -28 -2.5t-21 -5.5l-29 43l117 109h-165v73h277v-64l-102 -91 q28 0 52 -8t42 -22.5t28.5 -36t10.5 -49.5q0 -38 -16 -67t-42 -48t-59.5 -28.5t-67.5 -9.5q-37 0 -75 10t-70 33z"/>
            <glyph glyph-name="twothirds" unicode="⅔" horiz-adv-x="956" d="M239 0l380 690h99l-381 -690h-98zM43 273v67l137 146q26 28 38.5 48.5t12.5 42.5q0 21 -13.5 33.5t-34.5 12.5q-22 0 -41.5 -15t-31.5 -38l-78 30q22 43 62 70t102 27q31 0 56.5 -9.5t42.5 -25.5t26.5 -37t9.5 -43q0 -30 -18 -62.5t-53 -70.5l-90 -98h165v-78h-292z M617 98q25 -14 49.5 -23t47.5 -9q37 0 63 18.5t26 55.5q0 16 -7.5 27.5t-19.5 19t-26 11t-27 3.5q-14 0 -28 -2.5t-21 -5.5l-29 43l117 109h-165v73h277v-64l-102 -91q28 0 52 -8t42 -22.5t28.5 -36t10.5 -49.5q0 -38 -16 -67t-42 -48t-59.5 -28.5t-67.5 -9.5q-37 0 -75 10 t-70 33z"/>
            <glyph glyph-name="oneeighth" unicode="⅛" horiz-adv-x="956" d="M239 0l380 690h99l-381 -690h-98zM64 273v77h87v236l-75 -50l-41 56l126 98h90v-340h70v-77h-257zM832 227q39 -19 62.5 -45.5t23.5 -64.5q0 -29 -14 -52t-38 -39t-55.5 -24t-66.5 -8t-65.5 8t-53.5 23t-36.5 36.5t-13.5 48.5q0 40 26 65t59 41q-39 20 -56 44t-17 52 q0 24 11.5 44.5t32.5 35.5t50.5 23.5t64.5 8.5q37 0 66 -9t49 -24t31 -34t11 -39q0 -29 -20.5 -52t-50.5 -39zM732 182q-16 -8 -33.5 -22.5t-17.5 -40.5t19 -40t46 -14t46.5 13t19.5 37q0 23 -17.5 36t-42.5 24zM757 256q17 11 29 24.5t12 31.5q0 20 -15.5 31t-39.5 11 q-26 0 -41 -12t-15 -29q0 -31 70 -57z"/>
            <glyph glyph-name="threeeighths" unicode="⅜" horiz-adv-x="956" d="M239 0l380 690h99l-381 -690h-98zM832 227q39 -19 62.5 -45.5t23.5 -64.5q0 -29 -14 -52t-38 -39t-55.5 -24t-66.5 -8t-65.5 8t-53.5 23t-36.5 36.5t-13.5 48.5q0 40 26 65t59 41q-39 20 -56 44t-17 52q0 24 11.5 44.5t32.5 35.5t50.5 23.5t64.5 8.5q37 0 66 -9t49 -24 t31 -34t11 -39q0 -29 -20.5 -52t-50.5 -39zM732 182q-16 -8 -33.5 -22.5t-17.5 -40.5t19 -40t46 -14t46.5 13t19.5 37q0 23 -17.5 36t-42.5 24zM757 256q17 11 29 24.5t12 31.5q0 20 -15.5 31t-39.5 11q-26 0 -41 -12t-15 -29q0 -31 70 -57zM63 370q25 -14 49.5 -23t47.5 -9 q37 0 63 18.5t26 55.5q0 16 -7.5 27.5t-19.5 19t-26 11t-27 3.5q-14 0 -28 -2.5t-21 -5.5l-29 43l117 109h-165v73h277v-64l-102 -91q28 0 52 -8t42 -22.5t28.5 -36t10.5 -49.5q0 -38 -16 -67t-42 -48t-59.5 -28.5t-67.5 -9.5q-37 0 -75 10t-70 33z"/>
            <glyph glyph-name="fiveeighths" unicode="⅝" horiz-adv-x="956" d="M239 0l380 690h99l-381 -690h-98zM71 369q48 -30 89 -30q16 0 31.5 5t27.5 14t19 22.5t7 31.5q0 31 -20 47.5t-47 16.5q-17 0 -33.5 -6.5t-27.5 -17.5l-66 18l38 220h239v-75h-164l-14 -86q12 5 28.5 8.5t36.5 3.5q28 0 53 -8.5t43.5 -25t29 -39.5t10.5 -53 q0 -36 -16 -64t-42 -47t-59.5 -28.5t-67.5 -9.5q-31 0 -68 8.5t-70 31.5zM832 227q39 -19 62.5 -45.5t23.5 -64.5q0 -29 -14 -52t-38 -39t-55.5 -24t-66.5 -8t-65.5 8t-53.5 23t-36.5 36.5t-13.5 48.5q0 40 26 65t59 41q-39 20 -56 44t-17 52q0 24 11.5 44.5t32.5 35.5 t50.5 23.5t64.5 8.5q37 0 66 -9t49 -24t31 -34t11 -39q0 -29 -20.5 -52t-50.5 -39zM732 182q-16 -8 -33.5 -22.5t-17.5 -40.5t19 -40t46 -14t46.5 13t19.5 37q0 23 -17.5 36t-42.5 24zM757 256q17 11 29 24.5t12 31.5q0 20 -15.5 31t-39.5 11q-26 0 -41 -12t-15 -29 q0 -31 70 -57z"/>
            <glyph glyph-name="seveneighths" unicode="⅞" horiz-adv-x="956" d="M239 0l380 690h99l-381 -690h-98zM832 227q39 -19 62.5 -45.5t23.5 -64.5q0 -29 -14 -52t-38 -39t-55.5 -24t-66.5 -8t-65.5 8t-53.5 23t-36.5 36.5t-13.5 48.5q0 40 26 65t59 41q-39 20 -56 44t-17 52q0 24 11.5 44.5t32.5 35.5t50.5 23.5t64.5 8.5q37 0 66 -9t49 -24 t31 -34t11 -39q0 -29 -20.5 -52t-50.5 -39zM732 182q-16 -8 -33.5 -22.5t-17.5 -40.5t19 -40t46 -14t46.5 13t19.5 37q0 23 -17.5 36t-42.5 24zM757 256q17 11 29 24.5t12 31.5q0 20 -15.5 31t-39.5 11q-26 0 -41 -12t-15 -29q0 -31 70 -57zM67 273l185 332h-226v85h320v-76 l-167 -341h-112z"/>
            <glyph glyph-name="partialdiff" unicode="∂" horiz-adv-x="618" d="M255 754q72 -41 131 -93t101.5 -114.5t65.5 -134t23 -152.5q0 -60 -20 -110t-56 -86t-85 -56t-106 -20q-58 0 -107 19t-84.5 54t-55.5 84.5t-20 109.5q0 61 20 110.5t55 84t83 53.5t104 19q23 0 46 -6.5t37 -14.5q-20 28 -45 56t-52.5 53.5t-57 47.5t-57.5 38zM309 85 q33 0 56.5 14t39.5 37.5t23.5 54.5t7.5 64q0 34 -8.5 65t-24.5 54t-39.5 36.5t-54.5 13.5t-54.5 -13.5t-40 -36.5t-25 -54t-8.5 -65q0 -33 7.5 -64t23.5 -54.5t40 -37.5t57 -14z"/>
            <glyph glyph-name="Delta" unicode="∆" horiz-adv-x="629" d="M11 0l216 690h176l216 -690h-608zM313 582l-140 -477h280z"/>
            <glyph glyph-name="product" unicode="∏" horiz-adv-x="719" d="M510 0v586h-302v-586h-136v690h574v-690h-136z"/>
            <glyph glyph-name="summation" unicode="∑" horiz-adv-x="528" d="M45 0v102l214 244l-214 240v104h453q-4 -25 -6.5 -49.5t-6.5 -49.5h-289l182 -202v-79l-186 -211h319l-19 -99h-447z"/>
            <glyph glyph-name="minus" unicode="−" d="M75 253v88h438v-88h-438z"/>
            <glyph glyph-name="uni2215" unicode="∕" horiz-adv-x="120" d="M-179 0l380 690h99l-381 -690h-98z"/>
            <glyph glyph-name="radical" unicode="√" d="M191 0q-29 104 -57.5 207t-57.5 207h-70v96h185l93 -381l187 598h119l-246 -727h-153z"/>
            <glyph glyph-name="infinity" unicode="∞" horiz-adv-x="559" d="M247 293q-7 7 -17.5 16.5t-22.5 17.5t-25 13.5t-25 5.5q-25 0 -39 -15t-14 -38q0 -22 14 -37.5t39 -15.5q12 0 24.5 5.5t25 13.5t23 17t17.5 17zM277 241q-12 -13 -26 -26t-30 -23.5t-33.5 -17t-37.5 -6.5q-25 0 -48.5 8t-41.5 24t-28.5 39.5t-10.5 53.5t11 53t29 39 t41 24.5t47 8.5q20 0 38 -6.5t33.5 -16.5t29.5 -23t27 -26q13 13 26.5 26t29.5 23t33.5 16.5t37.5 6.5q25 0 48 -8.5t41 -24t29 -39t11 -53.5t-10.5 -53.5t-28.5 -39t-41.5 -24t-48.5 -8.5q-20 0 -38 6.5t-33.5 17t-29.5 23.5t-26 26zM306 293q7 -8 18 -17t23 -17 t24.5 -13.5t24.5 -5.5q25 0 39.5 15t14.5 38t-14.5 38t-39.5 15q-12 0 -24.5 -5.5t-24.5 -13.5t-23 -17.5t-18 -16.5z"/>
            <glyph glyph-name="integral" unicode="∫" d="M212 506q0 89 47 140.5t141 51.5q37 0 70.5 -10t50.5 -20l-31 -83q-14 6 -33 10.5t-42 4.5q-38 0 -55 -24t-17 -66v-550q0 -89 -47 -140.5t-141 -51.5q-37 0 -70.5 10t-51.5 20l32 83q14 -6 32.5 -10.5t41.5 -4.5q38 0 55.5 24t17.5 66v550z"/>
            <glyph glyph-name="approxequal" unicode="≈" horiz-adv-x="556" d="M499 410q-8 -14 -19.5 -29t-27.5 -28t-36 -21t-44 -8t-49.5 8.5t-51 19t-50 19.5t-46.5 9q-12 0 -22.5 -5.5t-19.5 -13.5t-15.5 -17t-10.5 -17l-48 45q8 14 19.5 29t27.5 28t36 21t44 8q26 0 53.5 -9t53 -19.5t49 -19t41.5 -8.5q22 0 41 18t27 35zM499 211 q-8 -14 -19.5 -29t-27.5 -28t-36 -21t-44 -8t-49.5 8.5t-51 19t-50 19.5t-46.5 9q-12 0 -22.5 -5.5t-19.5 -13.5t-15.5 -17t-10.5 -17l-48 45q8 14 19.5 29t27.5 28t36 21t44 8q26 0 53.5 -9t53 -19.5t49 -19t41.5 -8.5q22 0 41 18t27 35z"/>
            <glyph glyph-name="notequal" unicode="≠" horiz-adv-x="573" d="M250 162l-74 -117h-89l74 117h-94v89h148l59 91h-207v89h260l72 112h89l-72 -112h89v-89h-142l-60 -91h202v-89h-255z"/>
            <glyph glyph-name="lessequal" unicode="≤" d="M74 275v102l438 166v-97l-337 -119l337 -116v-100zM75 1v88h438v-88h-438z"/>
            <glyph glyph-name="greaterequal" unicode="≥" d="M75 1v88h438v-88h-438zM74 111v100l338 116l-338 119v97l438 -166v-102z"/>
            <glyph glyph-name="lozenge" unicode="◊" horiz-adv-x="528" d="M197 0l-183 346l184 344h133l183 -344l-183 -346h-134zM264 125h2q30 55 59.5 110t59.5 111q-30 54 -59.5 109t-59.5 109h-2l-117 -219z"/>
            <glyph glyph-name="commaaccent" unicode="" horiz-adv-x="183" d="M33 -254l50 91h-50v112h118v-112l-61 -91h-57z"/>
            <glyph glyph-name="f_f" unicode="ﬀ" horiz-adv-x="654" d="M405 0v414h-176v-414h-131v414h-90v96h90v51q0 89 47 141t141 52q29 0 55.5 -7t44.5 -15l-23 -88q-11 5 -27.5 8t-34.5 3q-38 0 -55 -24t-17 -66v-55h176v51q0 89 47 141t141 52q38 0 71.5 -10.5t50.5 -20.5l-31 -83q-14 6 -33 10.5t-42 4.5q-38 0 -55 -24t-17 -66v-55 h117v-96h-117v-414h-132z"/>
            <glyph glyph-name="fi" unicode="ﬁ" horiz-adv-x="606" d="M405 0v414h-176v-414h-131v414h-90v96h90v41q0 104 56 153.5t169 49.5q21 0 43 -2.5t41.5 -7t36 -10t27.5 -10.5l-28 -91q-8 3 -21 7t-28 7.5t-31.5 5.5t-31.5 2q-50 0 -76 -23t-26 -79v-43h307v-510h-131z"/>
            <glyph glyph-name="fl" unicode="ﬂ" horiz-adv-x="608" d="M98 0v414h-90v96h90v51q0 89 47 141t141 52q25 0 48.5 -5.5t40.5 -12.5l-18 -90q-11 4 -25.5 6.5t-30.5 2.5q-38 0 -55 -24t-17 -66v-55h108v-96h-108v-414h-131zM405 0v699l132 55v-754h-132z"/>
            <glyph glyph-name="f_f_i" unicode="ﬃ" horiz-adv-x="913" d="M712 0v414h-176v-414h-131v414h-176v-414h-131v414h-90v96h90v51q0 89 47 141t141 52q27 0 52.5 -6.5t43.5 -13.5l-22 -88q-12 4 -27 6.5t-32 2.5q-38 0 -55 -24t-17 -66v-55h176v41q0 104 56 153.5t169 49.5q21 0 43 -2.5t42 -7t36.5 -10t27.5 -10.5l-29 -91q-8 3 -21 7 t-28 7.5t-31.5 5.5t-31.5 2q-49 0 -75.5 -23t-26.5 -79v-43h308v-510h-132z"/>
            <glyph glyph-name="f_f_l" unicode="ﬄ" horiz-adv-x="913" d="M405 0v414h-176v-414h-131v414h-90v96h90v51q0 89 47 141t141 52q27 0 52.5 -6.5t43.5 -13.5l-22 -88q-12 4 -27 6.5t-32 2.5q-38 0 -55 -24t-17 -66v-55h176v51q0 89 47 141t141 52q25 0 48.5 -5.5t40.5 -12.5l-18 -90q-11 4 -25.5 6.5t-29.5 2.5q-38 0 -55.5 -24 t-17.5 -66v-55h108v-96h-108v-414h-131zM713 0v699l131 55v-754h-131z"/>
            <glyph glyph-name="caron.alt" horiz-adv-x="207" d="M53 495v195h100v-195h-100z"/>
            <glyph glyph-name="revcommaaccent" horiz-adv-x="183" d="M33 517v112l61 91h57l-50 -91h50v-112h-118z"/>
            <glyph glyph-name="zerosuperior" horiz-adv-x="380" d="M190 338q32 0 49 38t17 102q0 66 -17.5 106t-49.5 40t-49 -41t-17 -105t17 -102t50 -38zM190 266q-40 0 -72 15.5t-54.5 43.5t-35 67.5t-12.5 86.5t12.5 87t35 69t54.5 45t72 16t72 -16t54.5 -45t34.5 -69t12 -87q0 -48 -12.5 -87t-35 -67t-54.5 -43.5t-71 -15.5z"/>
            <glyph glyph-name="foursuperior" horiz-adv-x="380" d="M218 273v88h-192v87l175 242h119v-256h45v-73h-45v-88h-102zM218 595l-118 -161h118v161z"/>
            <glyph glyph-name="fivesuperior" horiz-adv-x="380" d="M71 369q48 -30 89 -30q16 0 31.5 5t27.5 14t19 22.5t7 31.5q0 31 -20 47.5t-47 16.5q-17 0 -33.5 -6.5t-27.5 -17.5l-66 18l38 220h239v-75h-164l-14 -86q12 5 28.5 8.5t36.5 3.5q28 0 53 -8.5t43.5 -25t29 -39.5t10.5 -53q0 -36 -16 -64t-42 -47t-59.5 -28.5t-67.5 -9.5 q-31 0 -68 8.5t-70 31.5z"/>
            <glyph glyph-name="sixsuperior" horiz-adv-x="380" d="M310 600q-19 11 -41.5 17t-36.5 6t-30 -6.5t-30.5 -18.5t-24.5 -29.5t-13 -39.5q14 6 34.5 11.5t48.5 5.5q61 0 100.5 -31.5t39.5 -95.5q0 -34 -11.5 -62t-32.5 -48.5t-50 -31.5t-63 -11q-36 0 -68 13.5t-55 39.5t-36.5 65t-13.5 89q0 53 15 94.5t42 70t63 43.5t78 15 q31 0 63 -8.5t57 -25.5zM130 468q0 -59 17.5 -94t52.5 -35q28 0 43 20.5t15 52.5q0 35 -18 53t-49 18q-18 0 -33.5 -5t-27.5 -10z"/>
            <glyph glyph-name="sevensuperior" horiz-adv-x="380" d="M67 273l185 332h-226v85h320v-76l-167 -341h-112z"/>
            <glyph glyph-name="eightsuperior" horiz-adv-x="380" d="M278 499q39 -19 62.5 -45.5t23.5 -64.5q0 -29 -14 -52t-38 -39t-55.5 -24t-66.5 -8t-65.5 8t-53.5 23t-36.5 36.5t-13.5 48.5q0 40 26 65t59 41q-39 20 -56 44t-17 52q0 24 11.5 44.5t32.5 35.5t50.5 23.5t64.5 8.5q37 0 66 -9t49 -24t31 -34t11 -39q0 -29 -20.5 -52 t-50.5 -39zM178 454q-16 -8 -33.5 -22.5t-17.5 -40.5t19 -40t46 -14t46.5 13t19.5 37q0 23 -17.5 36t-42.5 24zM203 528q17 11 29 24.5t12 31.5q0 20 -15.5 31t-39.5 11q-26 0 -41 -12t-15 -29q0 -31 70 -57z"/>
            <glyph glyph-name="ninesuperior" horiz-adv-x="380" d="M70 362q20 -11 42.5 -17t37.5 -6t31 6.5t29.5 18.5t23.5 29.5t12 39.5q-15 -6 -34.5 -11t-46.5 -5q-62 0 -101.5 32t-39.5 95q0 31 11 59t31.5 48.5t50 32.5t65.5 12q76 0 123.5 -52.5t47.5 -151.5q0 -53 -14.5 -94.5t-40 -71t-61 -45t-77.5 -15.5q-30 0 -64.5 8.5 t-59.5 25.5zM250 495q0 57 -17 93t-52 36q-28 0 -43 -22t-15 -53q0 -33 18 -50.5t50 -17.5q16 0 31.5 4t27.5 10z"/>
            </font>
</defs>
</svg>
